<?xml version="1.0" encoding="utf-8"?>
<!-- Generator: Adobe Illustrator 16.0.0, SVG Export Plug-In . SVG Version: 6.00 Build 0)  -->
<!DOCTYPE svg PUBLIC "-//W3C//DTD SVG 1.1//EN" "http://www.w3.org/Graphics/SVG/1.1/DTD/svg11.dtd">
<svg version="1.1" id="Layer_1" xmlns="http://www.w3.org/2000/svg" xmlns:xlink="http://www.w3.org/1999/xlink" x="0px" y="0px"
	 width="340px" height="177.5px" viewBox="-0.8 -97.5 340 177.5" enable-background="new -0.8 -97.5 340 177.5"
	 xml:space="preserve">
<g>
	<path fill="#11B7FB" d="M34.4-6.4h4.4l-2.4,7.5c0,0-1.1,4.2,4,4.2c5.1,0,6.2-4,6.2-4l9.3-29.1h4.4L50.9,1.1c0,0-2.2,8.8-12.3,8.8
		c-9.9,0-6.6-8.8-6.6-8.8L34.4-6.4z"/>
	<path fill="#11B7FB" d="M108.7-15l-4.9,15.4h-9.7c0,0-2.2-0.2-3.1-2c0,0-1.5,2-4.9,2h-6.8l1.3-4.4h7.5c0,0,0.9,0,1.3-0.7
		c0.4-0.7,0.2-1.3,0.2-1.3l-2.2-7.3l4.8-2.9l2.4,10.8c0,0,0.4,1.8,2.4,1.8c2,0,3.1,0,3.1,0l3.5-11.2"/>
	<path fill="#11B7FB" d="M106.9-21.8c-0.4,1.5-2,2.6-3.3,2.6c-1.3,0-2-1.1-1.5-2.6c0.4-1.5,2-2.6,3.3-2.6
		C106.7-24.4,107.3-23.3,106.9-21.8z"/>
	<path fill="#11B7FB" d="M115.3-21.8c-0.4,1.5-2,2.6-3.3,2.6c-1.3,0-2-1.1-1.5-2.6c0.4-1.5,2-2.6,3.3-2.6
		C115-24.4,115.7-23.1,115.3-21.8z"/>
	<path fill="#11B7FB" d="M71-12.7c-0.7-2.2-2-2.6-4.2-2.9c-2.2,0-7.5,1.5-9.3,7.3c-1.8,5.5-0.9,7.3,2.6,8.2c0,0,1.3,0.2,1.8,0.2
		s2,0,2,0s-0.7,2.4-3.1,3.1c-2.4,0.7-5.5,0.4-5.5,0.4l-1.5,4.6c0,0,2.9,0,3.7,0c1.8-0.2,4.9-0.9,7.3-2.9c2.9-2.4,3.5-4.9,3.5-5.3
		c0.7-1.8,1.8-5.5,2.4-7.5C71.2-9,71.4-10.5,71-12.7z M65.4-4.8c0,0-0.4,0.7-2.6,0.7c-2.4,0-1.8-2.2-1.8-2.2l0.7-2
		c0,0,1.1-2.9,3.3-2.9c2,0,2,1.5,1.8,2.6C66.6-7.7,65.4-4.8,65.4-4.8z"/>
	<polygon fill="#11B7FB" points="76.9,0 72.5,0 81.3,-27.7 85.7,-27.5 	"/>
</g>
<g>
	<g>
		<g>
			
				<linearGradient id="SVGID_2_" gradientUnits="userSpaceOnUse" x1="30.3613" y1="561.1191" x2="53.615" y2="561.1191" gradientTransform="matrix(1 0 0 1 0.105 -514.2402)">
				<stop  offset="0" style="stop-color:#B4B4B4"/>
				<stop  offset="0.2641" style="stop-color:#D3D3D3"/>
				<stop  offset="0.5389" style="stop-color:#EBEBEB"/>
				<stop  offset="0.7918" style="stop-color:#FAFAFA"/>
				<stop  offset="1" style="stop-color:#FFFFFF"/>
			</linearGradient>
			<path id="SVGID_1_" fill="url(#SVGID_2_)" d="M30.4,34.4v24.9c0,0.7,0.4,1.1,1.3,1.1c1.1-0.2,1.3-0.7,1.3-1.1V38
				c2,2.4,7.9,9.9,7.9,9.9c0.2,0.4,0.7,0.7,1.1,0.7c0.7,0,1.1-0.4,1.1-0.7c0.7-0.7,5.7-7.5,7.7-9.9v21.4l0.4,0.9l1.1,0.4
				c0.7,0,1.3-0.4,1.3-1.3V34.6c0-0.4-0.2-0.7-0.4-1.1l-0.9-0.2c-0.7,0-0.9,0.2-1.1,0.4c0,0-7.1,9-9,11.7C41.2,44.1,33,33.8,33,33.8
				l-1.1-0.7C31.1,33.1,30.4,33.8,30.4,34.4"/>
		</g>
		<g>
			<g>
				<defs>
					<path id="SVGID_3_" d="M30.4,34.4v24.9c0,0.7,0.4,1.1,1.3,1.1c1.1-0.2,1.3-0.7,1.3-1.1V38c2,2.4,7.9,9.9,7.9,9.9
						c0.2,0.4,0.7,0.7,1.1,0.7c0.7,0,1.1-0.4,1.1-0.7c0.7-0.7,5.7-7.5,7.7-9.9v21.4l0.4,0.9l1.1,0.4c0.7,0,1.3-0.4,1.3-1.3V34.6
						c0-0.4-0.2-0.7-0.4-1.1l-0.9-0.2c-0.7,0-0.9,0.2-1.1,0.4c0,0-7.1,9-9,11.7C41.2,44.1,33,33.8,33,33.8l-1.1-0.7
						C31.1,33.1,30.4,33.8,30.4,34.4"/>
				</defs>
				<clipPath id="SVGID_5_">
					<use xlink:href="#SVGID_3_"  overflow="visible"/>
				</clipPath>
				<defs>
					<filter id="Adobe_OpacityMaskFilter" filterUnits="userSpaceOnUse" x="30.4" y="33.1" width="23.1" height="27.6">
						<feColorMatrix  type="matrix" values="1 0 0 0 0  0 1 0 0 0  0 0 1 0 0  0 0 0 1 0"/>
					</filter>
				</defs>
				<mask maskUnits="userSpaceOnUse" x="30.4" y="33.1" width="23.1" height="27.6" id="SVGID_4_">
					<g filter="url(#Adobe_OpacityMaskFilter)">
						<g>
							<g>
								<defs>
									<path id="SVGID_6_" d="M30.4,34.4v24.9c0,0.7,0.4,1.1,1.3,1.1c1.1-0.2,1.3-0.7,1.3-1.1V38c2,2.4,7.9,9.9,7.9,9.9
										c0.2,0.4,0.7,0.7,1.1,0.7c0.7,0,1.1-0.4,1.1-0.7c0.7-0.7,5.7-7.5,7.7-9.9v21.4l0.4,0.9l1.1,0.4c0.7,0,1.3-0.4,1.3-1.3V34.6
										c0-0.4-0.2-0.7-0.4-1.1l-0.9-0.2c-0.7,0-0.9,0.2-1.1,0.4c0,0-7.1,9-9,11.7C41.2,44.1,33,33.8,33,33.8l-1.1-0.7
										C31.1,33.1,30.4,33.8,30.4,34.4"/>
								</defs>
								<clipPath id="SVGID_8_" clip-path="url(#SVGID_5_)">
									<use xlink:href="#SVGID_6_"  overflow="visible"/>
								</clipPath>
							</g>
							<g>
								<defs>
									<path id="SVGID_9_" d="M30.4,34.4v24.9c0,0.7,0.4,1.1,1.3,1.1c1.1-0.2,1.3-0.7,1.3-1.1V38c2,2.4,7.9,9.9,7.9,9.9
										c0.2,0.4,0.7,0.7,1.1,0.7c0.7,0,1.1-0.4,1.1-0.7c0.7-0.7,5.7-7.5,7.7-9.9v21.4l0.4,0.9l1.1,0.4c0.7,0,1.3-0.4,1.3-1.3V34.6
										c0-0.4-0.2-0.7-0.4-1.1l-0.9-0.2c-0.7,0-0.9,0.2-1.1,0.4c0,0-7.1,9-9,11.7C41.2,44.1,33,33.8,33,33.8l-1.1-0.7
										C31.1,33.1,30.4,33.8,30.4,34.4"/>
								</defs>
								<defs>
									<path id="SVGID_11_" d="M30.4,34.4v24.9c0,0.7,0.4,1.1,1.3,1.1c1.1-0.2,1.3-0.7,1.3-1.1V38c2,2.4,7.9,9.9,7.9,9.9
										c0.2,0.4,0.7,0.7,1.1,0.7c0.7,0,1.1-0.4,1.1-0.7c0.7-0.7,5.7-7.5,7.7-9.9v21.4l0.4,0.9l1.1,0.4c0.7,0,1.3-0.4,1.3-1.3V34.6
										c0-0.4-0.2-0.7-0.4-1.1l-0.9-0.2c-0.7,0-0.9,0.2-1.1,0.4c0,0-7.1,9-9,11.7C41.2,44.1,33,33.8,33,33.8l-1.1-0.7
										C31.1,33.1,30.4,33.8,30.4,34.4"/>
								</defs>
								<clipPath id="SVGID_12_" clip-path="url(#SVGID_5_)">
									<use xlink:href="#SVGID_9_"  overflow="visible"/>
								</clipPath>
								<clipPath id="SVGID_14_" clip-path="url(#SVGID_12_)">
									<use xlink:href="#SVGID_11_"  overflow="visible"/>
								</clipPath>
								
									<linearGradient id="SVGID_15_" gradientUnits="userSpaceOnUse" x1="-1090.8535" y1="536.6719" x2="-1089.2494" y2="536.6719" gradientTransform="matrix(0 -25.0799 -25.0799 0 13501.6602 -27287.9316)">
									<stop  offset="0" style="stop-color:#EEEEEE"/>
									<stop  offset="1" style="stop-color:#F9F9F9"/>
								</linearGradient>
								<rect x="30.4" y="33.1" clip-path="url(#SVGID_14_)" fill="url(#SVGID_15_)" width="23.1" height="27.6"/>
							</g>
						</g>
					</g>
				</mask>
				
					<linearGradient id="SVGID_17_" gradientUnits="userSpaceOnUse" x1="-1090.8535" y1="536.6719" x2="-1089.2494" y2="536.6719" gradientTransform="matrix(0 -25.0799 -25.0799 0 13501.6602 -27287.9316)">
					<stop  offset="0" style="stop-color:#B4B4B4"/>
					<stop  offset="0.2641" style="stop-color:#D3D3D3"/>
					<stop  offset="0.5389" style="stop-color:#EBEBEB"/>
					<stop  offset="0.7918" style="stop-color:#FAFAFA"/>
					<stop  offset="1" style="stop-color:#FFFFFF"/>
				</linearGradient>
				<rect x="30.4" y="33.1" clip-path="url(#SVGID_5_)" mask="url(#SVGID_4_)" fill="url(#SVGID_17_)" width="23.1" height="27.6"/>
			</g>
		</g>
	</g>
	<g>
		<g>
			
				<linearGradient id="SVGID_18_" gradientUnits="userSpaceOnUse" x1="57.895" y1="561.4531" x2="81.9224" y2="561.4531" gradientTransform="matrix(1 0 0 1 0.105 -514.2402)">
				<stop  offset="0" style="stop-color:#B4B4B4"/>
				<stop  offset="0.2641" style="stop-color:#D3D3D3"/>
				<stop  offset="0.5389" style="stop-color:#EBEBEB"/>
				<stop  offset="0.7918" style="stop-color:#FAFAFA"/>
				<stop  offset="1" style="stop-color:#FFFFFF"/>
			</linearGradient>
			<path id="SVGID_7_" fill="url(#SVGID_18_)" d="M79.3,34.6v14.6c0,2.9-0.9,4.8-2.4,6.6c-1.8,1.8-4,2.6-6.8,2.6
				c-2.9,0-5.1-0.9-6.8-2.6c-1.8-1.8-2.6-4-2.6-6.6V34.6c-0.2-0.9-0.7-1.1-1.3-1.1c-0.9,0-1.3,0.7-1.3,1.1v14.6
				c0,3.5,1.1,6.4,3.3,8.4c2.2,2.2,5.1,3.3,8.8,3.3c3.5,0,6.4-1.1,8.6-3.3c2.2-2.2,3.3-5.1,3.3-8.4V34.6c-0.2-0.9-0.7-1.1-1.3-1.1
				C79.8,33.5,79.3,34.2,79.3,34.6"/>
		</g>
		<g>
			<g>
				<defs>
					<path id="SVGID_20_" d="M79.3,34.6v14.6c0,2.9-0.9,4.8-2.4,6.6c-1.8,1.8-4,2.6-6.8,2.6c-2.9,0-5.1-0.9-6.8-2.6
						c-1.8-1.8-2.6-4-2.6-6.6V34.6c-0.2-0.9-0.7-1.1-1.3-1.1c-0.9,0-1.3,0.7-1.3,1.1v14.6c0,3.5,1.1,6.4,3.3,8.4
						c2.2,2.2,5.1,3.3,8.8,3.3c3.5,0,6.4-1.1,8.6-3.3c2.2-2.2,3.3-5.1,3.3-8.4V34.6c-0.2-0.9-0.7-1.1-1.3-1.1
						C79.8,33.5,79.3,34.2,79.3,34.6"/>
				</defs>
				<clipPath id="SVGID_21_">
					<use xlink:href="#SVGID_20_"  overflow="visible"/>
				</clipPath>
				<defs>
					<filter id="Adobe_OpacityMaskFilter_1_" filterUnits="userSpaceOnUse" x="58" y="33.5" width="24" height="27.6">
						<feColorMatrix  type="matrix" values="1 0 0 0 0  0 1 0 0 0  0 0 1 0 0  0 0 0 1 0"/>
					</filter>
				</defs>
				<mask maskUnits="userSpaceOnUse" x="58" y="33.5" width="24" height="27.6" id="SVGID_10_">
					<g filter="url(#Adobe_OpacityMaskFilter_1_)">
						<g>
							<g>
								<defs>
									<path id="SVGID_23_" d="M79.3,34.6v14.6c0,2.9-0.9,4.8-2.4,6.6c-1.8,1.8-4,2.6-6.8,2.6c-2.9,0-5.1-0.9-6.8-2.6
										c-1.8-1.8-2.6-4-2.6-6.6V34.6c-0.2-0.9-0.7-1.1-1.3-1.1c-0.9,0-1.3,0.7-1.3,1.1v14.6c0,3.5,1.1,6.4,3.3,8.4
										c2.2,2.2,5.1,3.3,8.8,3.3c3.5,0,6.4-1.1,8.6-3.3c2.2-2.2,3.3-5.1,3.3-8.4V34.6c-0.2-0.9-0.7-1.1-1.3-1.1
										C79.8,33.5,79.3,34.2,79.3,34.6"/>
								</defs>
								<clipPath id="SVGID_24_" clip-path="url(#SVGID_21_)">
									<use xlink:href="#SVGID_23_"  overflow="visible"/>
								</clipPath>
							</g>
							<g>
								<defs>
									<path id="SVGID_26_" d="M79.3,34.6v14.6c0,2.9-0.9,4.8-2.4,6.6c-1.8,1.8-4,2.6-6.8,2.6c-2.9,0-5.1-0.9-6.8-2.6
										c-1.8-1.8-2.6-4-2.6-6.6V34.6c-0.2-0.9-0.7-1.1-1.3-1.1c-0.9,0-1.3,0.7-1.3,1.1v14.6c0,3.5,1.1,6.4,3.3,8.4
										c2.2,2.2,5.1,3.3,8.8,3.3c3.5,0,6.4-1.1,8.6-3.3c2.2-2.2,3.3-5.1,3.3-8.4V34.6c-0.2-0.9-0.7-1.1-1.3-1.1
										C79.8,33.5,79.3,34.2,79.3,34.6"/>
								</defs>
								<defs>
									<path id="SVGID_27_" d="M79.3,34.6v14.6c0,2.9-0.9,4.8-2.4,6.6c-1.8,1.8-4,2.6-6.8,2.6c-2.9,0-5.1-0.9-6.8-2.6
										c-1.8-1.8-2.6-4-2.6-6.6V34.6c-0.2-0.9-0.7-1.1-1.3-1.1c-0.9,0-1.3,0.7-1.3,1.1v14.6c0,3.5,1.1,6.4,3.3,8.4
										c2.2,2.2,5.1,3.3,8.8,3.3c3.5,0,6.4-1.1,8.6-3.3c2.2-2.2,3.3-5.1,3.3-8.4V34.6c-0.2-0.9-0.7-1.1-1.3-1.1
										C79.8,33.5,79.3,34.2,79.3,34.6"/>
								</defs>
								<clipPath id="SVGID_29_" clip-path="url(#SVGID_21_)">
									<use xlink:href="#SVGID_26_"  overflow="visible"/>
								</clipPath>
								<clipPath id="SVGID_30_" clip-path="url(#SVGID_29_)">
									<use xlink:href="#SVGID_27_"  overflow="visible"/>
								</clipPath>
								
									<linearGradient id="SVGID_32_" gradientUnits="userSpaceOnUse" x1="-1090.854" y1="536.25" x2="-1089.2491" y2="536.25" gradientTransform="matrix(0 -25.0799 -25.0799 0 13519.0352 -27287.9316)">
									<stop  offset="0" style="stop-color:#EEEEEE"/>
									<stop  offset="1" style="stop-color:#F9F9F9"/>
								</linearGradient>
								<rect x="58" y="33.5" clip-path="url(#SVGID_30_)" fill="url(#SVGID_32_)" width="24" height="27.6"/>
							</g>
						</g>
					</g>
				</mask>
				
					<linearGradient id="SVGID_33_" gradientUnits="userSpaceOnUse" x1="-1090.854" y1="536.25" x2="-1089.2491" y2="536.25" gradientTransform="matrix(0 -25.0799 -25.0799 0 13519.0352 -27287.9316)">
					<stop  offset="0" style="stop-color:#B4B4B4"/>
					<stop  offset="0.2641" style="stop-color:#D3D3D3"/>
					<stop  offset="0.5389" style="stop-color:#EBEBEB"/>
					<stop  offset="0.7918" style="stop-color:#FAFAFA"/>
					<stop  offset="1" style="stop-color:#FFFFFF"/>
				</linearGradient>
				<rect x="58" y="33.5" clip-path="url(#SVGID_21_)" mask="url(#SVGID_10_)" fill="url(#SVGID_33_)" width="24" height="27.6"/>
			</g>
		</g>
	</g>
	<g>
		<g>
			
				<linearGradient id="SVGID_35_" gradientUnits="userSpaceOnUse" x1="83.7876" y1="561.2324" x2="104.9491" y2="561.2324" gradientTransform="matrix(1 0 0 1 0.105 -514.2402)">
				<stop  offset="0" style="stop-color:#B4B4B4"/>
				<stop  offset="0.2641" style="stop-color:#D3D3D3"/>
				<stop  offset="0.5389" style="stop-color:#EBEBEB"/>
				<stop  offset="0.7918" style="stop-color:#FAFAFA"/>
				<stop  offset="1" style="stop-color:#FFFFFF"/>
			</linearGradient>
			<path id="SVGID_13_" fill="url(#SVGID_35_)" d="M89.5,49h6.6c1.5,0,2.6,0.4,3.3,1.1c0.9,0.9,1.1,1.8,1.1,3.1
				c0,1.8-0.7,2.9-1.8,3.7c-0.9,0.7-2.2,1.1-4,1.1h-5.3V49z M89.5,36h6c1.8,0,3.5,0.4,4.6,1.3c1.3,1.1,2,2.4,2,4
				c0,1.8-0.7,2.9-1.8,4c-1.1,0.9-2.6,1.3-4.4,1.3h-6.6V36L89.5,36L89.5,36z M88.8,33.3c-1.1,0-2,0.7-2,1.8v11.2h-1.8
				C84.2,46.6,84,47,84,47.7c0,0.9,0.7,1.3,1.1,1.3h1.8v9.9c0,1.1,0.7,1.8,2,1.8H95c7.1,0,8.6-3.7,8.6-7c0-1.3-0.2-2.6-0.9-3.7
				c-0.4-0.9-1.1-1.5-1.8-2c1.1-0.7,2-1.3,2.9-2.2c1.1-1.3,1.5-2.9,1.5-4.4c0-2.6-1.1-4.6-3.1-6c-1.8-1.3-4-1.8-6.4-1.8h-7.1V33.3z"
				/>
		</g>
		<g>
			<g>
				<defs>
					<path id="SVGID_36_" d="M89.5,49h6.6c1.5,0,2.6,0.4,3.3,1.1c0.9,0.9,1.1,1.8,1.1,3.1c0,1.8-0.7,2.9-1.8,3.7
						c-0.9,0.7-2.2,1.1-4,1.1h-5.3V49z M89.5,36h6c1.8,0,3.5,0.4,4.6,1.3c1.3,1.1,2,2.4,2,4c0,1.8-0.7,2.9-1.8,4
						c-1.1,0.9-2.6,1.3-4.4,1.3h-6.6V36L89.5,36L89.5,36z M88.8,33.3c-1.1,0-2,0.7-2,1.8v11.2h-1.8C84.2,46.6,84,47,84,47.7
						c0,0.9,0.7,1.3,1.1,1.3h1.8v9.9c0,1.1,0.7,1.8,2,1.8H95c7.1,0,8.6-3.7,8.6-7c0-1.3-0.2-2.6-0.9-3.7c-0.4-0.9-1.1-1.5-1.8-2
						c1.1-0.7,2-1.3,2.9-2.2c1.1-1.3,1.5-2.9,1.5-4.4c0-2.6-1.1-4.6-3.1-6c-1.8-1.3-4-1.8-6.4-1.8h-7.1V33.3z"/>
				</defs>
				<clipPath id="SVGID_38_">
					<use xlink:href="#SVGID_36_"  overflow="visible"/>
				</clipPath>
				<defs>
					<filter id="Adobe_OpacityMaskFilter_2_" filterUnits="userSpaceOnUse" x="84" y="33.3" width="21.2" height="27.3">
						<feColorMatrix  type="matrix" values="1 0 0 0 0  0 1 0 0 0  0 0 1 0 0  0 0 0 1 0"/>
					</filter>
				</defs>
				<mask maskUnits="userSpaceOnUse" x="84" y="33.3" width="21.2" height="27.3" id="SVGID_16_">
					<g filter="url(#Adobe_OpacityMaskFilter_2_)">
						<g>
							<g>
								<defs>
									<path id="SVGID_39_" d="M89.5,49h6.6c1.5,0,2.6,0.4,3.3,1.1c0.9,0.9,1.1,1.8,1.1,3.1c0,1.8-0.7,2.9-1.8,3.7
										c-0.9,0.7-2.2,1.1-4,1.1h-5.3V49z M89.5,36h6c1.8,0,3.5,0.4,4.6,1.3c1.3,1.1,2,2.4,2,4c0,1.8-0.7,2.9-1.8,4
										c-1.1,0.9-2.6,1.3-4.4,1.3h-6.6V36L89.5,36L89.5,36z M88.8,33.3c-1.1,0-2,0.7-2,1.8v11.2h-1.8C84.2,46.6,84,47,84,47.7
										c0,0.9,0.7,1.3,1.1,1.3h1.8v9.9c0,1.1,0.7,1.8,2,1.8H95c7.1,0,8.6-3.7,8.6-7c0-1.3-0.2-2.6-0.9-3.7c-0.4-0.9-1.1-1.5-1.8-2
										c1.1-0.7,2-1.3,2.9-2.2c1.1-1.3,1.5-2.9,1.5-4.4c0-2.6-1.1-4.6-3.1-6c-1.8-1.3-4-1.8-6.4-1.8h-7.1V33.3z"/>
								</defs>
								<clipPath id="SVGID_41_" clip-path="url(#SVGID_38_)">
									<use xlink:href="#SVGID_39_"  overflow="visible"/>
								</clipPath>
							</g>
							<g>
								<defs>
									<path id="SVGID_42_" d="M89.5,49h6.6c1.5,0,2.6,0.4,3.3,1.1c0.9,0.9,1.1,1.8,1.1,3.1c0,1.8-0.7,2.9-1.8,3.7
										c-0.9,0.7-2.2,1.1-4,1.1h-5.3V49z M89.5,36h6c1.8,0,3.5,0.4,4.6,1.3c1.3,1.1,2,2.4,2,4c0,1.8-0.7,2.9-1.8,4
										c-1.1,0.9-2.6,1.3-4.4,1.3h-6.6V36L89.5,36L89.5,36z M88.8,33.3c-1.1,0-2,0.7-2,1.8v11.2h-1.8C84.2,46.6,84,47,84,47.7
										c0,0.9,0.7,1.3,1.1,1.3h1.8v9.9c0,1.1,0.7,1.8,2,1.8H95c7.1,0,8.6-3.7,8.6-7c0-1.3-0.2-2.6-0.9-3.7c-0.4-0.9-1.1-1.5-1.8-2
										c1.1-0.7,2-1.3,2.9-2.2c1.1-1.3,1.5-2.9,1.5-4.4c0-2.6-1.1-4.6-3.1-6c-1.8-1.3-4-1.8-6.4-1.8h-7.1V33.3z"/>
								</defs>
								<defs>
									<path id="SVGID_44_" d="M89.5,49h6.6c1.5,0,2.6,0.4,3.3,1.1c0.9,0.9,1.1,1.8,1.1,3.1c0,1.8-0.7,2.9-1.8,3.7
										c-0.9,0.7-2.2,1.1-4,1.1h-5.3V49z M89.5,36h6c1.8,0,3.5,0.4,4.6,1.3c1.3,1.1,2,2.4,2,4c0,1.8-0.7,2.9-1.8,4
										c-1.1,0.9-2.6,1.3-4.4,1.3h-6.6V36L89.5,36L89.5,36z M88.8,33.3c-1.1,0-2,0.7-2,1.8v11.2h-1.8C84.2,46.6,84,47,84,47.7
										c0,0.9,0.7,1.3,1.1,1.3h1.8v9.9c0,1.1,0.7,1.8,2,1.8H95c7.1,0,8.6-3.7,8.6-7c0-1.3-0.2-2.6-0.9-3.7c-0.4-0.9-1.1-1.5-1.8-2
										c1.1-0.7,2-1.3,2.9-2.2c1.1-1.3,1.5-2.9,1.5-4.4c0-2.6-1.1-4.6-3.1-6c-1.8-1.3-4-1.8-6.4-1.8h-7.1V33.3z"/>
								</defs>
								<clipPath id="SVGID_45_" clip-path="url(#SVGID_38_)">
									<use xlink:href="#SVGID_42_"  overflow="visible"/>
								</clipPath>
								<clipPath id="SVGID_47_" clip-path="url(#SVGID_45_)">
									<use xlink:href="#SVGID_44_"  overflow="visible"/>
								</clipPath>
								
									<linearGradient id="SVGID_48_" gradientUnits="userSpaceOnUse" x1="-1090.8535" y1="535.8809" x2="-1089.2487" y2="535.8809" gradientTransform="matrix(0 -25.0799 -25.0799 0 13534.3789 -27287.9316)">
									<stop  offset="0" style="stop-color:#EEEEEE"/>
									<stop  offset="1" style="stop-color:#F9F9F9"/>
								</linearGradient>
								<rect x="84" y="33.3" clip-path="url(#SVGID_47_)" fill="url(#SVGID_48_)" width="21.2" height="27.3"/>
							</g>
						</g>
					</g>
				</mask>
				
					<linearGradient id="SVGID_50_" gradientUnits="userSpaceOnUse" x1="-1090.8535" y1="535.8809" x2="-1089.2487" y2="535.8809" gradientTransform="matrix(0 -25.0799 -25.0799 0 13534.3789 -27287.9316)">
					<stop  offset="0" style="stop-color:#B4B4B4"/>
					<stop  offset="0.2641" style="stop-color:#D3D3D3"/>
					<stop  offset="0.5389" style="stop-color:#EBEBEB"/>
					<stop  offset="0.7918" style="stop-color:#FAFAFA"/>
					<stop  offset="1" style="stop-color:#FFFFFF"/>
				</linearGradient>
				<rect x="84" y="33.3" clip-path="url(#SVGID_38_)" mask="url(#SVGID_16_)" fill="url(#SVGID_50_)" width="21.2" height="27.3"/>
			</g>
		</g>
	</g>
	<g>
		<g>
			
				<linearGradient id="SVGID_51_" gradientUnits="userSpaceOnUse" x1="106.2168" y1="561.2305" x2="135.7021" y2="561.2305" gradientTransform="matrix(1 0 0 1 0.105 -514.2402)">
				<stop  offset="0" style="stop-color:#B4B4B4"/>
				<stop  offset="0.2641" style="stop-color:#D3D3D3"/>
				<stop  offset="0.5389" style="stop-color:#EBEBEB"/>
				<stop  offset="0.7918" style="stop-color:#FAFAFA"/>
				<stop  offset="1" style="stop-color:#FFFFFF"/>
			</linearGradient>
			<path id="SVGID_19_" fill="url(#SVGID_51_)" d="M121,37.1c1.1,2,6.2,11.7,7.1,13.4h-14.1C114.8,48.8,120.1,39.1,121,37.1
				 M119.9,34c0,0-8.4,15.7-8.8,16.5h-2.4c-0.7,0-1.1,0.4-1.1,1.3c0,0.7,0.4,1.1,1.1,1.1h1.1c-0.9,1.5-3.3,6-3.3,6l-0.2,0.7
				c0,0.4,0.2,0.7,0.4,0.9l0.9,0.4l0.4,0.2l-0.2-0.2l1.1-0.7l0,0c0,0,3.5-6.4,3.7-7.3h16.8c0.4,0.7,3.7,7.3,3.7,7.3l0,0
				c0.4,0.4,0.9,0.4,1.1,0.4c0.7,0,1.1-0.4,1.1-0.7l0.2-0.7l-0.2-0.7c-4.2-9.3,1.1,2.2-13.2-24.9c-0.4-0.7-0.9-0.9-1.3-0.9
				C120.8,33.1,120.3,33.1,119.9,34"/>
		</g>
		<g>
			<g>
				<defs>
					<path id="SVGID_53_" d="M121,37.1c1.1,2,6.2,11.7,7.1,13.4h-14.1C114.8,48.8,120.1,39.1,121,37.1 M119.9,34
						c0,0-8.4,15.7-8.8,16.5h-2.4c-0.7,0-1.1,0.4-1.1,1.3c0,0.7,0.4,1.1,1.1,1.1h1.1c-0.9,1.5-3.3,6-3.3,6l-0.2,0.7
						c0,0.4,0.2,0.7,0.4,0.9l0.9,0.4l0.4,0.2l-0.2-0.2l1.1-0.7l0,0c0,0,3.5-6.4,3.7-7.3h16.8c0.4,0.7,3.7,7.3,3.7,7.3l0,0
						c0.4,0.4,0.9,0.4,1.1,0.4c0.7,0,1.1-0.4,1.1-0.7l0.2-0.7l-0.2-0.7c-4.2-9.3,1.1,2.2-13.2-24.9c-0.4-0.7-0.9-0.9-1.3-0.9
						C120.8,33.1,120.3,33.1,119.9,34"/>
				</defs>
				<clipPath id="SVGID_54_">
					<use xlink:href="#SVGID_53_"  overflow="visible"/>
				</clipPath>
				<defs>
					<filter id="Adobe_OpacityMaskFilter_3_" filterUnits="userSpaceOnUse" x="106.2" y="33.1" width="30.4" height="28">
						<feColorMatrix  type="matrix" values="1 0 0 0 0  0 1 0 0 0  0 0 1 0 0  0 0 0 1 0"/>
					</filter>
				</defs>
				<mask maskUnits="userSpaceOnUse" x="106.2" y="33.1" width="30.4" height="28" id="SVGID_22_">
					<g filter="url(#Adobe_OpacityMaskFilter_3_)">
						<g>
							<g>
								<defs>
									<path id="SVGID_56_" d="M121,37.1c1.1,2,6.2,11.7,7.1,13.4h-14.1C114.8,48.8,120.1,39.1,121,37.1 M119.9,34
										c0,0-8.4,15.7-8.8,16.5h-2.4c-0.7,0-1.1,0.4-1.1,1.3c0,0.7,0.4,1.1,1.1,1.1h1.1c-0.9,1.5-3.3,6-3.3,6l-0.2,0.7
										c0,0.4,0.2,0.7,0.4,0.9l0.9,0.4l0.4,0.2l-0.2-0.2l1.1-0.7l0,0c0,0,3.5-6.4,3.7-7.3h16.8c0.4,0.7,3.7,7.3,3.7,7.3l0,0
										c0.4,0.4,0.9,0.4,1.1,0.4c0.7,0,1.1-0.4,1.1-0.7l0.2-0.7l-0.2-0.7c-4.2-9.3,1.1,2.2-13.2-24.9c-0.4-0.7-0.9-0.9-1.3-0.9
										C120.8,33.1,120.3,33.1,119.9,34"/>
								</defs>
								<clipPath id="SVGID_57_" clip-path="url(#SVGID_54_)">
									<use xlink:href="#SVGID_56_"  overflow="visible"/>
								</clipPath>
							</g>
							<g>
								<defs>
									<path id="SVGID_59_" d="M121,37.1c1.1,2,6.2,11.7,7.1,13.4h-14.1C114.8,48.8,120.1,39.1,121,37.1 M119.9,34
										c0,0-8.4,15.7-8.8,16.5h-2.4c-0.7,0-1.1,0.4-1.1,1.3c0,0.7,0.4,1.1,1.1,1.1h1.1c-0.9,1.5-3.3,6-3.3,6l-0.2,0.7
										c0,0.4,0.2,0.7,0.4,0.9l0.9,0.4l0.4,0.2l-0.2-0.2l1.1-0.7l0,0c0,0,3.5-6.4,3.7-7.3h16.8c0.4,0.7,3.7,7.3,3.7,7.3l0,0
										c0.4,0.4,0.9,0.4,1.1,0.4c0.7,0,1.1-0.4,1.1-0.7l0.2-0.7l-0.2-0.7c-4.2-9.3,1.1,2.2-13.2-24.9c-0.4-0.7-0.9-0.9-1.3-0.9
										C120.8,33.1,120.3,33.1,119.9,34"/>
								</defs>
								<defs>
									<path id="SVGID_60_" d="M121,37.1c1.1,2,6.2,11.7,7.1,13.4h-14.1C114.8,48.8,120.1,39.1,121,37.1 M119.9,34
										c0,0-8.4,15.7-8.8,16.5h-2.4c-0.7,0-1.1,0.4-1.1,1.3c0,0.7,0.4,1.1,1.1,1.1h1.1c-0.9,1.5-3.3,6-3.3,6l-0.2,0.7
										c0,0.4,0.2,0.7,0.4,0.9l0.9,0.4l0.4,0.2l-0.2-0.2l1.1-0.7l0,0c0,0,3.5-6.4,3.7-7.3h16.8c0.4,0.7,3.7,7.3,3.7,7.3l0,0
										c0.4,0.4,0.9,0.4,1.1,0.4c0.7,0,1.1-0.4,1.1-0.7l0.2-0.7l-0.2-0.7c-4.2-9.3,1.1,2.2-13.2-24.9c-0.4-0.7-0.9-0.9-1.3-0.9
										C120.8,33.1,120.3,33.1,119.9,34"/>
								</defs>
								<clipPath id="SVGID_62_" clip-path="url(#SVGID_54_)">
									<use xlink:href="#SVGID_59_"  overflow="visible"/>
								</clipPath>
								<clipPath id="SVGID_63_" clip-path="url(#SVGID_62_)">
									<use xlink:href="#SVGID_60_"  overflow="visible"/>
								</clipPath>
								
									<linearGradient id="SVGID_65_" gradientUnits="userSpaceOnUse" x1="-1090.854" y1="535.4639" x2="-1089.2479" y2="535.4639" gradientTransform="matrix(0 -25.0799 -25.0799 0 13550.8164 -27287.9316)">
									<stop  offset="0" style="stop-color:#EEEEEE"/>
									<stop  offset="1" style="stop-color:#F9F9F9"/>
								</linearGradient>
								<rect x="106.2" y="33.1" clip-path="url(#SVGID_63_)" fill="url(#SVGID_65_)" width="30.4" height="28"/>
							</g>
						</g>
					</g>
				</mask>
				
					<linearGradient id="SVGID_66_" gradientUnits="userSpaceOnUse" x1="-1090.854" y1="535.4639" x2="-1089.2479" y2="535.4639" gradientTransform="matrix(0 -25.0799 -25.0799 0 13550.8164 -27287.9316)">
					<stop  offset="0" style="stop-color:#B4B4B4"/>
					<stop  offset="0.2641" style="stop-color:#D3D3D3"/>
					<stop  offset="0.5389" style="stop-color:#EBEBEB"/>
					<stop  offset="0.7918" style="stop-color:#FAFAFA"/>
					<stop  offset="1" style="stop-color:#FFFFFF"/>
				</linearGradient>
				
					<rect x="106.2" y="33.1" clip-path="url(#SVGID_54_)" mask="url(#SVGID_22_)" fill="url(#SVGID_66_)" width="30.4" height="28"/>
			</g>
		</g>
	</g>
	<g>
		<g>
			
				<linearGradient id="SVGID_68_" gradientUnits="userSpaceOnUse" x1="136.2524" y1="561.1191" x2="159.3946" y2="561.1191" gradientTransform="matrix(1 0 0 1 0.105 -514.2402)">
				<stop  offset="0" style="stop-color:#B4B4B4"/>
				<stop  offset="0.2641" style="stop-color:#D3D3D3"/>
				<stop  offset="0.5389" style="stop-color:#EBEBEB"/>
				<stop  offset="0.7918" style="stop-color:#FAFAFA"/>
				<stop  offset="1" style="stop-color:#FFFFFF"/>
			</linearGradient>
			<path id="SVGID_25_" fill="url(#SVGID_68_)" d="M140.2,34.9c-2.4,1.5-3.7,3.5-3.7,6.2c0,3.3,1.8,5.5,5.5,6.6l4.9,0.9l4.4,0.7
				c2.9,0.7,4.4,2.2,4.4,4.2c0,1.5-0.7,2.9-2.2,3.7c-1.3,0.9-3.1,1.3-4.9,1.3c-1.8,0-3.3-0.2-4.6-0.9c-1.3-0.7-2.6-1.3-3.5-2.2
				l-0.2-0.2H140c-0.7,0-0.9,0.2-1.1,0.4l-0.4,0.9h0.2c0.7,1.3,2,2.4,4.2,3.3c1.8,0.7,3.7,1.1,5.7,1.1c2.4,0,4.6-0.7,6.6-2
				c2.2-1.5,3.3-3.3,3.3-5.7c0-3.3-2-5.5-5.5-6.4l-9.3-1.5c-2.9-0.7-4.2-2.2-4.2-4.6c0-1.8,0.9-2.9,2.9-4c1.5-0.9,3.5-1.3,5.7-1.3
				c2,0,4,0.2,5.5,0.9c2,0.7,3.3,1.8,4.2,3.3l0.2,0.4h0.4c1.1-0.2,1.3-0.9,1.3-1.1c0-1.8-1.8-3.1-5.1-4.4c-2.6-0.9-5.1-1.5-6.8-1.5
				C144.6,32.9,142.2,33.5,140.2,34.9"/>
		</g>
		<g>
			<g>
				<defs>
					<path id="SVGID_69_" d="M140.2,34.9c-2.4,1.5-3.7,3.5-3.7,6.2c0,3.3,1.8,5.5,5.5,6.6l4.9,0.9l4.4,0.7c2.9,0.7,4.4,2.2,4.4,4.2
						c0,1.5-0.7,2.9-2.2,3.7c-1.3,0.9-3.1,1.3-4.9,1.3c-1.8,0-3.3-0.2-4.6-0.9c-1.3-0.7-2.6-1.3-3.5-2.2l-0.2-0.2H140
						c-0.7,0-0.9,0.2-1.1,0.4l-0.4,0.9h0.2c0.7,1.3,2,2.4,4.2,3.3c1.8,0.7,3.7,1.1,5.7,1.1c2.4,0,4.6-0.7,6.6-2
						c2.2-1.5,3.3-3.3,3.3-5.7c0-3.3-2-5.5-5.5-6.4l-9.3-1.5c-2.9-0.7-4.2-2.2-4.2-4.6c0-1.8,0.9-2.9,2.9-4c1.5-0.9,3.5-1.3,5.7-1.3
						c2,0,4,0.2,5.5,0.9c2,0.7,3.3,1.8,4.2,3.3l0.2,0.4h0.4c1.1-0.2,1.3-0.9,1.3-1.1c0-1.8-1.8-3.1-5.1-4.4
						c-2.6-0.9-5.1-1.5-6.8-1.5C144.6,32.9,142.2,33.5,140.2,34.9"/>
				</defs>
				<clipPath id="SVGID_71_">
					<use xlink:href="#SVGID_69_"  overflow="visible"/>
				</clipPath>
				<defs>
					<filter id="Adobe_OpacityMaskFilter_4_" filterUnits="userSpaceOnUse" x="136.4" y="32.9" width="23.1" height="28">
						<feColorMatrix  type="matrix" values="1 0 0 0 0  0 1 0 0 0  0 0 1 0 0  0 0 0 1 0"/>
					</filter>
				</defs>
				<mask maskUnits="userSpaceOnUse" x="136.4" y="32.9" width="23.1" height="28" id="SVGID_28_">
					<g filter="url(#Adobe_OpacityMaskFilter_4_)">
						<g>
							<g>
								<defs>
									<path id="SVGID_72_" d="M140.2,34.9c-2.4,1.5-3.7,3.5-3.7,6.2c0,3.3,1.8,5.5,5.5,6.6l4.9,0.9l4.4,0.7
										c2.9,0.7,4.4,2.2,4.4,4.2c0,1.5-0.7,2.9-2.2,3.7c-1.3,0.9-3.1,1.3-4.9,1.3c-1.8,0-3.3-0.2-4.6-0.9
										c-1.3-0.7-2.6-1.3-3.5-2.2l-0.2-0.2H140c-0.7,0-0.9,0.2-1.1,0.4l-0.4,0.9h0.2c0.7,1.3,2,2.4,4.2,3.3
										c1.8,0.7,3.7,1.1,5.7,1.1c2.4,0,4.6-0.7,6.6-2c2.2-1.5,3.3-3.3,3.3-5.7c0-3.3-2-5.5-5.5-6.4l-9.3-1.5
										c-2.9-0.7-4.2-2.2-4.2-4.6c0-1.8,0.9-2.9,2.9-4c1.5-0.9,3.5-1.3,5.7-1.3c2,0,4,0.2,5.5,0.9c2,0.7,3.3,1.8,4.2,3.3l0.2,0.4
										h0.4c1.1-0.2,1.3-0.9,1.3-1.1c0-1.8-1.8-3.1-5.1-4.4c-2.6-0.9-5.1-1.5-6.8-1.5C144.6,32.9,142.2,33.5,140.2,34.9"/>
								</defs>
								<clipPath id="SVGID_74_" clip-path="url(#SVGID_71_)">
									<use xlink:href="#SVGID_72_"  overflow="visible"/>
								</clipPath>
							</g>
							<g>
								<defs>
									<path id="SVGID_75_" d="M140.2,34.9c-2.4,1.5-3.7,3.5-3.7,6.2c0,3.3,1.8,5.5,5.5,6.6l4.9,0.9l4.4,0.7
										c2.9,0.7,4.4,2.2,4.4,4.2c0,1.5-0.7,2.9-2.2,3.7c-1.3,0.9-3.1,1.3-4.9,1.3c-1.8,0-3.3-0.2-4.6-0.9
										c-1.3-0.7-2.6-1.3-3.5-2.2l-0.2-0.2H140c-0.7,0-0.9,0.2-1.1,0.4l-0.4,0.9h0.2c0.7,1.3,2,2.4,4.2,3.3
										c1.8,0.7,3.7,1.1,5.7,1.1c2.4,0,4.6-0.7,6.6-2c2.2-1.5,3.3-3.3,3.3-5.7c0-3.3-2-5.5-5.5-6.4l-9.3-1.5
										c-2.9-0.7-4.2-2.2-4.2-4.6c0-1.8,0.9-2.9,2.9-4c1.5-0.9,3.5-1.3,5.7-1.3c2,0,4,0.2,5.5,0.9c2,0.7,3.3,1.8,4.2,3.3l0.2,0.4
										h0.4c1.1-0.2,1.3-0.9,1.3-1.1c0-1.8-1.8-3.1-5.1-4.4c-2.6-0.9-5.1-1.5-6.8-1.5C144.6,32.9,142.2,33.5,140.2,34.9"/>
								</defs>
								<defs>
									<path id="SVGID_77_" d="M140.2,34.9c-2.4,1.5-3.7,3.5-3.7,6.2c0,3.3,1.8,5.5,5.5,6.6l4.9,0.9l4.4,0.7
										c2.9,0.7,4.4,2.2,4.4,4.2c0,1.5-0.7,2.9-2.2,3.7c-1.3,0.9-3.1,1.3-4.9,1.3c-1.8,0-3.3-0.2-4.6-0.9
										c-1.3-0.7-2.6-1.3-3.5-2.2l-0.2-0.2H140c-0.7,0-0.9,0.2-1.1,0.4l-0.4,0.9h0.2c0.7,1.3,2,2.4,4.2,3.3
										c1.8,0.7,3.7,1.1,5.7,1.1c2.4,0,4.6-0.7,6.6-2c2.2-1.5,3.3-3.3,3.3-5.7c0-3.3-2-5.5-5.5-6.4l-9.3-1.5
										c-2.9-0.7-4.2-2.2-4.2-4.6c0-1.8,0.9-2.9,2.9-4c1.5-0.9,3.5-1.3,5.7-1.3c2,0,4,0.2,5.5,0.9c2,0.7,3.3,1.8,4.2,3.3l0.2,0.4
										h0.4c1.1-0.2,1.3-0.9,1.3-1.1c0-1.8-1.8-3.1-5.1-4.4c-2.6-0.9-5.1-1.5-6.8-1.5C144.6,32.9,142.2,33.5,140.2,34.9"/>
								</defs>
								<clipPath id="SVGID_78_" clip-path="url(#SVGID_71_)">
									<use xlink:href="#SVGID_75_"  overflow="visible"/>
								</clipPath>
								<clipPath id="SVGID_79_" clip-path="url(#SVGID_78_)">
									<use xlink:href="#SVGID_77_"  overflow="visible"/>
								</clipPath>
								
									<linearGradient id="SVGID_80_" gradientUnits="userSpaceOnUse" x1="-1090.8545" y1="535.0723" x2="-1089.249" y2="535.0723" gradientTransform="matrix(0 -25.0799 -25.0799 0 13567.5352 -27287.9629)">
									<stop  offset="0" style="stop-color:#EEEEEE"/>
									<stop  offset="1" style="stop-color:#F9F9F9"/>
								</linearGradient>
								<rect x="136.4" y="32.9" clip-path="url(#SVGID_79_)" fill="url(#SVGID_80_)" width="23.1" height="28"/>
							</g>
						</g>
					</g>
				</mask>
				
					<linearGradient id="SVGID_82_" gradientUnits="userSpaceOnUse" x1="-1090.8555" y1="535.0723" x2="-1089.25" y2="535.0723" gradientTransform="matrix(0 -25.0799 -25.0799 0 13567.5352 -27287.9473)">
					<stop  offset="0" style="stop-color:#B4B4B4"/>
					<stop  offset="0.2641" style="stop-color:#D3D3D3"/>
					<stop  offset="0.5389" style="stop-color:#EBEBEB"/>
					<stop  offset="0.7918" style="stop-color:#FAFAFA"/>
					<stop  offset="1" style="stop-color:#FFFFFF"/>
				</linearGradient>
				
					<rect x="136.4" y="32.9" clip-path="url(#SVGID_71_)" mask="url(#SVGID_28_)" fill="url(#SVGID_82_)" width="23.1" height="28"/>
			</g>
		</g>
	</g>
	<g>
		<g>
			
				<linearGradient id="SVGID_83_" gradientUnits="userSpaceOnUse" x1="160.5815" y1="561.2324" x2="184.1362" y2="561.2324" gradientTransform="matrix(1 0 0 1 0.105 -514.2402)">
				<stop  offset="0" style="stop-color:#B4B4B4"/>
				<stop  offset="0.2641" style="stop-color:#D3D3D3"/>
				<stop  offset="0.5389" style="stop-color:#EBEBEB"/>
				<stop  offset="0.7918" style="stop-color:#FAFAFA"/>
				<stop  offset="1" style="stop-color:#FFFFFF"/>
			</linearGradient>
			<path id="SVGID_31_" fill="url(#SVGID_83_)" d="M181.6,34.6v15.9h-16.1V34.6l-0.4-0.9l-1.1-0.4c-0.9,0-1.3,0.4-1.3,1.3v15.9h-0.9
				l-0.9,0.4l-0.4,0.9c0,0.7,0.4,1.3,1.3,1.3h0.9v6.2l0.4,0.9l0.9,0.2c0.9,0,1.3-0.4,1.3-1.3v-6.4h16.1v6.6l0.4,0.9l1.1,0.4
				c0.7,0,1.3-0.4,1.3-1.1V34.6c0-0.7-0.4-1.3-1.3-1.3C181.8,33.5,181.6,34.2,181.6,34.6 M164.2,33.5L164.2,33.5L164.2,33.5
				L164.2,33.5z"/>
		</g>
		<g>
			<g>
				<defs>
					<path id="SVGID_84_" d="M181.6,34.6v15.9h-16.1V34.6l-0.4-0.9l-1.1-0.4c-0.9,0-1.3,0.4-1.3,1.3v15.9h-0.9l-0.9,0.4l-0.4,0.9
						c0,0.7,0.4,1.3,1.3,1.3h0.9v6.2l0.4,0.9l0.9,0.2c0.9,0,1.3-0.4,1.3-1.3v-6.4h16.1v6.6l0.4,0.9l1.1,0.4c0.7,0,1.3-0.4,1.3-1.1
						V34.6c0-0.7-0.4-1.3-1.3-1.3C181.8,33.5,181.6,34.2,181.6,34.6 M164.2,33.5L164.2,33.5L164.2,33.5L164.2,33.5z"/>
				</defs>
				<clipPath id="SVGID_85_">
					<use xlink:href="#SVGID_84_"  overflow="visible"/>
				</clipPath>
				<defs>
					<filter id="Adobe_OpacityMaskFilter_5_" filterUnits="userSpaceOnUse" x="160.7" y="33.5" width="23.6" height="27.1">
						<feColorMatrix  type="matrix" values="1 0 0 0 0  0 1 0 0 0  0 0 1 0 0  0 0 0 1 0"/>
					</filter>
				</defs>
				<mask maskUnits="userSpaceOnUse" x="160.7" y="33.5" width="23.6" height="27.1" id="SVGID_34_">
					<g filter="url(#Adobe_OpacityMaskFilter_5_)">
						<g>
							<g>
								<defs>
									<path id="SVGID_86_" d="M181.6,34.6v15.9h-16.1V34.6l-0.4-0.9l-1.1-0.4c-0.9,0-1.3,0.4-1.3,1.3v15.9h-0.9l-0.9,0.4
										l-0.4,0.9c0,0.7,0.4,1.3,1.3,1.3h0.9v6.2l0.4,0.9l0.9,0.2c0.9,0,1.3-0.4,1.3-1.3v-6.4h16.1v6.6l0.4,0.9l1.1,0.4
										c0.7,0,1.3-0.4,1.3-1.1V34.6c0-0.7-0.4-1.3-1.3-1.3C181.8,33.5,181.6,34.2,181.6,34.6 M164.2,33.5L164.2,33.5L164.2,33.5
										L164.2,33.5z"/>
								</defs>
								<clipPath id="SVGID_87_" clip-path="url(#SVGID_85_)">
									<use xlink:href="#SVGID_86_"  overflow="visible"/>
								</clipPath>
							</g>
							<g>
								<defs>
									<path id="SVGID_88_" d="M181.6,34.6v15.9h-16.1V34.6l-0.4-0.9l-1.1-0.4c-0.9,0-1.3,0.4-1.3,1.3v15.9h-0.9l-0.9,0.4
										l-0.4,0.9c0,0.7,0.4,1.3,1.3,1.3h0.9v6.2l0.4,0.9l0.9,0.2c0.9,0,1.3-0.4,1.3-1.3v-6.4h16.1v6.6l0.4,0.9l1.1,0.4
										c0.7,0,1.3-0.4,1.3-1.1V34.6c0-0.7-0.4-1.3-1.3-1.3C181.8,33.5,181.6,34.2,181.6,34.6 M164.2,33.5L164.2,33.5L164.2,33.5
										L164.2,33.5z"/>
								</defs>
								<defs>
									<path id="SVGID_89_" d="M181.6,34.6v15.9h-16.1V34.6l-0.4-0.9l-1.1-0.4c-0.9,0-1.3,0.4-1.3,1.3v15.9h-0.9l-0.9,0.4
										l-0.4,0.9c0,0.7,0.4,1.3,1.3,1.3h0.9v6.2l0.4,0.9l0.9,0.2c0.9,0,1.3-0.4,1.3-1.3v-6.4h16.1v6.6l0.4,0.9l1.1,0.4
										c0.7,0,1.3-0.4,1.3-1.1V34.6c0-0.7-0.4-1.3-1.3-1.3C181.8,33.5,181.6,34.2,181.6,34.6 M164.2,33.5L164.2,33.5L164.2,33.5
										L164.2,33.5z"/>
								</defs>
								<clipPath id="SVGID_90_" clip-path="url(#SVGID_85_)">
									<use xlink:href="#SVGID_88_"  overflow="visible"/>
								</clipPath>
								<clipPath id="SVGID_91_" clip-path="url(#SVGID_90_)">
									<use xlink:href="#SVGID_89_"  overflow="visible"/>
								</clipPath>
								
									<linearGradient id="SVGID_92_" gradientUnits="userSpaceOnUse" x1="-1090.853" y1="534.707" x2="-1089.2484" y2="534.707" gradientTransform="matrix(0 -25.0799 -25.0799 0 13582.8477 -27287.9316)">
									<stop  offset="0" style="stop-color:#EEEEEE"/>
									<stop  offset="1" style="stop-color:#F9F9F9"/>
								</linearGradient>
								<rect x="160.7" y="33.5" clip-path="url(#SVGID_91_)" fill="url(#SVGID_92_)" width="23.6" height="27.1"/>
							</g>
						</g>
					</g>
				</mask>
				
					<linearGradient id="SVGID_93_" gradientUnits="userSpaceOnUse" x1="-1090.853" y1="534.707" x2="-1089.2484" y2="534.707" gradientTransform="matrix(0 -25.0799 -25.0799 0 13582.8477 -27287.9316)">
					<stop  offset="0" style="stop-color:#B4B4B4"/>
					<stop  offset="0.2641" style="stop-color:#D3D3D3"/>
					<stop  offset="0.5389" style="stop-color:#EBEBEB"/>
					<stop  offset="0.7918" style="stop-color:#FAFAFA"/>
					<stop  offset="1" style="stop-color:#FFFFFF"/>
				</linearGradient>
				
					<rect x="160.7" y="33.5" clip-path="url(#SVGID_85_)" mask="url(#SVGID_34_)" fill="url(#SVGID_93_)" width="23.6" height="27.1"/>
			</g>
		</g>
	</g>
	<g>
		<g>
			
				<linearGradient id="SVGID_94_" gradientUnits="userSpaceOnUse" x1="186.0825" y1="561.3438" x2="210.3949" y2="561.3438" gradientTransform="matrix(1 0 0 1 0.105 -514.2402)">
				<stop  offset="0" style="stop-color:#B4B4B4"/>
				<stop  offset="0.2641" style="stop-color:#D3D3D3"/>
				<stop  offset="0.5389" style="stop-color:#EBEBEB"/>
				<stop  offset="0.7918" style="stop-color:#FAFAFA"/>
				<stop  offset="1" style="stop-color:#FFFFFF"/>
			</linearGradient>
			<path id="SVGID_37_" fill="url(#SVGID_94_)" d="M191.1,33.3c-1.1,0-2,0.7-2,1.8v15.4h-1.8c-0.9,0.2-1.3,0.7-1.3,1.3l0,0
				c0,0.7,0.4,1.3,1.3,1.3h1.8v6c0,1.1,0.7,1.8,2,1.8h17.2c0.9-0.2,1.3-0.7,1.3-1.3s-0.4-1.3-1.3-1.3h-16.5v-5.3h17l0,0
				c0.7-0.2,1.1-0.7,1.1-1.3s-0.4-1.3-1.3-1.3h-17V35.7H209c0.2,0,1.1-0.4,1.1-0.4l0.2-0.7v-0.2l0,0c0-0.7-0.7-1.1-1.3-1.1H191.1z"
				/>
		</g>
		<g>
			<g>
				<defs>
					<path id="SVGID_95_" d="M191.1,33.3c-1.1,0-2,0.7-2,1.8v15.4h-1.8c-0.9,0.2-1.3,0.7-1.3,1.3l0,0c0,0.7,0.4,1.3,1.3,1.3h1.8v6
						c0,1.1,0.7,1.8,2,1.8h17.2c0.9-0.2,1.3-0.7,1.3-1.3s-0.4-1.3-1.3-1.3h-16.5v-5.3h17l0,0c0.7-0.2,1.1-0.7,1.1-1.3
						s-0.4-1.3-1.3-1.3h-17V35.7H209c0.2,0,1.1-0.4,1.1-0.4l0.2-0.7v-0.2l0,0c0-0.7-0.7-1.1-1.3-1.1H191.1z"/>
				</defs>
				<clipPath id="SVGID_96_">
					<use xlink:href="#SVGID_95_"  overflow="visible"/>
				</clipPath>
				<defs>
					<filter id="Adobe_OpacityMaskFilter_6_" filterUnits="userSpaceOnUse" x="186.2" y="33.3" width="24.2" height="27.3">
						<feColorMatrix  type="matrix" values="1 0 0 0 0  0 1 0 0 0  0 0 1 0 0  0 0 0 1 0"/>
					</filter>
				</defs>
				<mask maskUnits="userSpaceOnUse" x="186.2" y="33.3" width="24.2" height="27.3" id="SVGID_40_">
					<g filter="url(#Adobe_OpacityMaskFilter_6_)">
						<g>
							<g>
								<defs>
									<path id="SVGID_97_" d="M191.1,33.3c-1.1,0-2,0.7-2,1.8v15.4h-1.8c-0.9,0.2-1.3,0.7-1.3,1.3l0,0c0,0.7,0.4,1.3,1.3,1.3h1.8
										v6c0,1.1,0.7,1.8,2,1.8h17.2c0.9-0.2,1.3-0.7,1.3-1.3s-0.4-1.3-1.3-1.3h-16.5v-5.3h17l0,0c0.7-0.2,1.1-0.7,1.1-1.3
										s-0.4-1.3-1.3-1.3h-17V35.7H209c0.2,0,1.1-0.4,1.1-0.4l0.2-0.7v-0.2l0,0c0-0.7-0.7-1.1-1.3-1.1H191.1z"/>
								</defs>
								<clipPath id="SVGID_98_" clip-path="url(#SVGID_96_)">
									<use xlink:href="#SVGID_97_"  overflow="visible"/>
								</clipPath>
							</g>
							<g>
								<defs>
									<path id="SVGID_99_" d="M191.1,33.3c-1.1,0-2,0.7-2,1.8v15.4h-1.8c-0.9,0.2-1.3,0.7-1.3,1.3l0,0c0,0.7,0.4,1.3,1.3,1.3h1.8
										v6c0,1.1,0.7,1.8,2,1.8h17.2c0.9-0.2,1.3-0.7,1.3-1.3s-0.4-1.3-1.3-1.3h-16.5v-5.3h17l0,0c0.7-0.2,1.1-0.7,1.1-1.3
										s-0.4-1.3-1.3-1.3h-17V35.7H209c0.2,0,1.1-0.4,1.1-0.4l0.2-0.7v-0.2l0,0c0-0.7-0.7-1.1-1.3-1.1H191.1z"/>
								</defs>
								<defs>
									<path id="SVGID_100_" d="M191.1,33.3c-1.1,0-2,0.7-2,1.8v15.4h-1.8c-0.9,0.2-1.3,0.7-1.3,1.3l0,0c0,0.7,0.4,1.3,1.3,1.3
										h1.8v6c0,1.1,0.7,1.8,2,1.8h17.2c0.9-0.2,1.3-0.7,1.3-1.3s-0.4-1.3-1.3-1.3h-16.5v-5.3h17l0,0c0.7-0.2,1.1-0.7,1.1-1.3
										s-0.4-1.3-1.3-1.3h-17V35.7H209c0.2,0,1.1-0.4,1.1-0.4l0.2-0.7v-0.2l0,0c0-0.7-0.7-1.1-1.3-1.1H191.1z"/>
								</defs>
								<clipPath id="SVGID_101_" clip-path="url(#SVGID_96_)">
									<use xlink:href="#SVGID_99_"  overflow="visible"/>
								</clipPath>
								<clipPath id="SVGID_102_" clip-path="url(#SVGID_101_)">
									<use xlink:href="#SVGID_100_"  overflow="visible"/>
								</clipPath>
								
									<linearGradient id="SVGID_103_" gradientUnits="userSpaceOnUse" x1="-1090.8535" y1="534.3154" x2="-1089.2487" y2="534.3154" gradientTransform="matrix(0 -25.0799 -25.0799 0 13598.9414 -27287.9316)">
									<stop  offset="0" style="stop-color:#EEEEEE"/>
									<stop  offset="1" style="stop-color:#F9F9F9"/>
								</linearGradient>
								<rect x="186.2" y="33.3" clip-path="url(#SVGID_102_)" fill="url(#SVGID_103_)" width="24.2" height="27.3"/>
							</g>
						</g>
					</g>
				</mask>
				
					<linearGradient id="SVGID_104_" gradientUnits="userSpaceOnUse" x1="-1090.8535" y1="534.3154" x2="-1089.2487" y2="534.3154" gradientTransform="matrix(0 -25.0799 -25.0799 0 13598.9414 -27287.9316)">
					<stop  offset="0" style="stop-color:#B4B4B4"/>
					<stop  offset="0.2641" style="stop-color:#D3D3D3"/>
					<stop  offset="0.5389" style="stop-color:#EBEBEB"/>
					<stop  offset="0.7918" style="stop-color:#FAFAFA"/>
					<stop  offset="1" style="stop-color:#FFFFFF"/>
				</linearGradient>
				
					<rect x="186.2" y="33.3" clip-path="url(#SVGID_96_)" mask="url(#SVGID_40_)" fill="url(#SVGID_104_)" width="24.2" height="27.3"/>
			</g>
		</g>
	</g>
	<g>
		<g>
			
				<linearGradient id="SVGID_105_" gradientUnits="userSpaceOnUse" x1="213.1753" y1="561.2324" x2="234.2975" y2="561.2324" gradientTransform="matrix(1 0 0 1 0.105 -514.2402)">
				<stop  offset="0" style="stop-color:#B4B4B4"/>
				<stop  offset="0.2641" style="stop-color:#D3D3D3"/>
				<stop  offset="0.5389" style="stop-color:#EBEBEB"/>
				<stop  offset="0.7918" style="stop-color:#FAFAFA"/>
				<stop  offset="1" style="stop-color:#FFFFFF"/>
			</linearGradient>
			<path id="SVGID_43_" fill="url(#SVGID_105_)" d="M215.1,33.3c-1.1,0-2,0.7-2,1.8v24.2c0,0.9,0.7,1.3,1.3,1.3
				c1.1,0,1.3-0.7,1.3-1.3V36h7.5c2.4,0,4.4,0.4,6,1.5c1.5,1.1,2.2,2.9,2.2,5.1c0,2.4-0.9,4-2.6,5.1c-1.5,0.9-4,1.3-7.1,1.1H220
				l-0.9,0.2l-0.4,0.9c0,0.4,0.2,0.9,0.7,1.1l12.6,9.3l0.9,0.2c0.9,0,1.3-0.4,1.3-1.1c0-0.2-0.7-1.1-0.7-1.1s-5.1-4.9-9-7.1
				c2.4,0,4.4-0.7,6-1.5c2.4-1.5,3.7-4,3.7-7.3c0-3.5-1.1-6-3.5-7.5c-1.8-1.1-4.2-1.5-7.3-1.5L215.1,33.3L215.1,33.3z"/>
		</g>
		<g>
			<g>
				<defs>
					<path id="SVGID_106_" d="M215.1,33.3c-1.1,0-2,0.7-2,1.8v24.2c0,0.9,0.7,1.3,1.3,1.3c1.1,0,1.3-0.7,1.3-1.3V36h7.5
						c2.4,0,4.4,0.4,6,1.5c1.5,1.1,2.2,2.9,2.2,5.1c0,2.4-0.9,4-2.6,5.1c-1.5,0.9-4,1.3-7.1,1.1H220l-0.9,0.2l-0.4,0.9
						c0,0.4,0.2,0.9,0.7,1.1l12.6,9.3l0.9,0.2c0.9,0,1.3-0.4,1.3-1.1c0-0.2-0.7-1.1-0.7-1.1s-5.1-4.9-9-7.1c2.4,0,4.4-0.7,6-1.5
						c2.4-1.5,3.7-4,3.7-7.3c0-3.5-1.1-6-3.5-7.5c-1.8-1.1-4.2-1.5-7.3-1.5L215.1,33.3L215.1,33.3z"/>
				</defs>
				<clipPath id="SVGID_107_">
					<use xlink:href="#SVGID_106_"  overflow="visible"/>
				</clipPath>
				<defs>
					<filter id="Adobe_OpacityMaskFilter_7_" filterUnits="userSpaceOnUse" x="213.4" y="33.3" width="21.2" height="27.3">
						<feColorMatrix  type="matrix" values="1 0 0 0 0  0 1 0 0 0  0 0 1 0 0  0 0 0 1 0"/>
					</filter>
				</defs>
				<mask maskUnits="userSpaceOnUse" x="213.4" y="33.3" width="21.2" height="27.3" id="SVGID_46_">
					<g filter="url(#Adobe_OpacityMaskFilter_7_)">
						<g>
							<g>
								<defs>
									<path id="SVGID_108_" d="M215.1,33.3c-1.1,0-2,0.7-2,1.8v24.2c0,0.9,0.7,1.3,1.3,1.3c1.1,0,1.3-0.7,1.3-1.3V36h7.5
										c2.4,0,4.4,0.4,6,1.5c1.5,1.1,2.2,2.9,2.2,5.1c0,2.4-0.9,4-2.6,5.1c-1.5,0.9-4,1.3-7.1,1.1H220l-0.9,0.2l-0.4,0.9
										c0,0.4,0.2,0.9,0.7,1.1l12.6,9.3l0.9,0.2c0.9,0,1.3-0.4,1.3-1.1c0-0.2-0.7-1.1-0.7-1.1s-5.1-4.9-9-7.1c2.4,0,4.4-0.7,6-1.5
										c2.4-1.5,3.7-4,3.7-7.3c0-3.5-1.1-6-3.5-7.5c-1.8-1.1-4.2-1.5-7.3-1.5L215.1,33.3L215.1,33.3z"/>
								</defs>
								<clipPath id="SVGID_109_" clip-path="url(#SVGID_107_)">
									<use xlink:href="#SVGID_108_"  overflow="visible"/>
								</clipPath>
							</g>
							<g>
								<defs>
									<path id="SVGID_110_" d="M215.1,33.3c-1.1,0-2,0.7-2,1.8v24.2c0,0.9,0.7,1.3,1.3,1.3c1.1,0,1.3-0.7,1.3-1.3V36h7.5
										c2.4,0,4.4,0.4,6,1.5c1.5,1.1,2.2,2.9,2.2,5.1c0,2.4-0.9,4-2.6,5.1c-1.5,0.9-4,1.3-7.1,1.1H220l-0.9,0.2l-0.4,0.9
										c0,0.4,0.2,0.9,0.7,1.1l12.6,9.3l0.9,0.2c0.9,0,1.3-0.4,1.3-1.1c0-0.2-0.7-1.1-0.7-1.1s-5.1-4.9-9-7.1c2.4,0,4.4-0.7,6-1.5
										c2.4-1.5,3.7-4,3.7-7.3c0-3.5-1.1-6-3.5-7.5c-1.8-1.1-4.2-1.5-7.3-1.5L215.1,33.3L215.1,33.3z"/>
								</defs>
								<defs>
									<path id="SVGID_111_" d="M215.1,33.3c-1.1,0-2,0.7-2,1.8v24.2c0,0.9,0.7,1.3,1.3,1.3c1.1,0,1.3-0.7,1.3-1.3V36h7.5
										c2.4,0,4.4,0.4,6,1.5c1.5,1.1,2.2,2.9,2.2,5.1c0,2.4-0.9,4-2.6,5.1c-1.5,0.9-4,1.3-7.1,1.1H220l-0.9,0.2l-0.4,0.9
										c0,0.4,0.2,0.9,0.7,1.1l12.6,9.3l0.9,0.2c0.9,0,1.3-0.4,1.3-1.1c0-0.2-0.7-1.1-0.7-1.1s-5.1-4.9-9-7.1c2.4,0,4.4-0.7,6-1.5
										c2.4-1.5,3.7-4,3.7-7.3c0-3.5-1.1-6-3.5-7.5c-1.8-1.1-4.2-1.5-7.3-1.5L215.1,33.3L215.1,33.3z"/>
								</defs>
								<clipPath id="SVGID_112_" clip-path="url(#SVGID_107_)">
									<use xlink:href="#SVGID_110_"  overflow="visible"/>
								</clipPath>
								<clipPath id="SVGID_113_" clip-path="url(#SVGID_112_)">
									<use xlink:href="#SVGID_111_"  overflow="visible"/>
								</clipPath>
								
									<linearGradient id="SVGID_114_" gradientUnits="userSpaceOnUse" x1="-1090.8535" y1="533.9287" x2="-1089.2483" y2="533.9287" gradientTransform="matrix(0 -25.0799 -25.0799 0 13614.8164 -27287.9316)">
									<stop  offset="0" style="stop-color:#EEEEEE"/>
									<stop  offset="1" style="stop-color:#F9F9F9"/>
								</linearGradient>
								<rect x="213.4" y="33.3" clip-path="url(#SVGID_113_)" fill="url(#SVGID_114_)" width="21.2" height="27.3"/>
							</g>
						</g>
					</g>
				</mask>
				
					<linearGradient id="SVGID_115_" gradientUnits="userSpaceOnUse" x1="-1090.8535" y1="533.9287" x2="-1089.2483" y2="533.9287" gradientTransform="matrix(0 -25.0799 -25.0799 0 13614.8164 -27287.9316)">
					<stop  offset="0" style="stop-color:#B4B4B4"/>
					<stop  offset="0.2641" style="stop-color:#D3D3D3"/>
					<stop  offset="0.5389" style="stop-color:#EBEBEB"/>
					<stop  offset="0.7918" style="stop-color:#FAFAFA"/>
					<stop  offset="1" style="stop-color:#FFFFFF"/>
				</linearGradient>
				
					<rect x="213.4" y="33.3" clip-path="url(#SVGID_107_)" mask="url(#SVGID_46_)" fill="url(#SVGID_115_)" width="21.2" height="27.3"/>
			</g>
		</g>
	</g>
</g>
<rect x="25.3" y="21" fill="#D0D2D3" width="300.7" height="1.8"/>
<g>
	<g>
		<g>
			
				<linearGradient id="SVGID_116_" gradientUnits="userSpaceOnUse" x1="225.8237" y1="473.498" x2="328.0054" y2="473.498" gradientTransform="matrix(1 0 0 1 0.105 -514.2402)">
				<stop  offset="0" style="stop-color:#B4B4B4"/>
				<stop  offset="0.2641" style="stop-color:#D3D3D3"/>
				<stop  offset="0.5389" style="stop-color:#EBEBEB"/>
				<stop  offset="0.7918" style="stop-color:#FAFAFA"/>
				<stop  offset="1" style="stop-color:#FFFFFF"/>
			</linearGradient>
			<path id="SVGID_49_" fill="url(#SVGID_116_)" d="M300-15.4c0-3.3,1.8-3.7,11.5-3.7c6.8-0.2,8.2,0.2,8.2,3.1
				c0,1.8-1.8,3.3-4.2,4.2h-12.6C301.1-12.3,300-13.6,300-15.4 M246.4-61c-0.2,0.2,1.5-0.2,3.7-0.7c3.7-0.9,8.6-1.5,7.5,0.7
				c-8.2,16.1-28.2,54-31.7,60.8h9.9h0.7h33.7l4.2-3.3l2,3.3H309c0,0,22-0.4,18.7-19.6c-2.2-7.9-11.7-8.2-11.7-8.2s-23.6-1.5-24,9
				c0,3.3,1.5,5.5,4.4,7.5h-17.9l-1.8-3.3l-4.2,3.3h-30L276-77.3c1.1-2.4,2.4-4,1.8-4C276.6-81.3,270-76.2,246.4-61"/>
		</g>
		<g>
			<g>
				<defs>
					<path id="SVGID_117_" d="M300-15.4c0-3.3,1.8-3.7,11.5-3.7c6.8-0.2,8.2,0.2,8.2,3.1c0,1.8-1.8,3.3-4.2,4.2h-12.6
						C301.1-12.3,300-13.6,300-15.4 M246.4-61c-0.2,0.2,1.5-0.2,3.7-0.7c3.7-0.9,8.6-1.5,7.5,0.7c-8.2,16.1-28.2,54-31.7,60.8h9.9
						h0.7h33.7l4.2-3.3l2,3.3H309c0,0,22-0.4,18.7-19.6c-2.2-7.9-11.7-8.2-11.7-8.2s-23.6-1.5-24,9c0,3.3,1.5,5.5,4.4,7.5h-17.9
						l-1.8-3.3l-4.2,3.3h-30L276-77.3c1.1-2.4,2.4-4,1.8-4C276.6-81.3,270-76.2,246.4-61"/>
				</defs>
				<clipPath id="SVGID_118_">
					<use xlink:href="#SVGID_117_"  overflow="visible"/>
				</clipPath>
				<defs>
					<filter id="Adobe_OpacityMaskFilter_8_" filterUnits="userSpaceOnUse" x="225.9" y="-81.3" width="105.2" height="81.1">
						<feColorMatrix  type="matrix" values="1 0 0 0 0  0 1 0 0 0  0 0 1 0 0  0 0 0 1 0"/>
					</filter>
				</defs>
				<mask maskUnits="userSpaceOnUse" x="225.9" y="-81.3" width="105.2" height="81.1" id="SVGID_52_">
					<g filter="url(#Adobe_OpacityMaskFilter_8_)">
						<g>
							<g>
								<defs>
									<path id="SVGID_119_" d="M300-15.4c0-3.3,1.8-3.7,11.5-3.7c6.8-0.2,8.2,0.2,8.2,3.1c0,1.8-1.8,3.3-4.2,4.2h-12.6
										C301.1-12.3,300-13.6,300-15.4 M246.4-61c-0.2,0.2,1.5-0.2,3.7-0.7c3.7-0.9,8.6-1.5,7.5,0.7c-8.2,16.1-28.2,54-31.7,60.8
										h9.9h0.7h33.7l4.2-3.3l2,3.3H309c0,0,22-0.4,18.7-19.6c-2.2-7.9-11.7-8.2-11.7-8.2s-23.6-1.5-24,9c0,3.3,1.5,5.5,4.4,7.5
										h-17.9l-1.8-3.3l-4.2,3.3h-30L276-77.3c1.1-2.4,2.4-4,1.8-4C276.6-81.3,270-76.2,246.4-61"/>
								</defs>
								<clipPath id="SVGID_120_" clip-path="url(#SVGID_118_)">
									<use xlink:href="#SVGID_119_"  overflow="visible"/>
								</clipPath>
							</g>
							<g>
								<defs>
									<path id="SVGID_121_" d="M300-15.4c0-3.3,1.8-3.7,11.5-3.7c6.8-0.2,8.2,0.2,8.2,3.1c0,1.8-1.8,3.3-4.2,4.2h-12.6
										C301.1-12.3,300-13.6,300-15.4 M246.4-61c-0.2,0.2,1.5-0.2,3.7-0.7c3.7-0.9,8.6-1.5,7.5,0.7c-8.2,16.1-28.2,54-31.7,60.8
										h9.9h0.7h33.7l4.2-3.3l2,3.3H309c0,0,22-0.4,18.7-19.6c-2.2-7.9-11.7-8.2-11.7-8.2s-23.6-1.5-24,9c0,3.3,1.5,5.5,4.4,7.5
										h-17.9l-1.8-3.3l-4.2,3.3h-30L276-77.3c1.1-2.4,2.4-4,1.8-4C276.6-81.3,270-76.2,246.4-61"/>
								</defs>
								<defs>
									<path id="SVGID_122_" d="M300-15.4c0-3.3,1.8-3.7,11.5-3.7c6.8-0.2,8.2,0.2,8.2,3.1c0,1.8-1.8,3.3-4.2,4.2h-12.6
										C301.1-12.3,300-13.6,300-15.4 M246.4-61c-0.2,0.2,1.5-0.2,3.7-0.7c3.7-0.9,8.6-1.5,7.5,0.7c-8.2,16.1-28.2,54-31.7,60.8
										h9.9h0.7h33.7l4.2-3.3l2,3.3H309c0,0,22-0.4,18.7-19.6c-2.2-7.9-11.7-8.2-11.7-8.2s-23.6-1.5-24,9c0,3.3,1.5,5.5,4.4,7.5
										h-17.9l-1.8-3.3l-4.2,3.3h-30L276-77.3c1.1-2.4,2.4-4,1.8-4C276.6-81.3,270-76.2,246.4-61"/>
								</defs>
								<clipPath id="SVGID_123_" clip-path="url(#SVGID_118_)">
									<use xlink:href="#SVGID_121_"  overflow="visible"/>
								</clipPath>
								<clipPath id="SVGID_124_" clip-path="url(#SVGID_123_)">
									<use xlink:href="#SVGID_122_"  overflow="visible"/>
								</clipPath>
								
									<linearGradient id="SVGID_125_" gradientUnits="userSpaceOnUse" x1="-1086.981" y1="544.2227" x2="-1085.3749" y2="544.2227" gradientTransform="matrix(0 -36.1248 -36.1248 0 19938.4551 -39251.3477)">
									<stop  offset="0" style="stop-color:#EEEEEE"/>
									<stop  offset="1" style="stop-color:#F9F9F9"/>
								</linearGradient>
								<rect x="225.9" y="-81.3" clip-path="url(#SVGID_124_)" fill="url(#SVGID_125_)" width="105.2" height="81.1"/>
							</g>
						</g>
					</g>
				</mask>
				
					<linearGradient id="SVGID_126_" gradientUnits="userSpaceOnUse" x1="-1086.981" y1="544.2227" x2="-1085.3749" y2="544.2227" gradientTransform="matrix(0 -36.1248 -36.1248 0 19938.4551 -39251.3477)">
					<stop  offset="0" style="stop-color:#B4B4B4"/>
					<stop  offset="0.2641" style="stop-color:#D3D3D3"/>
					<stop  offset="0.5389" style="stop-color:#EBEBEB"/>
					<stop  offset="0.7918" style="stop-color:#FAFAFA"/>
					<stop  offset="1" style="stop-color:#FFFFFF"/>
				</linearGradient>
				
					<rect x="225.9" y="-81.3" clip-path="url(#SVGID_118_)" mask="url(#SVGID_52_)" fill="url(#SVGID_126_)" width="105.2" height="81.1"/>
			</g>
		</g>
	</g>
	<g>
		<g>
			
				<linearGradient id="SVGID_127_" gradientUnits="userSpaceOnUse" x1="106.9746" y1="506.0195" x2="232.6255" y2="506.0195" gradientTransform="matrix(1 0 0 1 0.105 -514.2402)">
				<stop  offset="0" style="stop-color:#B4B4B4"/>
				<stop  offset="0.2641" style="stop-color:#D3D3D3"/>
				<stop  offset="0.5389" style="stop-color:#EBEBEB"/>
				<stop  offset="0.7918" style="stop-color:#FAFAFA"/>
				<stop  offset="1" style="stop-color:#FFFFFF"/>
			</linearGradient>
			<path id="SVGID_55_" fill="url(#SVGID_127_)" d="M221.1-26.6l-8.6,15h-11.7l6.8-12.3c0-2.4-6.2-2.4-9.5,3.3l-4.8,9h-13.2l4.6-8.6
				c0.9-4-6.6-2.9-8.4,1.3l-4,7.5h-2.6h-9.9h-9.5h-4.9h-3.1l6-11c0.4-5.7-8.8,0.7-11.7,7.3l-8.2,15c-3.3,5.7-9.9,11.9-13.7,12.1
				c-2,0.2-4.6-1.1-7.9-3.5c0.2,5.3,2.2,7.9,5.7,7.7c4.2,0,8.2-1.3,11.9-4c3.3-2.4,9.5-8.6,11.7-12.6H153v-0.2h62.8
				c9-16.3,16.8-30.2,16.8-30.2c-0.7-1.1-2.2-1.8-3.7-1.8C226.1-32.4,222.8-30.6,221.1-26.6"/>
		</g>
		<g>
			<g>
				<defs>
					<path id="SVGID_128_" d="M221.1-26.6l-8.6,15h-11.7l6.8-12.3c0-2.4-6.2-2.4-9.5,3.3l-4.8,9h-13.2l4.6-8.6
						c0.9-4-6.6-2.9-8.4,1.3l-4,7.5h-2.6h-9.9h-9.5h-4.9h-3.1l6-11c0.4-5.7-8.8,0.7-11.7,7.3l-8.2,15c-3.3,5.7-9.9,11.9-13.7,12.1
						c-2,0.2-4.6-1.1-7.9-3.5c0.2,5.3,2.2,7.9,5.7,7.7c4.2,0,8.2-1.3,11.9-4c3.3-2.4,9.5-8.6,11.7-12.6H153v-0.2h62.8
						c9-16.3,16.8-30.2,16.8-30.2c-0.7-1.1-2.2-1.8-3.7-1.8C226.1-32.4,222.8-30.6,221.1-26.6"/>
				</defs>
				<clipPath id="SVGID_129_">
					<use xlink:href="#SVGID_128_"  overflow="visible"/>
				</clipPath>
				<defs>
					<filter id="Adobe_OpacityMaskFilter_9_" filterUnits="userSpaceOnUse" x="107.1" y="-32.4" width="125.4" height="48.5">
						<feColorMatrix  type="matrix" values="1 0 0 0 0  0 1 0 0 0  0 0 1 0 0  0 0 0 1 0"/>
					</filter>
				</defs>
				<mask maskUnits="userSpaceOnUse" x="107.1" y="-32.4" width="125.4" height="48.5" id="SVGID_58_">
					<g filter="url(#Adobe_OpacityMaskFilter_9_)">
						<g>
							<g>
								<defs>
									<path id="SVGID_130_" d="M221.1-26.6l-8.6,15h-11.7l6.8-12.3c0-2.4-6.2-2.4-9.5,3.3l-4.8,9h-13.2l4.6-8.6
										c0.9-4-6.6-2.9-8.4,1.3l-4,7.5h-2.6h-9.9h-9.5h-4.9h-3.1l6-11c0.4-5.7-8.8,0.7-11.7,7.3l-8.2,15
										c-3.3,5.7-9.9,11.9-13.7,12.1c-2,0.2-4.6-1.1-7.9-3.5c0.2,5.3,2.2,7.9,5.7,7.7c4.2,0,8.2-1.3,11.9-4
										c3.3-2.4,9.5-8.6,11.7-12.6H153v-0.2h62.8c9-16.3,16.8-30.2,16.8-30.2c-0.7-1.1-2.2-1.8-3.7-1.8
										C226.1-32.4,222.8-30.6,221.1-26.6"/>
								</defs>
								<clipPath id="SVGID_131_" clip-path="url(#SVGID_129_)">
									<use xlink:href="#SVGID_130_"  overflow="visible"/>
								</clipPath>
							</g>
							<g>
								<defs>
									<path id="SVGID_132_" d="M221.1-26.6l-8.6,15h-11.7l6.8-12.3c0-2.4-6.2-2.4-9.5,3.3l-4.8,9h-13.2l4.6-8.6
										c0.9-4-6.6-2.9-8.4,1.3l-4,7.5h-2.6h-9.9h-9.5h-4.9h-3.1l6-11c0.4-5.7-8.8,0.7-11.7,7.3l-8.2,15
										c-3.3,5.7-9.9,11.9-13.7,12.1c-2,0.2-4.6-1.1-7.9-3.5c0.2,5.3,2.2,7.9,5.7,7.7c4.2,0,8.2-1.3,11.9-4
										c3.3-2.4,9.5-8.6,11.7-12.6H153v-0.2h62.8c9-16.3,16.8-30.2,16.8-30.2c-0.7-1.1-2.2-1.8-3.7-1.8
										C226.1-32.4,222.8-30.6,221.1-26.6"/>
								</defs>
								<defs>
									<path id="SVGID_133_" d="M221.1-26.6l-8.6,15h-11.7l6.8-12.3c0-2.4-6.2-2.4-9.5,3.3l-4.8,9h-13.2l4.6-8.6
										c0.9-4-6.6-2.9-8.4,1.3l-4,7.5h-2.6h-9.9h-9.5h-4.9h-3.1l6-11c0.4-5.7-8.8,0.7-11.7,7.3l-8.2,15
										c-3.3,5.7-9.9,11.9-13.7,12.1c-2,0.2-4.6-1.1-7.9-3.5c0.2,5.3,2.2,7.9,5.7,7.7c4.2,0,8.2-1.3,11.9-4
										c3.3-2.4,9.5-8.6,11.7-12.6H153v-0.2h62.8c9-16.3,16.8-30.2,16.8-30.2c-0.7-1.1-2.2-1.8-3.7-1.8
										C226.1-32.4,222.8-30.6,221.1-26.6"/>
								</defs>
								<clipPath id="SVGID_134_" clip-path="url(#SVGID_129_)">
									<use xlink:href="#SVGID_132_"  overflow="visible"/>
								</clipPath>
								<clipPath id="SVGID_135_" clip-path="url(#SVGID_134_)">
									<use xlink:href="#SVGID_133_"  overflow="visible"/>
								</clipPath>
								
									<linearGradient id="SVGID_136_" gradientUnits="userSpaceOnUse" x1="-1086.9819" y1="545.3848" x2="-1085.3755" y2="545.3848" gradientTransform="matrix(0 -36.1248 -36.1248 0 19871.7363 -39251.3477)">
									<stop  offset="0" style="stop-color:#EEEEEE"/>
									<stop  offset="1" style="stop-color:#F9F9F9"/>
								</linearGradient>
								<rect x="107.1" y="-32.4" clip-path="url(#SVGID_135_)" fill="url(#SVGID_136_)" width="125.4" height="48.5"/>
							</g>
						</g>
					</g>
				</mask>
				
					<linearGradient id="SVGID_137_" gradientUnits="userSpaceOnUse" x1="-1086.9819" y1="545.3848" x2="-1085.3755" y2="545.3848" gradientTransform="matrix(0 -36.1248 -36.1248 0 19871.7363 -39251.3477)">
					<stop  offset="0" style="stop-color:#B4B4B4"/>
					<stop  offset="0.2641" style="stop-color:#D3D3D3"/>
					<stop  offset="0.5389" style="stop-color:#EBEBEB"/>
					<stop  offset="0.7918" style="stop-color:#FAFAFA"/>
					<stop  offset="1" style="stop-color:#FFFFFF"/>
				</linearGradient>
				
					<rect x="107.1" y="-32.4" clip-path="url(#SVGID_129_)" mask="url(#SVGID_58_)" fill="url(#SVGID_137_)" width="125.4" height="48.5"/>
			</g>
		</g>
	</g>
	<g>
		<g>
			
				<linearGradient id="SVGID_138_" gradientUnits="userSpaceOnUse" x1="191.3989" y1="468.4277" x2="200.8933" y2="468.4277" gradientTransform="matrix(1 0 0 1 0.105 -514.2402)">
				<stop  offset="0" style="stop-color:#B4B4B4"/>
				<stop  offset="0.2641" style="stop-color:#D3D3D3"/>
				<stop  offset="0.5389" style="stop-color:#EBEBEB"/>
				<stop  offset="0.7918" style="stop-color:#FAFAFA"/>
				<stop  offset="1" style="stop-color:#FFFFFF"/>
			</linearGradient>
			<path id="SVGID_61_" fill="url(#SVGID_138_)" d="M191.5-45.8c0,2.4,2.2,4.6,4.8,4.6s4.9-2,4.9-4.6c0-2.4-2.2-4.6-4.9-4.6
				C193.5-50.2,191.5-48.2,191.5-45.8"/>
		</g>
		<g>
			<g>
				<defs>
					<path id="SVGID_139_" d="M191.5-45.8c0,2.4,2.2,4.6,4.8,4.6s4.9-2,4.9-4.6c0-2.4-2.2-4.6-4.9-4.6
						C193.5-50.2,191.5-48.2,191.5-45.8"/>
				</defs>
				<clipPath id="SVGID_140_">
					<use xlink:href="#SVGID_139_"  overflow="visible"/>
				</clipPath>
				<defs>
					<filter id="Adobe_OpacityMaskFilter_10_" filterUnits="userSpaceOnUse" x="191.5" y="-50.2" width="9.5" height="9">
						<feColorMatrix  type="matrix" values="1 0 0 0 0  0 1 0 0 0  0 0 1 0 0  0 0 0 1 0"/>
					</filter>
				</defs>
				<mask maskUnits="userSpaceOnUse" x="191.5" y="-50.2" width="9.5" height="9" id="SVGID_64_">
					<g filter="url(#Adobe_OpacityMaskFilter_10_)">
						<g>
							<g>
								<defs>
									<path id="SVGID_141_" d="M191.5-45.8c0,2.4,2.2,4.6,4.8,4.6s4.9-2,4.9-4.6c0-2.4-2.2-4.6-4.9-4.6
										C193.5-50.2,191.5-48.2,191.5-45.8"/>
								</defs>
								<clipPath id="SVGID_142_" clip-path="url(#SVGID_140_)">
									<use xlink:href="#SVGID_141_"  overflow="visible"/>
								</clipPath>
							</g>
							<g>
								<defs>
									<path id="SVGID_143_" d="M191.5-45.8c0,2.4,2.2,4.6,4.8,4.6s4.9-2,4.9-4.6c0-2.4-2.2-4.6-4.9-4.6
										C193.5-50.2,191.5-48.2,191.5-45.8"/>
								</defs>
								<defs>
									<path id="SVGID_144_" d="M191.5-45.8c0,2.4,2.2,4.6,4.8,4.6s4.9-2,4.9-4.6c0-2.4-2.2-4.6-4.9-4.6
										C193.5-50.2,191.5-48.2,191.5-45.8"/>
								</defs>
								<clipPath id="SVGID_145_" clip-path="url(#SVGID_140_)">
									<use xlink:href="#SVGID_143_"  overflow="visible"/>
								</clipPath>
								<clipPath id="SVGID_146_" clip-path="url(#SVGID_145_)">
									<use xlink:href="#SVGID_144_"  overflow="visible"/>
								</clipPath>
								
									<linearGradient id="SVGID_147_" gradientUnits="userSpaceOnUse" x1="-1086.9771" y1="545.1074" x2="-1085.3756" y2="545.1074" gradientTransform="matrix(0 -36.1248 -36.1248 0 19888.1738 -39251.3477)">
									<stop  offset="0" style="stop-color:#EEEEEE"/>
									<stop  offset="1" style="stop-color:#F9F9F9"/>
								</linearGradient>
								<rect x="191.5" y="-50.2" clip-path="url(#SVGID_146_)" fill="url(#SVGID_147_)" width="9.5" height="9"/>
							</g>
						</g>
					</g>
				</mask>
				
					<linearGradient id="SVGID_148_" gradientUnits="userSpaceOnUse" x1="-1086.9771" y1="545.1074" x2="-1085.3756" y2="545.1074" gradientTransform="matrix(0 -36.1248 -36.1248 0 19888.1738 -39251.3477)">
					<stop  offset="0" style="stop-color:#B4B4B4"/>
					<stop  offset="0.2641" style="stop-color:#D3D3D3"/>
					<stop  offset="0.5389" style="stop-color:#EBEBEB"/>
					<stop  offset="0.7918" style="stop-color:#FAFAFA"/>
					<stop  offset="1" style="stop-color:#FFFFFF"/>
				</linearGradient>
				
					<rect x="191.5" y="-50.2" clip-path="url(#SVGID_140_)" mask="url(#SVGID_64_)" fill="url(#SVGID_148_)" width="9.5" height="9"/>
			</g>
		</g>
	</g>
	<g>
		<g>
			
				<linearGradient id="SVGID_149_" gradientUnits="userSpaceOnUse" x1="210.0581" y1="468.4277" x2="219.5366" y2="468.4277" gradientTransform="matrix(1 0 0 1 0.105 -514.2402)">
				<stop  offset="0" style="stop-color:#B4B4B4"/>
				<stop  offset="0.2641" style="stop-color:#D3D3D3"/>
				<stop  offset="0.5389" style="stop-color:#EBEBEB"/>
				<stop  offset="0.7918" style="stop-color:#FAFAFA"/>
				<stop  offset="1" style="stop-color:#FFFFFF"/>
			</linearGradient>
			<path id="SVGID_67_" fill="url(#SVGID_149_)" d="M210.1-45.8c0,2.4,2.2,4.6,4.6,4.6c2.6,0,4.9-2,4.9-4.6c0-2.4-2.2-4.6-4.9-4.6
				C212.3-50.2,210.1-48.2,210.1-45.8"/>
		</g>
		<g>
			<g>
				<defs>
					<path id="SVGID_150_" d="M210.1-45.8c0,2.4,2.2,4.6,4.6,4.6c2.6,0,4.9-2,4.9-4.6c0-2.4-2.2-4.6-4.9-4.6
						C212.3-50.2,210.1-48.2,210.1-45.8"/>
				</defs>
				<clipPath id="SVGID_151_">
					<use xlink:href="#SVGID_150_"  overflow="visible"/>
				</clipPath>
				<defs>
					<filter id="Adobe_OpacityMaskFilter_11_" filterUnits="userSpaceOnUse" x="210.1" y="-50.2" width="9.5" height="9">
						<feColorMatrix  type="matrix" values="1 0 0 0 0  0 1 0 0 0  0 0 1 0 0  0 0 0 1 0"/>
					</filter>
				</defs>
				<mask maskUnits="userSpaceOnUse" x="210.1" y="-50.2" width="9.5" height="9" id="SVGID_70_">
					<g filter="url(#Adobe_OpacityMaskFilter_11_)">
						<g>
							<g>
								<defs>
									<path id="SVGID_152_" d="M210.1-45.8c0,2.4,2.2,4.6,4.6,4.6c2.6,0,4.9-2,4.9-4.6c0-2.4-2.2-4.6-4.9-4.6
										C212.3-50.2,210.1-48.2,210.1-45.8"/>
								</defs>
								<clipPath id="SVGID_153_" clip-path="url(#SVGID_151_)">
									<use xlink:href="#SVGID_152_"  overflow="visible"/>
								</clipPath>
							</g>
							<g>
								<defs>
									<path id="SVGID_154_" d="M210.1-45.8c0,2.4,2.2,4.6,4.6,4.6c2.6,0,4.9-2,4.9-4.6c0-2.4-2.2-4.6-4.9-4.6
										C212.3-50.2,210.1-48.2,210.1-45.8"/>
								</defs>
								<defs>
									<path id="SVGID_155_" d="M210.1-45.8c0,2.4,2.2,4.6,4.6,4.6c2.6,0,4.9-2,4.9-4.6c0-2.4-2.2-4.6-4.9-4.6
										C212.3-50.2,210.1-48.2,210.1-45.8"/>
								</defs>
								<clipPath id="SVGID_156_" clip-path="url(#SVGID_151_)">
									<use xlink:href="#SVGID_154_"  overflow="visible"/>
								</clipPath>
								<clipPath id="SVGID_157_" clip-path="url(#SVGID_156_)">
									<use xlink:href="#SVGID_155_"  overflow="visible"/>
								</clipPath>
								
									<linearGradient id="SVGID_158_" gradientUnits="userSpaceOnUse" x1="-1086.9771" y1="544.918" x2="-1085.3756" y2="544.918" gradientTransform="matrix(0 -36.1248 -36.1248 0 19899.8926 -39251.3477)">
									<stop  offset="0" style="stop-color:#EEEEEE"/>
									<stop  offset="1" style="stop-color:#F9F9F9"/>
								</linearGradient>
								<rect x="210.1" y="-50.2" clip-path="url(#SVGID_157_)" fill="url(#SVGID_158_)" width="9.5" height="9"/>
							</g>
						</g>
					</g>
				</mask>
				
					<linearGradient id="SVGID_159_" gradientUnits="userSpaceOnUse" x1="-1086.9771" y1="544.918" x2="-1085.3756" y2="544.918" gradientTransform="matrix(0 -36.1248 -36.1248 0 19899.8926 -39251.3477)">
					<stop  offset="0" style="stop-color:#B4B4B4"/>
					<stop  offset="0.2641" style="stop-color:#D3D3D3"/>
					<stop  offset="0.5389" style="stop-color:#EBEBEB"/>
					<stop  offset="0.7918" style="stop-color:#FAFAFA"/>
					<stop  offset="1" style="stop-color:#FFFFFF"/>
				</linearGradient>
				
					<rect x="210.1" y="-50.2" clip-path="url(#SVGID_151_)" mask="url(#SVGID_70_)" fill="url(#SVGID_159_)" width="9.5" height="9"/>
			</g>
		</g>
	</g>
	<g>
		<g>
			
				<linearGradient id="SVGID_160_" gradientUnits="userSpaceOnUse" x1="201.9194" y1="455.4219" x2="211.3979" y2="455.4219" gradientTransform="matrix(1 0 0 1 0.105 -514.2402)">
				<stop  offset="0" style="stop-color:#B4B4B4"/>
				<stop  offset="0.2641" style="stop-color:#D3D3D3"/>
				<stop  offset="0.5389" style="stop-color:#EBEBEB"/>
				<stop  offset="0.7918" style="stop-color:#FAFAFA"/>
				<stop  offset="1" style="stop-color:#FFFFFF"/>
			</linearGradient>
			<path id="SVGID_73_" fill="url(#SVGID_160_)" d="M202.1-58.8c0,2.4,2.2,4.6,4.6,4.6c2.6,0,4.8-2,4.8-4.6c0-2.4-2.2-4.6-4.8-4.6
				C204.1-63.4,202.1-61.5,202.1-58.8"/>
		</g>
		<g>
			<g>
				<defs>
					<path id="SVGID_161_" d="M202.1-58.8c0,2.4,2.2,4.6,4.6,4.6c2.6,0,4.8-2,4.8-4.6c0-2.4-2.2-4.6-4.8-4.6
						C204.1-63.4,202.1-61.5,202.1-58.8"/>
				</defs>
				<clipPath id="SVGID_162_">
					<use xlink:href="#SVGID_161_"  overflow="visible"/>
				</clipPath>
				<defs>
					<filter id="Adobe_OpacityMaskFilter_12_" filterUnits="userSpaceOnUse" x="202.1" y="-63.4" width="9.5" height="9">
						<feColorMatrix  type="matrix" values="1 0 0 0 0  0 1 0 0 0  0 0 1 0 0  0 0 0 1 0"/>
					</filter>
				</defs>
				<mask maskUnits="userSpaceOnUse" x="202.1" y="-63.4" width="9.5" height="9" id="SVGID_76_">
					<g filter="url(#Adobe_OpacityMaskFilter_12_)">
						<g>
							<g>
								<defs>
									<path id="SVGID_163_" d="M202.1-58.8c0,2.4,2.2,4.6,4.6,4.6c2.6,0,4.8-2,4.8-4.6c0-2.4-2.2-4.6-4.8-4.6
										C204.1-63.4,202.1-61.5,202.1-58.8"/>
								</defs>
								<clipPath id="SVGID_164_" clip-path="url(#SVGID_162_)">
									<use xlink:href="#SVGID_163_"  overflow="visible"/>
								</clipPath>
							</g>
							<g>
								<defs>
									<path id="SVGID_165_" d="M202.1-58.8c0,2.4,2.2,4.6,4.6,4.6c2.6,0,4.8-2,4.8-4.6c0-2.4-2.2-4.6-4.8-4.6
										C204.1-63.4,202.1-61.5,202.1-58.8"/>
								</defs>
								<defs>
									<path id="SVGID_166_" d="M202.1-58.8c0,2.4,2.2,4.6,4.6,4.6c2.6,0,4.8-2,4.8-4.6c0-2.4-2.2-4.6-4.8-4.6
										C204.1-63.4,202.1-61.5,202.1-58.8"/>
								</defs>
								<clipPath id="SVGID_167_" clip-path="url(#SVGID_162_)">
									<use xlink:href="#SVGID_165_"  overflow="visible"/>
								</clipPath>
								<clipPath id="SVGID_168_" clip-path="url(#SVGID_167_)">
									<use xlink:href="#SVGID_166_"  overflow="visible"/>
								</clipPath>
								
									<linearGradient id="SVGID_169_" gradientUnits="userSpaceOnUse" x1="-1086.9761" y1="544.9961" x2="-1085.3745" y2="544.9961" gradientTransform="matrix(0 -36.1248 -36.1248 0 19894.7363 -39251.3477)">
									<stop  offset="0" style="stop-color:#EEEEEE"/>
									<stop  offset="1" style="stop-color:#F9F9F9"/>
								</linearGradient>
								<rect x="202.1" y="-63.4" clip-path="url(#SVGID_168_)" fill="url(#SVGID_169_)" width="9.5" height="9"/>
							</g>
						</g>
					</g>
				</mask>
				
					<linearGradient id="SVGID_170_" gradientUnits="userSpaceOnUse" x1="-1086.9761" y1="544.9961" x2="-1085.3745" y2="544.9961" gradientTransform="matrix(0 -36.1248 -36.1248 0 19894.7363 -39251.3477)">
					<stop  offset="0" style="stop-color:#B4B4B4"/>
					<stop  offset="0.2641" style="stop-color:#D3D3D3"/>
					<stop  offset="0.5389" style="stop-color:#EBEBEB"/>
					<stop  offset="0.7918" style="stop-color:#FAFAFA"/>
					<stop  offset="1" style="stop-color:#FFFFFF"/>
				</linearGradient>
				
					<rect x="202.1" y="-63.4" clip-path="url(#SVGID_162_)" mask="url(#SVGID_76_)" fill="url(#SVGID_170_)" width="9.5" height="9"/>
			</g>
		</g>
	</g>
</g>
<g>
	<g>
		<g>
			<defs>
				<path id="SVGID_171_" d="M267.6,10c0,2.2,1.8,4,4.2,4c2.2,0,4.2-1.8,4.2-4c0-2.2-1.8-4-4.2-4C269.4,6.2,267.6,8,267.6,10"/>
			</defs>
			<linearGradient id="SVGID_172_" gradientUnits="userSpaceOnUse" x1="267.5923" y1="9.958" x2="275.9692" y2="9.958">
				<stop  offset="0" style="stop-color:#B4B4B4"/>
				<stop  offset="0.2641" style="stop-color:#D3D3D3"/>
				<stop  offset="0.5389" style="stop-color:#EBEBEB"/>
				<stop  offset="0.7918" style="stop-color:#FAFAFA"/>
				<stop  offset="1" style="stop-color:#FFFFFF"/>
			</linearGradient>
			<use xlink:href="#SVGID_171_"  overflow="visible" fill="url(#SVGID_172_)"/>
			<clipPath id="SVGID_173_">
				<use xlink:href="#SVGID_171_"  overflow="visible"/>
			</clipPath>
			<defs>
				<filter id="Adobe_OpacityMaskFilter_13_" filterUnits="userSpaceOnUse" x="267.6" y="6.2" width="8.2" height="7.9">
					<feColorMatrix  type="matrix" values="1 0 0 0 0  0 1 0 0 0  0 0 1 0 0  0 0 0 1 0"/>
				</filter>
			</defs>
			<mask maskUnits="userSpaceOnUse" x="267.6" y="6.2" width="8.2" height="7.9" id="SVGID_81_">
				<g filter="url(#Adobe_OpacityMaskFilter_13_)">
					<g>
						<g>
							<defs>
								<path id="SVGID_174_" d="M267.6,10c0,2.2,1.8,4,4.2,4c2.2,0,4.2-1.8,4.2-4c0-2.2-1.8-4-4.2-4C269.4,6.2,267.6,8,267.6,10"/>
							</defs>
							<clipPath id="SVGID_175_" clip-path="url(#SVGID_173_)">
								<use xlink:href="#SVGID_174_"  overflow="visible"/>
							</clipPath>
						</g>
						<g>
							<defs>
								<path id="SVGID_176_" d="M267.6,10c0,2.2,1.8,4,4.2,4c2.2,0,4.2-1.8,4.2-4c0-2.2-1.8-4-4.2-4C269.4,6.2,267.6,8,267.6,10"/>
							</defs>
							<defs>
								<path id="SVGID_177_" d="M267.6,10c0,2.2,1.8,4,4.2,4c2.2,0,4.2-1.8,4.2-4c0-2.2-1.8-4-4.2-4C269.4,6.2,267.6,8,267.6,10"/>
							</defs>
							<clipPath id="SVGID_178_" clip-path="url(#SVGID_173_)">
								<use xlink:href="#SVGID_176_"  overflow="visible"/>
							</clipPath>
							<clipPath id="SVGID_179_" clip-path="url(#SVGID_178_)">
								<use xlink:href="#SVGID_177_"  overflow="visible"/>
							</clipPath>
							
								<linearGradient id="SVGID_180_" gradientUnits="userSpaceOnUse" x1="-1086.9595" y1="544.2305" x2="-1085.454" y2="544.2305" gradientTransform="matrix(0 -36.1248 -36.1248 0 19931.8926 -39251.3477)">
								<stop  offset="0" style="stop-color:#EEEEEE"/>
								<stop  offset="1" style="stop-color:#F9F9F9"/>
							</linearGradient>
							<rect x="267.6" y="6.2" clip-path="url(#SVGID_179_)" fill="url(#SVGID_180_)" width="8.2" height="7.9"/>
						</g>
					</g>
				</g>
			</mask>
			
				<linearGradient id="SVGID_181_" gradientUnits="userSpaceOnUse" x1="-1086.9595" y1="544.2305" x2="-1085.454" y2="544.2305" gradientTransform="matrix(0 -36.1248 -36.1248 0 19931.8926 -39251.3477)">
				<stop  offset="0" style="stop-color:#B4B4B4"/>
				<stop  offset="0.2641" style="stop-color:#D3D3D3"/>
				<stop  offset="0.5389" style="stop-color:#EBEBEB"/>
				<stop  offset="0.7918" style="stop-color:#FAFAFA"/>
				<stop  offset="1" style="stop-color:#FFFFFF"/>
			</linearGradient>
			
				<rect x="267.6" y="6.2" clip-path="url(#SVGID_173_)" mask="url(#SVGID_81_)" fill="url(#SVGID_181_)" width="8.2" height="7.9"/>
		</g>
	</g>
</g>
<g>
	<polygon fill="#FCFCFC" points="7,23.6 7,17.2 4.6,17.2 4.6,16.1 10.6,16.1 10.6,17.2 8.4,17.2 8.4,23.6 	"/>
	<polygon fill="#FCFCFC" points="17.8,23.2 17.8,18.1 16.1,23.2 14.7,23.2 13,18.1 13,23.2 11.7,23.2 11.7,15.9 13.4,15.9 
		15.4,21.6 17.4,15.9 18.9,15.9 18.9,23.2 	"/>
</g>
<g>
	<path fill="#11B7FB" d="M256.1,40.2h-11.9c-0.4,0-0.7,0.2-0.7,0.2c-0.2,0.2-0.4,0.4-0.4,0.9c0,0.2,0.2,0.7,0.2,0.9
		c0.2,0.2,0.4,0.2,0.7,0.2h4.8v15.9c0,0.2,0,0.4,0.2,0.7c0.2,0.2,0.4,0.4,0.9,0.4c0.2,0,0.7-0.2,0.7-0.2c0.2-0.2,0.2-0.4,0.2-0.7
		V42.6h4.8c0.2,0,0.4,0,0.7-0.2c0.2-0.2,0.4-0.4,0.4-0.7c0-0.4-0.2-0.7-0.2-0.9C256.8,40.2,256.6,40.2,256.1,40.2"/>
	<path fill="#11B7FB" d="M284.3,40.6L284.3,40.6c-0.2-0.4-0.4-0.7-0.7-0.7l-0.2-0.7l-0.2,0.7c-0.2,0-0.4,0.2-0.7,0.7l-5.7,11.2h-1.3
		c-0.2,0-0.4,0-0.7,0.2c-0.2,0-0.4,0.4-0.4,0.9c0,0.2,0,0.4,0.2,0.7c0.2,0.2,0.4,0.4,0.9,0.4h0.2l-1.5,2.9l-6.6-4.4
		c1.5-0.2,2.9-0.7,4-1.5c1.3-1.1,2-2.6,2-4.6c0-2-0.7-3.5-2-4.6c-1.3-1.1-2.9-1.5-5.1-1.5h-5.7c-0.2,0-0.4,0-0.7,0.2
		c-0.4,0.2-0.7,0.4-0.7,0.9v17c0,0.4,0.2,0.7,0.2,0.7c0.2,0.2,0.4,0.4,0.9,0.4c0.2,0,0.4-0.2,0.7-0.2c0.2-0.2,0.2-0.4,0.2-0.7v-7.9
		l1.3,0.9c0,0.4,0.2,0.7,0.7,0.9l9.9,6.6l0.4,0.2h0.2l0,0h0.2h0.4l0.2-0.2l0.2-0.2l2.4-4.8h10.8l2.4,4.8c0,0.2,0.2,0.2,0.2,0.2
		l0.2,0.2h0.2c0.2,0,0.7-0.2,0.9-0.4c0.2-0.2,0.2-0.4,0.2-0.7v-0.2L284.3,40.6z M278.8,51.8l4.4-8.4l4.2,8.4H278.8z M263.4,50.5
		l-1.8-0.2v-8.4h4.6c0.9,0,1.8,0,2.2,0.2c0.4,0,0.9,0.2,1.3,0.4c0.7,0.4,0.9,0.9,1.3,1.3c0.2,0.7,0.4,1.3,0.4,2
		c0,0.9-0.2,1.5-0.4,2.2c-0.2,0.7-0.9,1.1-1.5,1.3c-0.4,0.2-0.9,0.4-1.3,0.4c-0.7,0-1.3,0.2-2.4,0.2c-0.4,0-0.9,0-1.1,0h-0.2
		C263.8,50.3,263.6,50.5,263.4,50.5"/>
	<path fill="#11B7FB" d="M305.7,41c-0.7-0.2-1.5-0.4-2.4-0.7c-0.9-0.2-2-0.2-3.1-0.2h-3.7c-0.2,0-0.4,0-0.7,0.2
		c-0.4,0.2-0.4,0.4-0.4,0.9V58c0,0.2,0,0.7,0.2,0.9c0.4,0.4,0.9,0.4,0.9,0.4h4c1.8,0,3.3-0.2,4.2-0.4c1.1-0.2,2.2-0.9,3.1-1.5
		c1.1-0.9,2-2,2.6-3.3c0.7-1.3,0.9-2.6,0.9-4.2c0-2-0.4-3.5-1.5-5.1C308.8,42.8,307.5,41.7,305.7,41 M300.7,56.9h-3.5V42.1h2.6
		c1.3,0,2.4,0,3.3,0.2c0.9,0.2,1.5,0.4,2.2,0.7c1.3,0.7,2.2,1.5,2.9,2.6c0.7,1.1,1.1,2.4,1.1,3.7c0,1.3-0.2,2.4-0.9,3.5
		c-0.7,1.1-1.3,2-2.4,2.6c-0.7,0.4-1.3,0.7-2.2,0.9C302.9,56.9,302,56.9,300.7,56.9"/>
	<path fill="#11B7FB" d="M326.2,56.9h-10.4v-3.1h10.6c0.4,0,0.7-0.2,0.7-0.2c0.2-0.2,0.4-0.4,0.4-0.9c0-0.2,0-0.4-0.2-0.7
		c-0.2-0.2-0.4-0.4-0.9-0.4h-10.6v-9.7h10.4c0.4,0,0.7-0.2,0.7-0.2c0.2-0.2,0.4-0.4,0.4-0.9c0-0.2,0-0.4-0.2-0.7
		c-0.2-0.2-0.4-0.4-0.9-0.4H315c-0.2,0-0.4,0-0.7,0.2c-0.4,0.2-0.4,0.4-0.4,0.9v10.6H313c-0.2,0-0.4,0-0.7,0.2
		c-0.2,0-0.4,0.4-0.4,0.9c0,0.2,0,0.4,0.2,0.7c0.2,0.2,0.4,0.4,0.9,0.4h0.9v4c0,0.2,0,0.7,0.2,0.9c0.2,0.4,0.9,0.4,0.9,0.4h11.2
		c0.4,0,0.7-0.2,0.7-0.2c0.2-0.2,0.2-0.4,0.2-0.9c0-0.2-0.2-0.7-0.4-0.9C326.9,57.1,326.4,56.9,326.2,56.9"/>
</g>
</svg>
