<?xml version="1.0" encoding="utf-8"?>
<!-- Generator: Adobe Illustrator 17.0.0, SVG Export Plug-In . SVG Version: 6.00 Build 0)  -->
<!DOCTYPE svg PUBLIC "-//W3C//DTD SVG 1.1//EN" "http://www.w3.org/Graphics/SVG/1.1/DTD/svg11.dtd">
<svg version="1.1" id="Layer_1" xmlns="http://www.w3.org/2000/svg" xmlns:xlink="http://www.w3.org/1999/xlink" x="0px" y="0px"
	 width="340px" height="177.5px" viewBox="0 0 340 177.5" enable-background="new 0 0 340 177.5" xml:space="preserve">
<g>
	<path fill="#26A9E0" d="M39.216,88.135l4.212,0.039l-2.315,7.25c0,0-1.07,4.025,3.857,4.072c4.925,0.046,5.991-3.739,5.991-3.739
		l9.019-28.24l4.212,0.039l-8.944,28.001c0,0-2.222,8.528-11.895,8.437c-9.674-0.09-6.503-8.451-6.503-8.451L39.216,88.135z"/>
	<path fill="#26A9E0" d="M111.065,79.872l-4.767,14.926l-9.352-0.087c0,0-2.23-0.302-2.91-1.986c0,0-1.565,1.983-4.587,1.915
		l-6.569-0.062l1.362-4.262l7.318,0.069c0,0,0.928,0.009,1.32-0.547c0.392-0.556,0.218-1.355,0.218-1.355l-2.103-7.092l4.701-2.833
		l2.256,10.529c0,0,0.491,1.604,2.371,1.661c1.88,0.057,2.997,0.028,2.997,0.028l3.499-10.953"/>
	<path fill="#26A9E0" d="M109.438,73.307c-0.45,1.407-1.837,2.539-3.099,2.527c-1.262-0.012-1.921-1.163-1.472-2.57
		c0.451-1.408,1.837-2.539,3.099-2.529C109.229,70.748,109.886,71.899,109.438,73.307z"/>
	<path fill="#26A9E0" d="M117.447,73.358c-0.449,1.407-1.837,2.539-3.099,2.527c-1.263-0.012-1.92-1.163-1.47-2.57
		c0.449-1.408,1.837-2.539,3.099-2.528C117.239,70.799,117.898,71.95,117.447,73.358z"/>
	<path fill="#26A9E0" d="M74.534,82.036c-0.55-2.203-1.957-2.616-4.157-2.676c-2.202-0.06-7.232,1.57-8.998,6.987
		c-1.767,5.416-0.801,7.103,2.549,7.933c0,0,1.316,0.133,1.758,0.137c0.476,0.005,1.919-0.102,1.919-0.102s-0.619,2.272-2.939,2.929
		c-2.324,0.657-5.438,0.428-5.438,0.428l-1.424,4.461c0,0,2.684,0.093,3.604,0.033c1.723-0.114,4.751-0.782,7.142-2.85
		c2.809-2.43,3.385-4.777,3.51-5.16c0.546-1.763,1.716-5.358,2.29-7.169C74.728,85.692,75.084,84.237,74.534,82.036z M69.293,89.776
		c0,0-0.529,0.612-2.464,0.615c-2.318,0.006-1.758-2.04-1.758-2.04l0.639-2.004c0,0,1.154-2.719,3.116-2.701
		c1.964,0.018,1.836,1.583,1.628,2.492C70.249,87.044,69.293,89.776,69.293,89.776z"/>
	<polygon fill="#26A9E0" points="80.325,94.395 76.042,94.354 84.578,67.627 88.861,67.668 	"/>
</g>
<g>
	<g>
		<defs>
			<path id="SVGID_1_" d="M33.756,126.968v25.006c0,0.714,0.526,1.201,1.33,1.201c1.033-0.117,1.357-0.704,1.357-1.201v-21.368
				c2,2.492,7.913,9.906,7.913,9.906c0.215,0.368,0.657,0.609,1.18,0.609c0.725-0.064,1.042-0.415,1.177-0.648
				c0.6-0.765,5.847-7.456,7.707-9.841v21.301l0.373,0.898l1.041,0.344c0.759-0.022,1.246-0.517,1.246-1.243v-24.919
				c0-0.407-0.186-0.762-0.506-1.004l-0.883-0.314c-0.596,0-0.909,0.237-1.062,0.442c0,0-7.036,8.973-9.146,11.66
				c-1.066-1.356-9.238-11.651-9.238-11.651c-0.049-0.045-1.132-0.577-1.132-0.577C34.282,125.569,33.756,126.124,33.756,126.968"/>
		</defs>
		<use xlink:href="#SVGID_1_"  overflow="visible" fill="#313C94"/>
		<clipPath id="SVGID_2_">
			<use xlink:href="#SVGID_1_"  overflow="visible"/>
		</clipPath>
		<defs>
			<filter id="Adobe_OpacityMaskFilter" filterUnits="userSpaceOnUse" x="33.756" y="125.569" width="23.323" height="27.607">
				<feColorMatrix  type="matrix" values="1 0 0 0 0  0 1 0 0 0  0 0 1 0 0  0 0 0 1 0"/>
			</filter>
		</defs>
		<mask maskUnits="userSpaceOnUse" x="33.756" y="125.569" width="23.323" height="27.607" id="SVGID_3_">
			<g filter="url(#Adobe_OpacityMaskFilter)">
				
					<linearGradient id="SVGID_4_" gradientUnits="userSpaceOnUse" x1="-206.5357" y1="389.1246" x2="-204.9255" y2="389.1246" gradientTransform="matrix(0 -25.0799 -25.0799 0 9804.624 -5016.7617)">
					<stop  offset="0" style="stop-color:#EEEEEE"/>
					<stop  offset="1" style="stop-color:#F9F9F9"/>
				</linearGradient>
				<rect x="33.756" y="125.569" clip-path="url(#SVGID_2_)" fill="url(#SVGID_4_)" width="23.323" height="27.607"/>
			</g>
		</mask>
		<rect x="33.756" y="125.569" clip-path="url(#SVGID_2_)" mask="url(#SVGID_3_)" fill="#313C94" width="23.323" height="27.607"/>
	</g>
	<g>
		<defs>
			<path id="SVGID_5_" d="M82.807,127.171v14.687c0,2.778-0.836,4.965-2.539,6.669c-1.723,1.737-3.959,2.583-6.841,2.583
				c-2.879,0-5.115-0.846-6.836-2.583c-1.725-1.705-2.559-3.891-2.559-6.669v-14.687c-0.124-0.783-0.61-1.204-1.294-1.204
				c-0.937,0-1.364,0.601-1.364,1.204v14.684c0,3.497,1.105,6.354,3.278,8.512c2.183,2.163,5.131,3.248,8.775,3.248
				c3.568,0,6.503-1.112,8.713-3.303c2.212-2.197,3.328-5.039,3.328-8.457v-14.684c-0.129-0.783-0.633-1.204-1.315-1.204
				C83.219,125.967,82.807,126.568,82.807,127.171"/>
		</defs>
		<use xlink:href="#SVGID_5_"  overflow="visible" fill="#313C94"/>
		<clipPath id="SVGID_6_">
			<use xlink:href="#SVGID_5_"  overflow="visible"/>
		</clipPath>
		<defs>
			<filter id="Adobe_OpacityMaskFilter_1_" filterUnits="userSpaceOnUse" x="61.373" y="125.967" width="24.094" height="27.648">
				<feColorMatrix  type="matrix" values="1 0 0 0 0  0 1 0 0 0  0 0 1 0 0  0 0 0 1 0"/>
			</filter>
		</defs>
		<mask maskUnits="userSpaceOnUse" x="61.373" y="125.967" width="24.094" height="27.648" id="SVGID_7_">
			<g filter="url(#Adobe_OpacityMaskFilter_1_)">
				
					<linearGradient id="SVGID_8_" gradientUnits="userSpaceOnUse" x1="-206.536" y1="388.7015" x2="-204.9256" y2="388.7015" gradientTransform="matrix(0 -25.0799 -25.0799 0 9822.0156 -5016.7617)">
					<stop  offset="0" style="stop-color:#EEEEEE"/>
					<stop  offset="1" style="stop-color:#F9F9F9"/>
				</linearGradient>
				<rect x="61.373" y="125.967" clip-path="url(#SVGID_6_)" fill="url(#SVGID_8_)" width="24.094" height="27.648"/>
			</g>
		</mask>
		<rect x="61.373" y="125.967" clip-path="url(#SVGID_6_)" mask="url(#SVGID_7_)" fill="#313C94" width="24.094" height="27.648"/>
	</g>
	<g>
		<defs>
			<path id="SVGID_9_" d="M92.992,141.53h6.629c1.462,0,2.563,0.392,3.351,1.205c0.794,0.819,1.18,1.86,1.18,3.194
				c0,1.728-0.565,2.969-1.747,3.799c-0.942,0.674-2.29,1.016-3.996,1.016h-5.417V141.53z M92.992,128.36h6.036
				c1.863,0,3.436,0.463,4.691,1.362c1.395,1.016,2.068,2.331,2.068,4.017c0,1.678-0.578,2.956-1.797,3.904
				c-1.13,0.891-2.635,1.338-4.46,1.338h-6.538V128.36z M92.223,125.849c-1.192,0-1.938,0.688-1.938,1.778v11.354h-1.747
				c-0.788,0.132-1.193,0.619-1.193,1.28c0,0.877,0.604,1.27,1.193,1.27h1.747v9.942c0,1.078,0.746,1.745,1.938,1.745h6.132
				c7.064,0,8.542-3.867,8.542-7.094c0-1.349-0.317-2.592-0.939-3.694c-0.469-0.814-1.104-1.446-1.815-1.964
				c1.116-0.594,2.095-1.293,2.834-2.199c1.057-1.309,1.594-2.826,1.594-4.518c0-2.556-1.021-4.591-3.038-6.027
				c-1.754-1.237-3.931-1.873-6.48-1.873H92.223z"/>
		</defs>
		<use xlink:href="#SVGID_9_"  overflow="visible" fill="#313C94"/>
		<clipPath id="SVGID_10_">
			<use xlink:href="#SVGID_9_"  overflow="visible"/>
		</clipPath>
		<defs>
			<filter id="Adobe_OpacityMaskFilter_2_" filterUnits="userSpaceOnUse" x="87.345" y="125.849" width="21.227" height="27.369">
				<feColorMatrix  type="matrix" values="1 0 0 0 0  0 1 0 0 0  0 0 1 0 0  0 0 0 1 0"/>
			</filter>
		</defs>
		<mask maskUnits="userSpaceOnUse" x="87.345" y="125.849" width="21.227" height="27.369" id="SVGID_11_">
			<g filter="url(#Adobe_OpacityMaskFilter_2_)">
				
					<linearGradient id="SVGID_12_" gradientUnits="userSpaceOnUse" x1="-206.5358" y1="388.3343" x2="-204.9256" y2="388.3343" gradientTransform="matrix(0 -25.0799 -25.0799 0 9837.3438 -5016.7617)">
					<stop  offset="0" style="stop-color:#EEEEEE"/>
					<stop  offset="1" style="stop-color:#F9F9F9"/>
				</linearGradient>
				<rect x="87.345" y="125.849" clip-path="url(#SVGID_10_)" fill="url(#SVGID_12_)" width="21.227" height="27.369"/>
			</g>
		</mask>
		
			<rect x="87.345" y="125.849" clip-path="url(#SVGID_10_)" mask="url(#SVGID_11_)" fill="#313C94" width="21.227" height="27.369"/>
	</g>
	<g>
		<defs>
			<path id="SVGID_13_" d="M124.653,129.494c1.062,2.006,6.245,11.752,7.146,13.444h-14.238
				C118.446,141.246,123.596,131.5,124.653,129.494 M123.402,126.409c0,0-8.469,15.773-8.874,16.53h-2.379
				c-0.753,0.062-1.197,0.545-1.197,1.256c0,0.716,0.484,1.207,1.197,1.207h1.052c-0.821,1.534-3.221,6.007-3.221,6.007
				c-0.05,0.107-0.135,0.565-0.135,0.565c0,0.36,0.168,0.685,0.455,0.901c0.034-0.032,0.965,0.381,0.965,0.381l0.356,0.156
				l-0.172-0.185l1.069-0.587l-0.091-0.048c0,0,3.442-6.476,3.817-7.189h16.826c0.379,0.713,3.856,7.257,3.856,7.257l0.048,0.056
				c0.379,0.441,0.821,0.54,1.123,0.54c0.685,0,1.002-0.371,1.148-0.583c-0.066,0.081,0.176-0.563,0.176-0.563
				c0-0.095-0.161-0.68-0.161-0.68c-4.244-9.191,1.182,2.222-13.315-25.022c-0.393-0.726-0.894-0.877-1.249-0.877
				C124.393,125.532,123.813,125.648,123.402,126.409"/>
		</defs>
		<use xlink:href="#SVGID_13_"  overflow="visible" fill="#313C94"/>
		<clipPath id="SVGID_14_">
			<use xlink:href="#SVGID_13_"  overflow="visible"/>
		</clipPath>
		<defs>
			<filter id="Adobe_OpacityMaskFilter_3_" filterUnits="userSpaceOnUse" x="109.844" y="125.532" width="30.598" height="28.121">
				<feColorMatrix  type="matrix" values="1 0 0 0 0  0 1 0 0 0  0 0 1 0 0  0 0 0 1 0"/>
			</filter>
		</defs>
		<mask maskUnits="userSpaceOnUse" x="109.844" y="125.532" width="30.598" height="28.121" id="SVGID_15_">
			<g filter="url(#Adobe_OpacityMaskFilter_3_)">
				
					<linearGradient id="SVGID_16_" gradientUnits="userSpaceOnUse" x1="-206.5359" y1="387.9064" x2="-204.9256" y2="387.9064" gradientTransform="matrix(0 -25.0799 -25.0799 0 9853.7959 -5016.7617)">
					<stop  offset="0" style="stop-color:#EEEEEE"/>
					<stop  offset="1" style="stop-color:#F9F9F9"/>
				</linearGradient>
				<rect x="109.844" y="125.532" clip-path="url(#SVGID_14_)" fill="url(#SVGID_16_)" width="30.598" height="28.121"/>
			</g>
		</mask>
		
			<rect x="109.844" y="125.532" clip-path="url(#SVGID_14_)" mask="url(#SVGID_15_)" fill="#313C94" width="30.598" height="28.121"/>
	</g>
	<g>
		<defs>
			<path id="SVGID_17_" d="M143.793,127.264c-2.539,1.505-3.823,3.574-3.823,6.17c0,3.381,1.842,5.63,5.483,6.71
				c0.059,0.015,4.788,0.931,4.788,0.931l4.399,0.749c2.889,0.761,4.323,2.135,4.323,4.193c0,1.64-0.724,2.872-2.236,3.806
				c-1.385,0.849-3.027,1.287-4.883,1.287c-1.723,0-3.29-0.317-4.666-0.941c-1.431-0.645-2.591-1.381-3.474-2.174l-0.22-0.192
				h-0.301c-0.618,0-0.917,0.306-1.053,0.488l-0.334,0.963l0.165,0.097c0.598,1.331,2.04,2.415,4.276,3.234
				c1.872,0.686,3.779,1.03,5.644,1.03c2.508,0,4.732-0.631,6.625-1.883c2.152-1.454,3.251-3.399,3.251-5.819
				c0-3.256-1.927-5.468-5.564-6.404c-0.059-0.01-9.202-1.504-9.202-1.504c-2.854-0.755-4.276-2.271-4.276-4.638
				c0-1.661,0.909-2.965,2.774-3.995c1.645-0.915,3.602-1.374,5.813-1.374c2.056,0,3.945,0.314,5.607,0.937
				c1.928,0.721,3.339,1.806,4.228,3.217l0.272,0.437l0.519-0.093c1.168-0.213,1.255-0.969,1.255-1.192
				c0-1.694-1.69-3.126-5.171-4.38c-2.702-0.971-4.974-1.479-6.753-1.479C148.333,125.445,145.827,126.06,143.793,127.264"/>
		</defs>
		<use xlink:href="#SVGID_17_"  overflow="visible" fill="#313C94"/>
		<clipPath id="SVGID_18_">
			<use xlink:href="#SVGID_17_"  overflow="visible"/>
		</clipPath>
		<defs>
			<filter id="Adobe_OpacityMaskFilter_4_" filterUnits="userSpaceOnUse" x="139.97" y="125.445" width="23.213" height="28.17">
				<feColorMatrix  type="matrix" values="1 0 0 0 0  0 1 0 0 0  0 0 1 0 0  0 0 0 1 0"/>
			</filter>
		</defs>
		<mask maskUnits="userSpaceOnUse" x="139.97" y="125.445" width="23.213" height="28.17" id="SVGID_19_">
			<g filter="url(#Adobe_OpacityMaskFilter_4_)">
				
					<linearGradient id="SVGID_20_" gradientUnits="userSpaceOnUse" x1="-206.5381" y1="387.519" x2="-204.9272" y2="387.519" gradientTransform="matrix(0 -25.0799 -25.0799 0 9870.5156 -5016.793)">
					<stop  offset="0" style="stop-color:#EEEEEE"/>
					<stop  offset="1" style="stop-color:#F9F9F9"/>
				</linearGradient>
				<rect x="139.97" y="125.443" clip-path="url(#SVGID_18_)" fill="url(#SVGID_20_)" width="23.213" height="28.17"/>
			</g>
		</mask>
		<rect x="139.97" y="125.445" clip-path="url(#SVGID_18_)" mask="url(#SVGID_19_)" fill="#313C94" width="23.213" height="28.17"/>
	</g>
	<g>
		<defs>
			<path id="SVGID_21_" d="M185.347,127.171v15.823H169.31v-15.823l-0.37-0.884l-1.001-0.333c-0.783,0.032-1.297,0.507-1.297,1.217
				v15.823h-0.942l-0.98,0.363l-0.346,0.917c0.036,0.743,0.551,1.223,1.326,1.223h0.942v6.436l0.373,0.894l0.98,0.329
				c0.797-0.03,1.315-0.517,1.315-1.245v-6.414h16.037v6.461l0.354,0.861l1.031,0.337c0.763-0.03,1.268-0.511,1.268-1.21v-24.775
				c0-0.717-0.515-1.218-1.271-1.218C185.683,126.075,185.347,126.658,185.347,127.171 M167.94,125.954c0.007,0,0.013,0,0.015-0.001
				l-0.138-0.041L167.94,125.954z"/>
		</defs>
		<use xlink:href="#SVGID_21_"  overflow="visible" fill="#313C94"/>
		<clipPath id="SVGID_22_">
			<use xlink:href="#SVGID_21_"  overflow="visible"/>
		</clipPath>
		<defs>
			<filter id="Adobe_OpacityMaskFilter_5_" filterUnits="userSpaceOnUse" x="164.375" y="125.912" width="23.626" height="27.244">
				<feColorMatrix  type="matrix" values="1 0 0 0 0  0 1 0 0 0  0 0 1 0 0  0 0 0 1 0"/>
			</filter>
		</defs>
		<mask maskUnits="userSpaceOnUse" x="164.375" y="125.912" width="23.626" height="27.244" id="SVGID_23_">
			<g filter="url(#Adobe_OpacityMaskFilter_5_)">
				
					<linearGradient id="SVGID_24_" gradientUnits="userSpaceOnUse" x1="-206.5359" y1="387.1476" x2="-204.925" y2="387.1476" gradientTransform="matrix(0 -25.0799 -25.0799 0 9885.8125 -5016.7617)">
					<stop  offset="0" style="stop-color:#EEEEEE"/>
					<stop  offset="1" style="stop-color:#F9F9F9"/>
				</linearGradient>
				<rect x="164.375" y="125.912" clip-path="url(#SVGID_22_)" fill="url(#SVGID_24_)" width="23.626" height="27.244"/>
			</g>
		</mask>
		
			<rect x="164.375" y="125.912" clip-path="url(#SVGID_22_)" mask="url(#SVGID_23_)" fill="#313C94" width="23.626" height="27.244"/>
	</g>
	<g>
		<defs>
			<path id="SVGID_25_" d="M194.876,125.849c-1.2,0-1.944,0.688-1.944,1.778v15.343h-1.75c-0.797,0.115-1.226,0.586-1.226,1.224
				v0.066c0.025,0.732,0.51,1.218,1.226,1.218h1.75v5.995c0,1.078,0.744,1.745,1.944,1.745h17.259c0.822-0.12,1.259-0.59,1.259-1.24
				c0-0.735-0.501-1.233-1.259-1.233h-16.5v-5.266h17.077l0.073-0.016c0.677-0.135,1.085-0.607,1.085-1.249
				c0-0.739-0.494-1.244-1.23-1.244h-17.004v-14.61h17.369c0.119,0,0.998-0.464,0.998-0.464c0-0.017,0.264-0.625,0.264-0.625
				l0.073-0.163l-0.054-0.075c-0.061-0.715-0.563-1.183-1.289-1.183H194.876z"/>
		</defs>
		<use xlink:href="#SVGID_25_"  overflow="visible" fill="#313C94"/>
		<clipPath id="SVGID_26_">
			<use xlink:href="#SVGID_25_"  overflow="visible"/>
		</clipPath>
		<defs>
			<filter id="Adobe_OpacityMaskFilter_6_" filterUnits="userSpaceOnUse" x="189.956" y="125.849" width="24.383" height="27.369">
				<feColorMatrix  type="matrix" values="1 0 0 0 0  0 1 0 0 0  0 0 1 0 0  0 0 0 1 0"/>
			</filter>
		</defs>
		<mask maskUnits="userSpaceOnUse" x="189.956" y="125.849" width="24.383" height="27.369" id="SVGID_27_">
			<g filter="url(#Adobe_OpacityMaskFilter_6_)">
				
					<linearGradient id="SVGID_28_" gradientUnits="userSpaceOnUse" x1="-206.5358" y1="386.7549" x2="-204.9256" y2="386.7549" gradientTransform="matrix(0 -25.0799 -25.0799 0 9901.9209 -5016.7617)">
					<stop  offset="0" style="stop-color:#EEEEEE"/>
					<stop  offset="1" style="stop-color:#F9F9F9"/>
				</linearGradient>
				<rect x="189.956" y="125.849" clip-path="url(#SVGID_26_)" fill="url(#SVGID_28_)" width="24.383" height="27.369"/>
			</g>
		</mask>
		
			<rect x="189.956" y="125.849" clip-path="url(#SVGID_26_)" mask="url(#SVGID_27_)" fill="#313C94" width="24.383" height="27.369"/>
	</g>
	<g>
		<defs>
			<path id="SVGID_29_" d="M219.073,125.897c-1.203,0-1.942,0.658-1.942,1.73v24.306c0.09,0.809,0.608,1.277,1.322,1.243
				c1.018-0.04,1.378-0.689,1.378-1.243V128.36h7.531c2.529,0,4.508,0.506,5.915,1.519c1.547,1.126,2.305,2.791,2.305,5.085
				c0,2.432-0.848,4.079-2.603,5.023c-1.597,0.866-3.966,1.267-7.014,1.216h-1.87c0.036,0-0.873,0.302-0.873,0.302l-0.381,0.988
				c0,0.463,0.227,0.857,0.65,1.108l12.634,9.357c-0.064-0.044,0.846,0.267,0.846,0.267c0.783,0,1.302-0.482,1.302-1.192
				c-0.019-0.122-0.66-1.193-0.66-1.193c-0.013,0-5.169-4.767-9.101-7.179c2.431-0.099,4.509-0.558,6.059-1.503
				c2.489-1.517,3.745-3.936,3.745-7.201c0-3.467-1.188-5.968-3.537-7.445c-1.709-1.074-4.193-1.615-7.393-1.615H219.073z"/>
		</defs>
		<use xlink:href="#SVGID_29_"  overflow="visible" fill="#313C94"/>
		<clipPath id="SVGID_30_">
			<use xlink:href="#SVGID_29_"  overflow="visible"/>
		</clipPath>
		<defs>
			<filter id="Adobe_OpacityMaskFilter_7_" filterUnits="userSpaceOnUse" x="217.13" y="125.897" width="21.186" height="27.328">
				<feColorMatrix  type="matrix" values="1 0 0 0 0  0 1 0 0 0  0 0 1 0 0  0 0 0 1 0"/>
			</filter>
		</defs>
		<mask maskUnits="userSpaceOnUse" x="217.13" y="125.897" width="21.186" height="27.328" id="SVGID_31_">
			<g filter="url(#Adobe_OpacityMaskFilter_7_)">
				
					<linearGradient id="SVGID_32_" gradientUnits="userSpaceOnUse" x1="-206.5363" y1="386.3681" x2="-204.9251" y2="386.3681" gradientTransform="matrix(0 -25.0799 -25.0799 0 9917.7959 -5016.7617)">
					<stop  offset="0" style="stop-color:#EEEEEE"/>
					<stop  offset="1" style="stop-color:#F9F9F9"/>
				</linearGradient>
				<rect x="217.13" y="125.897" clip-path="url(#SVGID_30_)" fill="url(#SVGID_32_)" width="21.186" height="27.328"/>
			</g>
		</mask>
		
			<rect x="217.13" y="125.897" clip-path="url(#SVGID_30_)" mask="url(#SVGID_31_)" fill="#313C94" width="21.186" height="27.328"/>
	</g>
</g>
<rect x="28.707" y="113.368" fill="#313C94" width="301.57" height="1.787"/>
<g>
	<g>
		<defs>
			<path id="SVGID_33_" d="M304.127,77.004c0-3.394,1.764-3.753,11.415-3.753c6.755-0.129,8.106,0.142,8.106,3.18
				c0,1.709-1.7,3.331-4.279,4.196h-12.665C305.246,79.982,304.127,78.702,304.127,77.004 M250.353,31.139
				c-0.298,0.199,1.507-0.277,3.763-0.749c3.695-0.775,8.61-1.549,7.505,0.615c-8.207,16.058-28.206,54.276-31.787,61.1h9.921h0.671
				h33.87l4.166-3.265l1.896,3.265h32.804c0,0,22.139-0.376,18.702-19.71c-2.118-7.856-11.794-8.27-11.794-8.27
				s-23.599-1.493-24.208,8.987c0,3.25,1.534,5.456,4.474,7.514h-17.983l-1.863-3.276l-4.301,3.276h-30.017l33.76-65.732
				c1.096-2.401,2.408-4.076,1.826-4.076C280.748,10.818,273.994,15.909,250.353,31.139"/>
		</defs>
		<use xlink:href="#SVGID_33_"  overflow="visible" fill="#313C94"/>
		<clipPath id="SVGID_34_">
			<use xlink:href="#SVGID_33_"  overflow="visible"/>
		</clipPath>
		<defs>
			<filter id="Adobe_OpacityMaskFilter_8_" filterUnits="userSpaceOnUse" x="229.834" y="10.818" width="105.466" height="81.287">
				<feColorMatrix  type="matrix" values="1 0 0 0 0  0 1 0 0 0  0 0 1 0 0  0 0 0 1 0"/>
			</filter>
		</defs>
		<mask maskUnits="userSpaceOnUse" x="229.834" y="10.818" width="105.466" height="81.287" id="SVGID_35_">
			<g filter="url(#Adobe_OpacityMaskFilter_8_)">
				
					<linearGradient id="SVGID_36_" gradientUnits="userSpaceOnUse" x1="-205.5765" y1="386.0386" x2="-203.9658" y2="386.0386" gradientTransform="matrix(0 -36.1248 -36.1248 0 14228.1348 -7318.4233)">
					<stop  offset="0" style="stop-color:#EEEEEE"/>
					<stop  offset="1" style="stop-color:#F9F9F9"/>
				</linearGradient>
				<rect x="229.834" y="10.818" clip-path="url(#SVGID_34_)" fill="url(#SVGID_36_)" width="105.466" height="81.287"/>
			</g>
		</mask>
		
			<rect x="229.834" y="10.818" clip-path="url(#SVGID_34_)" mask="url(#SVGID_35_)" fill="#313C94" width="105.466" height="81.287"/>
	</g>
	<g>
		<defs>
			<path id="SVGID_37_" d="M224.891,65.7l-8.657,15.062h-11.739l6.748-12.375c0.044-2.472-6.214-2.472-9.525,3.375l-4.895,9h-13.327
				l4.654-8.547c0.959-3.947-6.622-2.846-8.342,1.218l-4.062,7.462h-2.666h-9.897h-9.502h-4.971h-2.656l6.021-11.027
				c0.444-5.764-8.85,0.766-11.752,7.349l-8.165,14.981c-3.349,5.787-9.994,11.862-13.628,12.181
				c-2.055,0.183-4.698-1.014-7.925-3.571c0.329,5.275,2.214,7.875,5.641,7.816c4.231-0.066,8.217-1.394,11.972-3.961
				c3.397-2.381,9.403-8.584,11.68-12.539l16.746,0.074v-0.144h63.101c9.158-16.374,16.779-30.335,16.779-30.335
				c-0.712-1.138-2.101-1.745-3.707-1.745C230.047,59.973,226.63,61.766,224.891,65.7"/>
		</defs>
		<use xlink:href="#SVGID_37_"  overflow="visible" fill="#313C94"/>
		<clipPath id="SVGID_38_">
			<use xlink:href="#SVGID_37_"  overflow="visible"/>
		</clipPath>
		<defs>
			<filter id="Adobe_OpacityMaskFilter_9_" filterUnits="userSpaceOnUse" x="110.605" y="59.973" width="125.918" height="48.709">
				<feColorMatrix  type="matrix" values="1 0 0 0 0  0 1 0 0 0  0 0 1 0 0  0 0 0 1 0"/>
			</filter>
		</defs>
		<mask maskUnits="userSpaceOnUse" x="110.605" y="59.973" width="125.918" height="48.709" id="SVGID_39_">
			<g filter="url(#Adobe_OpacityMaskFilter_9_)">
				
					<linearGradient id="SVGID_40_" gradientUnits="userSpaceOnUse" x1="-205.5769" y1="387.2091" x2="-203.9658" y2="387.2091" gradientTransform="matrix(0 -36.1248 -36.1248 0 14161.416 -7318.4233)">
					<stop  offset="0" style="stop-color:#EEEEEE"/>
					<stop  offset="1" style="stop-color:#F9F9F9"/>
				</linearGradient>
				<rect x="110.605" y="59.973" clip-path="url(#SVGID_38_)" fill="url(#SVGID_40_)" width="125.918" height="48.709"/>
			</g>
		</mask>
		
			<rect x="110.605" y="59.973" clip-path="url(#SVGID_38_)" mask="url(#SVGID_39_)" fill="#313C94" width="125.918" height="48.709"/>
	</g>
	<g>
		<defs>
			<path id="SVGID_41_" d="M195.286,46.431c0,2.521,2.133,4.568,4.763,4.568c2.621,0,4.76-2.047,4.76-4.568
				c0-2.513-2.139-4.551-4.76-4.551C197.42,41.88,195.286,43.917,195.286,46.431"/>
		</defs>
		<use xlink:href="#SVGID_41_"  overflow="visible" fill="#313C94"/>
		<clipPath id="SVGID_42_">
			<use xlink:href="#SVGID_41_"  overflow="visible"/>
		</clipPath>
		<defs>
			<filter id="Adobe_OpacityMaskFilter_10_" filterUnits="userSpaceOnUse" x="195.286" y="41.88" width="9.522" height="9.118">
				<feColorMatrix  type="matrix" values="1 0 0 0 0  0 1 0 0 0  0 0 1 0 0  0 0 0 1 0"/>
			</filter>
		</defs>
		<mask maskUnits="userSpaceOnUse" x="195.286" y="41.88" width="9.522" height="9.118" id="SVGID_43_">
			<g filter="url(#Adobe_OpacityMaskFilter_10_)">
				
					<linearGradient id="SVGID_44_" gradientUnits="userSpaceOnUse" x1="-205.5763" y1="386.931" x2="-203.9659" y2="386.931" gradientTransform="matrix(0 -36.1248 -36.1248 0 14177.8535 -7318.4233)">
					<stop  offset="0" style="stop-color:#EEEEEE"/>
					<stop  offset="1" style="stop-color:#F9F9F9"/>
				</linearGradient>
				<rect x="195.286" y="41.88" clip-path="url(#SVGID_42_)" fill="url(#SVGID_44_)" width="9.522" height="9.118"/>
			</g>
		</mask>
		<rect x="195.286" y="41.88" clip-path="url(#SVGID_42_)" mask="url(#SVGID_43_)" fill="#313C94" width="9.522" height="9.118"/>
	</g>
	<g>
		<defs>
			<path id="SVGID_45_" d="M214.001,46.431c0,2.521,2.12,4.568,4.747,4.568c2.632,0,4.759-2.047,4.759-4.568
				c0-2.513-2.127-4.551-4.759-4.551C216.121,41.88,214.001,43.917,214.001,46.431"/>
		</defs>
		<use xlink:href="#SVGID_45_"  overflow="visible" fill="#313C94"/>
		<clipPath id="SVGID_46_">
			<use xlink:href="#SVGID_45_"  overflow="visible"/>
		</clipPath>
		<defs>
			<filter id="Adobe_OpacityMaskFilter_11_" filterUnits="userSpaceOnUse" x="214.001" y="41.88" width="9.506" height="9.118">
				<feColorMatrix  type="matrix" values="1 0 0 0 0  0 1 0 0 0  0 0 1 0 0  0 0 0 1 0"/>
			</filter>
		</defs>
		<mask maskUnits="userSpaceOnUse" x="214.001" y="41.88" width="9.506" height="9.118" id="SVGID_47_">
			<g filter="url(#Adobe_OpacityMaskFilter_11_)">
				
					<linearGradient id="SVGID_48_" gradientUnits="userSpaceOnUse" x1="-205.5763" y1="386.7376" x2="-203.9659" y2="386.7376" gradientTransform="matrix(0 -36.1248 -36.1248 0 14189.5723 -7318.4233)">
					<stop  offset="0" style="stop-color:#EEEEEE"/>
					<stop  offset="1" style="stop-color:#F9F9F9"/>
				</linearGradient>
				<rect x="214.001" y="41.88" clip-path="url(#SVGID_46_)" fill="url(#SVGID_48_)" width="9.506" height="9.118"/>
			</g>
		</mask>
		<rect x="214.001" y="41.88" clip-path="url(#SVGID_46_)" mask="url(#SVGID_47_)" fill="#313C94" width="9.506" height="9.118"/>
	</g>
	<g>
		<defs>
			<path id="SVGID_49_" d="M205.838,33.287c0,2.521,2.121,4.558,4.749,4.558c2.633,0,4.761-2.037,4.761-4.558
				c0-2.517-2.128-4.557-4.761-4.557C207.959,28.73,205.838,30.77,205.838,33.287"/>
		</defs>
		<use xlink:href="#SVGID_49_"  overflow="visible" fill="#313C94"/>
		<clipPath id="SVGID_50_">
			<use xlink:href="#SVGID_49_"  overflow="visible"/>
		</clipPath>
		<defs>
			<filter id="Adobe_OpacityMaskFilter_12_" filterUnits="userSpaceOnUse" x="205.838" y="28.73" width="9.51" height="9.115">
				<feColorMatrix  type="matrix" values="1 0 0 0 0  0 1 0 0 0  0 0 1 0 0  0 0 0 1 0"/>
			</filter>
		</defs>
		<mask maskUnits="userSpaceOnUse" x="205.838" y="28.73" width="9.51" height="9.115" id="SVGID_51_">
			<g filter="url(#Adobe_OpacityMaskFilter_12_)">
				
					<linearGradient id="SVGID_52_" gradientUnits="userSpaceOnUse" x1="-205.5756" y1="386.8208" x2="-203.9658" y2="386.8208" gradientTransform="matrix(0 -36.1248 -36.1248 0 14184.416 -7318.4233)">
					<stop  offset="0" style="stop-color:#EEEEEE"/>
					<stop  offset="1" style="stop-color:#F9F9F9"/>
				</linearGradient>
				<rect x="205.838" y="28.73" clip-path="url(#SVGID_50_)" fill="url(#SVGID_52_)" width="9.51" height="9.115"/>
			</g>
		</mask>
		<rect x="205.838" y="28.73" clip-path="url(#SVGID_50_)" mask="url(#SVGID_51_)" fill="#313C94" width="9.51" height="9.115"/>
	</g>
</g>
<g>
	<defs>
		<path id="SVGID_53_" d="M271.441,102.444c0,2.175,1.848,3.936,4.115,3.936c2.27,0,4.109-1.761,4.109-3.936
			c0-2.172-1.84-3.933-4.109-3.933C273.289,98.511,271.441,100.272,271.441,102.444"/>
	</defs>
	<use xlink:href="#SVGID_53_"  overflow="visible" fill="#313C94"/>
	<clipPath id="SVGID_54_">
		<use xlink:href="#SVGID_53_"  overflow="visible"/>
	</clipPath>
	<defs>
		<filter id="Adobe_OpacityMaskFilter_13_" filterUnits="userSpaceOnUse" x="271.441" y="98.511" width="8.225" height="7.869">
			<feColorMatrix  type="matrix" values="1 0 0 0 0  0 1 0 0 0  0 0 1 0 0  0 0 0 1 0"/>
		</filter>
	</defs>
	<mask maskUnits="userSpaceOnUse" x="271.441" y="98.511" width="8.225" height="7.869" id="SVGID_55_">
		<g filter="url(#Adobe_OpacityMaskFilter_13_)">
			
				<linearGradient id="SVGID_56_" gradientUnits="userSpaceOnUse" x1="-205.5548" y1="386.0511" x2="-204.0476" y2="386.0511" gradientTransform="matrix(0 -36.1248 -36.1248 0 14221.5723 -7318.4233)">
				<stop  offset="0" style="stop-color:#EEEEEE"/>
				<stop  offset="1" style="stop-color:#F9F9F9"/>
			</linearGradient>
			<rect x="271.441" y="98.511" clip-path="url(#SVGID_54_)" fill="url(#SVGID_56_)" width="8.225" height="7.869"/>
		</g>
	</mask>
	<rect x="271.441" y="98.511" clip-path="url(#SVGID_54_)" mask="url(#SVGID_55_)" fill="#313C94" width="8.225" height="7.869"/>
</g>
<polygon fill="#313C94" points="10.211,115.79 10.211,109.505 7.775,109.505 7.775,108.413 13.875,108.413 13.875,109.505 
	11.47,109.505 11.47,115.79 "/>
<polygon fill="#313C94" points="20.988,115.79 20.988,110.723 19.205,115.79 18.032,115.79 16.255,110.723 16.255,115.79 
	15.003,115.79 15.003,108.414 16.585,108.414 18.635,114.184 20.662,108.414 22.24,108.414 22.24,115.79 "/>
<g>
	<path fill="#26A9E0" d="M260.208,132.55h-11.967c-0.354,0-0.587,0.134-0.717,0.244c-0.234,0.196-0.362,0.48-0.362,0.802
		c0,0.3,0.117,0.578,0.321,0.774c0.202,0.195,0.472,0.305,0.757,0.305h4.914v16.014c0,0.273,0.08,0.509,0.228,0.691
		c0.188,0.246,0.486,0.386,0.811,0.386c0.286,0,0.553-0.112,0.755-0.313c0.201-0.203,0.315-0.474,0.315-0.764v-16.014h4.944
		c0.265,0,0.516-0.097,0.714-0.27c0.228-0.205,0.352-0.474,0.352-0.768c0-0.386-0.154-0.632-0.289-0.776
		C260.847,132.718,260.598,132.55,260.208,132.55"/>
	<path fill="#26A9E0" d="M288.325,133.159l-0.045-0.091c-0.159-0.274-0.397-0.465-0.671-0.547l-0.303-0.597l-0.299,0.594
		c-0.207,0.066-0.491,0.228-0.673,0.632l-5.709,11.177h-1.4c-0.28,0-0.522,0.082-0.714,0.247c-0.133,0.109-0.352,0.363-0.352,0.795
		c0,0.283,0.1,0.546,0.286,0.748c0.201,0.217,0.477,0.336,0.78,0.336h0.326l-1.487,2.902l-6.531-4.387
		c1.635-0.187,2.96-0.685,3.944-1.481c1.344-1.085,2.026-2.668,2.026-4.699c0-1.963-0.645-3.516-1.912-4.621
		c-1.235-1.072-2.963-1.616-5.141-1.616h-5.691c-0.267,0-0.502,0.056-0.701,0.163c-0.353,0.191-0.564,0.539-0.564,0.931v17.044
		c0,0.336,0.129,0.564,0.242,0.707c0.196,0.236,0.476,0.37,0.891,0.366c0.27-0.027,0.507-0.135,0.681-0.315
		c0.202-0.198,0.311-0.468,0.311-0.758v-7.573l1.422,0.956c0.051,0.356,0.271,0.655,0.589,0.813l10.032,6.714l0.394,0.186h0.191
		c0.029,0,0.053-0.014,0.085-0.018c0.068,0.014,0.139,0.039,0.214,0.039l0.358-0.024l0.236-0.173
		c0.082-0.061,0.154-0.134,0.224-0.217l2.541-4.937h10.741l2.453,4.802c0.075,0.137,0.164,0.244,0.261,0.327l0.315,0.242h0.327
		c0.308,0,0.592-0.133,0.8-0.371c0.176-0.204,0.27-0.457,0.27-0.726l-0.009-0.249L288.325,133.159z M282.979,144.327l4.321-8.508
		l4.279,8.508H282.979z M267.384,143.138l-1.763-0.155v-8.308h4.578c0.954,0,1.699,0.062,2.221,0.176
		c0.475,0.108,0.904,0.285,1.252,0.521c0.566,0.384,0.981,0.85,1.267,1.422c0.29,0.572,0.437,1.243,0.437,1.994
		c0,0.874-0.169,1.618-0.506,2.208c-0.328,0.579-0.808,1.02-1.49,1.353c-0.393,0.201-0.865,0.348-1.4,0.437
		c-0.581,0.094-1.42,0.144-2.505,0.144c-0.459,0-0.853-0.012-1.179-0.033l-0.234-0.004
		C267.795,142.893,267.554,142.985,267.384,143.138"/>
	<path fill="#26A9E0" d="M309.839,133.471c-0.718-0.311-1.557-0.544-2.497-0.698c-0.913-0.148-1.989-0.223-3.192-0.223h-3.705
		c-0.277,0-0.522,0.061-0.715,0.174c-0.346,0.196-0.55,0.542-0.55,0.934v16.757c0,0.141,0,0.578,0.306,0.908
		c0.333,0.36,0.806,0.36,0.959,0.36h3.998c1.809,0,3.212-0.159,4.292-0.483c1.099-0.326,2.129-0.88,3.066-1.637
		c1.126-0.907,2.006-2.02,2.612-3.313c0.599-1.29,0.908-2.695,0.908-4.177c0-1.893-0.495-3.624-1.468-5.152
		C312.874,135.386,311.526,134.23,309.839,133.471 M304.827,149.556h-3.518v-14.881h2.568c1.347,0,2.458,0.081,3.3,0.231
		c0.808,0.144,1.535,0.387,2.168,0.716c1.22,0.631,2.146,1.495,2.832,2.637c0.677,1.133,1.019,2.415,1.019,3.811
		c0,1.285-0.29,2.49-0.859,3.581c-0.569,1.085-1.377,1.98-2.397,2.659c-0.649,0.43-1.363,0.75-2.123,0.945
		C307.03,149.457,306.026,149.556,304.827,149.556"/>
	<path fill="#26A9E0" d="M330.483,149.556h-10.374v-3.103h10.703c0.349,0,0.58-0.138,0.711-0.25
		c0.229-0.196,0.354-0.477,0.354-0.794c0-0.276-0.101-0.539-0.286-0.734c-0.205-0.225-0.481-0.348-0.779-0.348h-10.703v-9.652
		h10.374c0.342,0,0.572-0.134,0.709-0.248c0.228-0.191,0.359-0.48,0.359-0.789c0-0.266-0.094-0.515-0.277-0.726
		c-0.207-0.234-0.487-0.362-0.791-0.362H319.25c-0.276,0-0.518,0.061-0.716,0.174c-0.343,0.196-0.548,0.542-0.548,0.934v10.669
		h-0.944c-0.283,0-0.521,0.082-0.714,0.247c-0.131,0.109-0.353,0.363-0.353,0.795c0,0.283,0.101,0.546,0.291,0.748
		c0.199,0.217,0.475,0.336,0.776,0.336h0.944v3.962c0,0.143,0,0.583,0.308,0.908c0.332,0.36,0.803,0.36,0.956,0.36h11.232
		c0.379,0,0.623-0.159,0.758-0.291c0.141-0.138,0.311-0.386,0.311-0.796c0-0.314-0.146-0.605-0.378-0.795
		C330.975,149.641,330.737,149.556,330.483,149.556"/>
</g>
</svg>
