<?xml version="1.0" encoding="iso-8859-1"?>
<!-- Generator: Adobe Illustrator 19.0.0, SVG Export Plug-In . SVG Version: 6.00 Build 0)  -->
<svg version="1.1" id="Layer_1" xmlns="http://www.w3.org/2000/svg" xmlns:xlink="http://www.w3.org/1999/xlink" x="0px" y="0px"
	 viewBox="0 0 512 512" style="enable-background:new 0 0 512 512;" xml:space="preserve">
<path style="fill:#C2D5D8;" d="M251.813,388c2.272,0,5.12-0.04,8.368-0.084c-0.028,0-0.06,0-0.088,0
	c6.772-0.088,15.524-0.18,25.492,0.064c0.056,0,0.116,0.004,0.172,0.004c1.98,0.048,4.012,0.112,6.084,0.192
	c0.372,0.016,0.752,0.033,1.124,0.048c1.772,0.072,3.564,0.156,5.396,0.252c0.553,0.028,1.116,0.068,1.676,0.1
	c1.688,0.096,3.384,0.204,5.112,0.328c0.648,0.048,1.304,0.1,1.96,0.148c1.66,0.128,3.332,0.264,5.024,0.416
	c0.724,0.064,1.452,0.136,2.184,0.208c1.652,0.16,3.308,0.332,4.98,0.52c0.768,0.084,1.536,0.176,2.308,0.268
	c1.66,0.196,3.324,0.412,5,0.64c0.788,0.108,1.576,0.216,2.368,0.328c1.688,0.244,3.38,0.508,5.08,0.784
	c0.78,0.128,1.556,0.252,2.336,0.384c1.732,0.296,3.46,0.62,5.196,0.952c0.752,0.144,1.5,0.284,2.252,0.436
	c1.804,0.364,3.604,0.76,5.408,1.168c0.672,0.152,1.348,0.296,2.02,0.452c1.948,0.46,3.884,0.956,5.82,1.472
	c0.52,0.14,1.048,0.264,1.568,0.408c2.376,0.652,4.736,1.344,7.084,2.084c0.068,0.02,0.136,0.04,0.204,0.06
	c4.912,1.556,9.74,3.312,14.44,5.295c0.412,0.172,0.808,0.368,1.216,0.544c1.876,0.811,3.732,1.644,5.56,2.532
	c0.664,0.324,1.308,0.676,1.968,1.008c1.544,0.78,3.08,1.572,4.584,2.412c0.756,0.425,1.492,0.872,2.236,1.312
	c1.368,0.804,2.728,1.616,4.052,2.468c0.788,0.508,1.556,1.04,2.328,1.568c1.24,0.844,2.468,1.7,3.664,2.596
	c0.784,0.584,1.548,1.188,2.312,1.796c1.135,0.9,2.256,1.82,3.348,2.768c0.756,0.656,1.5,1.333,2.236,2.012
	c1.044,0.968,2.06,1.96,3.056,2.972c0.712,0.728,1.416,1.464,2.108,2.216c0.952,1.04,1.872,2.116,2.772,3.208
	c0.66,0.796,1.316,1.592,1.948,2.416c0.864,1.128,1.684,2.3,2.496,3.48c0.588,0.856,1.184,1.708,1.744,2.592
	c0.368,0.584,0.736,1.164,1.088,1.76c50.944-46.796,82.904-113.952,82.904-188.588C512.001,114.616,397.385,0,256.002,0
	S0.001,114.616,0.001,256.001c0,72.08,29.832,137.156,77.772,183.68C118.045,382.096,224.141,388,251.813,388z"/>
<g>
	<path style="fill:#198058;" d="M334.053,392.22c0.78,0.128,1.556,0.252,2.336,0.384C335.61,392.468,334.833,392.344,334.053,392.22
		z"/>
	<path style="fill:#198058;" d="M349.241,395.16c0.672,0.152,1.348,0.296,2.02,0.452
		C350.585,395.457,349.913,395.312,349.241,395.16z"/>
	<path style="fill:#198058;" d="M341.586,393.556c0.752,0.144,1.5,0.284,2.252,0.436
		C343.082,393.84,342.333,393.701,341.586,393.556z"/>
	<path style="fill:#198058;" d="M365.725,399.572c0.068,0.02,0.136,0.04,0.204,0.06
		C365.861,399.613,365.793,399.596,365.725,399.572z"/>
	<path style="fill:#198058;" d="M326.609,391.108c0.788,0.108,1.576,0.216,2.368,0.328
		C328.185,391.324,327.397,391.216,326.609,391.108z"/>
	<path style="fill:#198058;" d="M380.369,404.932c0.412,0.172,0.808,0.368,1.216,0.544
		C381.177,405.3,380.781,405.104,380.369,404.932z"/>
	<path style="fill:#198058;" d="M285.585,387.98c0.056,0,0.116,0.004,0.172,0.004C285.702,387.985,285.641,387.985,285.585,387.98z"
		/>
	<path style="fill:#198058;" d="M291.841,388.18c0.368,0.016,0.752,0.033,1.124,0.048
		C292.593,388.212,292.213,388.196,291.841,388.18z"/>
	<path style="fill:#198058;" d="M387.145,408.008c0.664,0.324,1.308,0.676,1.968,1.008
		C388.453,408.68,387.809,408.328,387.145,408.008z"/>
	<path style="fill:#198058;" d="M298.361,388.48c0.553,0.028,1.12,0.068,1.676,0.1C299.481,388.548,298.917,388.512,298.361,388.48z
		"/>
	<path style="fill:#198058;" d="M305.153,388.908c0.648,0.048,1.304,0.1,1.96,0.148
		C306.457,389.008,305.801,388.952,305.153,388.908z"/>
	<path style="fill:#198058;" d="M319.301,390.2c0.768,0.084,1.536,0.176,2.307,0.268C320.833,390.376,320.069,390.284,319.301,390.2
		z"/>
	<path style="fill:#198058;" d="M312.133,389.472c0.724,0.064,1.456,0.136,2.184,0.208
		C313.589,389.609,312.862,389.54,312.133,389.472z"/>
	<path style="fill:#198058;" d="M357.077,397.084c0.52,0.14,1.048,0.264,1.568,0.408
		C358.125,397.348,357.597,397.224,357.077,397.084z"/>
	<path style="fill:#198058;" d="M416.929,428.912c0.712,0.728,1.416,1.464,2.108,2.216
		C418.349,430.376,417.645,429.641,416.929,428.912z"/>
	<path style="fill:#198058;" d="M411.638,423.928c0.756,0.656,1.5,1.333,2.236,2.012
		C413.137,425.26,412.397,424.584,411.638,423.928z"/>
	<path style="fill:#198058;" d="M405.982,419.369c0.784,0.584,1.548,1.188,2.312,1.796
		C407.529,420.556,406.766,419.952,405.982,419.369z"/>
	<path style="fill:#198058;" d="M421.809,434.336c0.66,0.796,1.316,1.592,1.948,2.416
		C423.125,435.928,422.469,435.132,421.809,434.336z"/>
	<path style="fill:#198058;" d="M426.254,440.232c0.588,0.856,1.184,1.708,1.744,2.592
		C427.437,441.94,426.842,441.092,426.254,440.232z"/>
	<path style="fill:#198058;" d="M413.345,457.864c-22.76-60.548-104.512-69.076-153.164-69.944c-3.248,0.04-6.096,0.08-8.368,0.08
		c-27.672,0-133.769-5.904-174.04,51.68C123.865,484.413,186.697,512,256.001,512C315.345,512,369.929,491.752,413.345,457.864z"/>
	<path style="fill:#198058;" d="M393.698,411.424c0.756,0.425,1.492,0.872,2.236,1.312
		C395.189,412.3,394.453,411.848,393.698,411.424z"/>
	<path style="fill:#198058;" d="M399.989,415.204c0.788,0.508,1.556,1.04,2.328,1.568
		C401.541,416.249,400.777,415.712,399.989,415.204z"/>
</g>
<g>
	<path style="fill:#16734F;" d="M292.965,388.228c1.772,0.072,3.568,0.156,5.396,0.252
		C296.533,388.384,294.741,388.3,292.965,388.228z"/>
	<path style="fill:#16734F;" d="M381.585,405.476c1.876,0.812,3.732,1.644,5.56,2.532
		C385.318,407.12,383.461,406.288,381.585,405.476z"/>
	<path style="fill:#16734F;" d="M423.757,436.752c0.864,1.128,1.684,2.3,2.496,3.48C425.441,439.052,424.621,437.88,423.757,436.752
		z"/>
	<path style="fill:#16734F;" d="M300.037,388.58c1.688,0.096,3.388,0.204,5.112,0.328
		C303.425,388.784,301.725,388.676,300.037,388.58z"/>
	<path style="fill:#16734F;" d="M285.757,387.988c1.98,0.048,4.012,0.112,6.084,0.192
		C289.769,388.1,287.741,388.036,285.757,387.988z"/>
	<path style="fill:#16734F;" d="M429.045,444.624c0.016-0.012,0.028-0.028,0.04-0.04c-0.355-0.596-0.72-1.176-1.088-1.76
		C428.365,443.408,428.689,444.028,429.045,444.624z"/>
	<path style="fill:#16734F;" d="M389.113,409.012c1.544,0.78,3.08,1.572,4.584,2.412
		C392.193,410.588,390.657,409.796,389.113,409.012z"/>
	<path style="fill:#16734F;" d="M402.313,416.773c1.24,0.844,2.468,1.7,3.664,2.596
		C404.781,418.472,403.553,417.617,402.313,416.773z"/>
	<path style="fill:#16734F;" d="M395.933,412.736c1.368,0.804,2.728,1.616,4.052,2.468
		C398.661,414.352,397.301,413.54,395.933,412.736z"/>
	<path style="fill:#16734F;" d="M285.585,387.98c-9.972-0.244-18.72-0.152-25.492-0.064c0.028,0,0.06,0,0.088,0
		C266.953,387.832,275.633,387.736,285.585,387.98z"/>
	<path style="fill:#16734F;" d="M343.833,393.992c1.804,0.364,3.604,0.76,5.408,1.168
		C347.437,394.752,345.637,394.356,343.833,393.992z"/>
	<path style="fill:#16734F;" d="M408.293,421.16c1.135,0.9,2.256,1.82,3.348,2.768C410.545,422.98,409.43,422.06,408.293,421.16z"/>
	<path style="fill:#16734F;" d="M307.113,389.056c1.66,0.128,3.332,0.264,5.024,0.416
		C310.445,389.32,308.773,389.184,307.113,389.056z"/>
	<path style="fill:#16734F;" d="M328.974,391.436c1.688,0.244,3.38,0.508,5.08,0.784
		C332.358,391.944,330.666,391.68,328.974,391.436z"/>
	<path style="fill:#16734F;" d="M358.645,397.488c2.376,0.652,4.736,1.344,7.084,2.084
		C363.381,398.833,361.018,398.14,358.645,397.488z"/>
	<path style="fill:#16734F;" d="M351.257,395.612c1.944,0.46,3.884,0.956,5.82,1.472
		C355.141,396.572,353.205,396.072,351.257,395.612z"/>
	<path style="fill:#16734F;" d="M336.389,392.604c1.728,0.296,3.464,0.62,5.196,0.952
		C339.849,393.224,338.117,392.9,336.389,392.604z"/>
	<path style="fill:#16734F;" d="M413.873,425.94c1.044,0.964,2.06,1.96,3.056,2.972C415.933,427.9,414.917,426.909,413.873,425.94z"
		/>
	<path style="fill:#16734F;" d="M365.929,399.632c4.912,1.556,9.74,3.316,14.44,5.295
		C375.669,402.948,370.841,401.188,365.929,399.632z"/>
	<path style="fill:#16734F;" d="M419.038,431.128c0.952,1.04,1.872,2.116,2.772,3.208
		C420.905,433.244,419.989,432.168,419.038,431.128z"/>
	<path style="fill:#16734F;" d="M314.321,389.68c1.648,0.16,3.308,0.332,4.98,0.52C317.629,390.012,315.969,389.84,314.321,389.68z"
		/>
	<path style="fill:#16734F;" d="M321.605,390.468c1.66,0.196,3.328,0.412,5,0.64C324.933,390.88,323.265,390.664,321.605,390.468z"
		/>
	<path style="fill:#16734F;" d="M426.254,440.232c-0.811-1.18-1.632-2.352-2.496-3.48c-0.632-0.824-1.288-1.62-1.948-2.416
		c-0.904-1.092-1.82-2.168-2.772-3.208c-0.688-0.752-1.392-1.488-2.108-2.216c-0.996-1.016-2.012-2.008-3.056-2.972
		c-0.736-0.68-1.476-1.356-2.236-2.012c-1.092-0.948-2.212-1.868-3.348-2.768c-0.764-0.604-1.529-1.212-2.312-1.796
		c-1.196-0.892-2.424-1.752-3.664-2.596c-0.772-0.524-1.54-1.06-2.328-1.568c-1.328-0.856-2.688-1.668-4.052-2.468
		c-0.744-0.436-1.48-0.888-2.236-1.312c-1.504-0.84-3.04-1.632-4.584-2.412c-0.656-0.332-1.304-0.684-1.968-1.008
		c-1.828-0.884-3.688-1.72-5.56-2.532c-0.408-0.176-0.808-0.372-1.216-0.544c-4.7-1.984-9.528-3.744-14.44-5.295
		c-0.068-0.02-0.136-0.04-0.204-0.06c-2.344-0.74-4.708-1.432-7.084-2.084c-0.52-0.144-1.044-0.268-1.568-0.408
		c-1.936-0.512-3.872-1.012-5.82-1.472c-0.672-0.16-1.348-0.3-2.02-0.452c-1.8-0.408-3.604-0.804-5.408-1.168
		c-0.752-0.152-1.5-0.292-2.252-0.436c-1.732-0.332-3.464-0.656-5.196-0.952c-0.78-0.132-1.556-0.26-2.336-0.384
		c-1.696-0.276-3.392-0.54-5.08-0.784c-0.792-0.112-1.58-0.224-2.368-0.328c-1.676-0.228-3.344-0.44-5-0.64
		c-0.772-0.092-1.54-0.18-2.308-0.268c-1.672-0.188-3.332-0.36-4.98-0.52c-0.728-0.072-1.46-0.144-2.184-0.208
		c-1.692-0.152-3.364-0.288-5.024-0.416c-0.652-0.048-1.312-0.104-1.96-0.148c-1.728-0.124-3.428-0.227-5.112-0.328
		c-0.556-0.033-1.124-0.068-1.676-0.1c-1.828-0.1-3.624-0.18-5.396-0.252c-0.372-0.016-0.756-0.036-1.124-0.048
		c-2.072-0.08-4.104-0.144-6.084-0.192c-0.056,0-0.116-0.004-0.172-0.004c-9.956-0.244-18.632-0.152-25.404-0.064
		c48.648,0.868,130.4,9.396,153.164,69.944c5.404-4.216,10.66-8.608,15.7-13.24c-0.357-0.596-0.681-1.216-1.048-1.8
		C427.437,441.94,426.842,441.092,426.254,440.232z"/>
</g>
<ellipse style="fill:#F5F5F5;" cx="251.816" cy="394.003" rx="56.002" ry="22"/>
<path style="fill:#E6CBC3;" d="M301.486,382.252h0.02l-13.692-42.584l-36-2.664l-36,2.664l-13.696,42.584h0.024
	c-0.204,0.584-0.328,1.18-0.328,1.772c0,8.824,22.388,15.972,50,15.972c27.608,0,50-7.148,50-15.972
	C301.814,383.428,301.689,382.836,301.486,382.252z"/>
<path style="fill:#D9BFB8;" d="M301.486,382.252h0.02l-13.692-42.584l-36-2.664l-7,0.516l29,2.148l13.692,42.584h-0.02
	c0.204,0.584,0.328,1.18,0.328,1.772c0,8.064-18.712,14.712-43,15.8c2.288,0.096,4.616,0.172,7,0.172c27.608,0,50-7.148,50-15.972
	C301.814,383.428,301.689,382.836,301.486,382.252z"/>
<path style="fill:#FFE1D9;" d="M355.814,168v-41.612c0-32.452-23.084-58.388-104-58.388s-104,25.936-104,58.388V168
	c0,0-16,1.18-16,12v44.276c0,10.816,4,19.724,16,19.724c0,54.084,48.092,116,104,116s104-61.916,104-116c12,0,16-8.908,16-19.724
	V180C371.813,169.18,355.814,168,355.814,168z"/>
<path style="fill:#F2D6CE;" d="M251.813,68c-2.048,0-4.032,0.028-6,0.06c76.048,1.264,98,26.696,98,58.328V168v76
	c0,52.14-44.704,111.532-98,115.744c1.992,0.156,3.988,0.256,6,0.256c55.908,0,104-61.916,104-116v-76v-41.612
	C355.814,93.936,332.737,68,251.813,68z"/>
<path style="fill:#242424;" d="M251.813,68c-80.916,0-104,25.936-104,58.388V168v44c3.704-18.52,14.28-71.324,38.064-88.56
	c18.92,5.408,41.576,8.56,65.936,8.56c24.356,0,47.016-3.156,65.936-8.56c23.776,17.24,34.36,70.04,38.064,88.56v-44v-41.612
	C355.814,93.936,332.737,68,251.813,68z"/>
<path style="fill:#1A1A1A;" d="M251.813,68c-2.04,0-4.02,0.028-5.988,0.06c76.036,1.268,97.988,26.696,97.988,58.328v39.48
	c6.372,18.112,10.1,36.632,12,46.132v-44v-41.612C355.814,93.936,332.737,68,251.813,68z"/>
<path style="fill:#FFFFFF;" d="M448.001,0c-26.468,0-48,21.532-48,48c0,13.808,5.78,26.616,16,35.724v4.276
	c0,5.896,3.244,11,8,13.776v16.112l4.324,8.652c0.656,2.44,2.324,4.451,4.768,6.004c2.248,4.496,7.824,7.456,14.908,7.456
	s12.66-2.96,14.908-7.456c2.444-1.552,4.112-3.564,4.768-6.004l4.324-8.652v-16.111c4.756-2.776,8-7.88,8-13.776v-4.276
	c10.216-9.108,16-21.916,16-35.724C496.001,21.532,474.469,0,448.001,0z"/>
<path style="fill:#FFF7E6;" d="M488.001,48c0-22.092-17.916-40-40-40s-40,17.908-40,40c0,13.076,6.3,24.648,16,31.944v8.056
	c0,4.4,3.6,8,8,8h32c4.4,0,8-3.6,8-8v-8.056C481.701,72.648,488.001,61.076,488.001,48z"/>
<ellipse style="fill:#242424;" cx="448.005" cy="128" rx="8" ry="4"/>
<path style="fill:#CCCCCC;" d="M432.001,96v20l4,8c0,2.212,5.372,4,12,4s12-1.788,12-4l4-8V96H432.001z"/>
<path style="fill:#E6E6E6;" d="M440.001,124l-4-8V96h-4v20l4,8c0,2.212,5.372,4,12,4c0.684,0,1.348-0.032,2-0.068
	C444.329,127.612,440.001,125.984,440.001,124z"/>
<path style="fill:#B3B3B3;" d="M460.001,96v20l-4,8c0,1.984-4.328,3.612-10,3.932c0.652,0.036,1.316,0.068,2,0.068
	c6.628,0,12-1.788,12-4l4-8V96H460.001z"/>
<g>
	<path style="fill:#CCCCCC;" d="M444.002,78c-0.676,0-1.34-0.344-1.72-0.972l-12-20.001c-0.572-0.948-0.256-2.176,0.692-2.744
		c0.94-0.56,2.172-0.26,2.748,0.684l12,20c0.572,0.948,0.256,2.176-0.692,2.744C444.71,77.908,444.353,78,444.002,78z"/>
	<path style="fill:#CCCCCC;" d="M452.001,78c-0.352,0-0.708-0.092-1.028-0.284c-0.948-0.568-1.252-1.796-0.692-2.744l12-20
		c0.58-0.948,1.812-1.248,2.748-0.684c0.948,0.568,1.252,1.796,0.692,2.744l-12,20C453.341,77.656,452.677,78,452.001,78z"/>
	<path style="fill:#CCCCCC;" d="M440.001,61c-0.78,0-1.504-0.46-1.828-1.188l-3.472-7.812h-2.7c-1.1,0-2-0.896-2-2
		c0-1.104,0.9-2,2-2h4c0.788,0,1.508,0.464,1.828,1.188l1.564,3.512l2.664-11.644c0.188-0.836,0.892-1.456,1.744-1.544
		c0.896-0.076,1.668,0.38,2.024,1.156l5.536,12.024l2.7-11.88c0.188-0.836,0.892-1.46,1.748-1.548
		c0.904-0.084,1.672,0.38,2.028,1.16l3.464,7.584h2.7c1.1,0,2,0.896,2,2c0,1.104-0.9,2-2,2h-4c-0.78,0-1.492-0.456-1.82-1.168
		l-1.54-3.368l-2.696,11.856c-0.188,0.832-0.892,1.456-1.744,1.544c-0.864,0.096-1.664-0.372-2.024-1.152l-5.543-12.036
		l-2.692,11.772c-0.196,0.84-0.904,1.464-1.756,1.544C440.129,60.996,440.065,61,440.001,61z"/>
</g>
<path style="fill:#F5F5F5;" d="M440.001,96V76c0-2.2,1.8-4,4-4h8c2.2,0,4,1.8,4,4v20h-15.999V96z"/>
<path style="fill:#E6E6E6;" d="M452.001,72h-4c2.2,0,4,1.8,4,4v20h4V76C456.001,73.8,454.202,72,452.001,72z"/>
<g>
	<path style="fill:#FFFFFF;" d="M448.001,72h-4c-2.2,0-4,1.8-4,4v20h4V76C444.002,73.8,445.801,72,448.001,72z"/>
	<path style="fill:#FFFFFF;" d="M429.305,22.076c-7.012,5.08-11.9,12.92-13.032,21.924h12.132c1.148-5.66,4.704-10.452,9.548-13.276
		L429.305,22.076z"/>
</g>
<g>
</g>
<g>
</g>
<g>
</g>
<g>
</g>
<g>
</g>
<g>
</g>
<g>
</g>
<g>
</g>
<g>
</g>
<g>
</g>
<g>
</g>
<g>
</g>
<g>
</g>
<g>
</g>
<g>
</g>
</svg>
