<svg xmlns="http://www.w3.org/2000/svg" xmlns:xlink="http://www.w3.org/1999/xlink" viewBox="-92.779 227.1 89.632 39.449"><defs><style>.a{fill:#26a9e0;}.b{clip-path:url(#a);}.c{fill:url(#b);}.d{clip-path:url(#c);}.e{fill:url(#d);}.f{clip-path:url(#e);}.g{fill:url(#f);}.h{clip-path:url(#g);}.i{fill:url(#h);}.j{clip-path:url(#i);}.k{fill:url(#j);}.l{clip-path:url(#k);}.m{fill:url(#l);}.n{clip-path:url(#m);}.o{fill:url(#n);}.p{clip-path:url(#o);}.q{fill:url(#p);}.r{fill:#d0d2d3;}.s{fill:url(#q);}.t{clip-path:url(#r);}.u{fill:url(#s);}.v{clip-path:url(#u);}.w{fill:url(#v);}.x{clip-path:url(#x);}.y{fill:url(#y);}.z{clip-path:url(#aa);}.aa{fill:url(#ab);}.ab{clip-path:url(#ad);}.ac{fill:url(#ae);}.ad{clip-path:url(#af);}.ae{fill:url(#ag);}.af{fill:#808184;}</style><clipPath id="a"><path d="M64.708,286.185v6.908a.332.332,0,0,0,.367.332c.286-.032.375-.194.375-.332v-5.9c.553.689,2.186,2.737,2.186,2.737a.37.37,0,0,0,.326.168.386.386,0,0,0,.325-.179c.166-.211,1.615-2.06,2.129-2.719v5.884l.1.248.288.1a.329.329,0,0,0,.344-.343V286.2a.342.342,0,0,0-.14-.277l-.244-.087a.344.344,0,0,0-.293.122l-2.527,3.221c-.295-.375-2.552-3.219-2.552-3.219s-.313-.159-.313-.159a.357.357,0,0,0-.375.386" transform="translate(-64.708 -285.799)"/></clipPath><linearGradient id="b" x1="-24.419" y1="-10.58" x2="-24.35" y2="-10.58" gradientUnits="objectBoundingBox"><stop offset="0" stop-color="#808184"/><stop offset="1" stop-color="#f1f1f2"/></linearGradient><clipPath id="c"><path d="M139.413,287.122v4.057a2.475,2.475,0,0,1-.7,1.842,2.857,2.857,0,0,1-3.778,0,2.455,2.455,0,0,1-.707-1.842v-4.057a.35.35,0,0,0-.358-.333.337.337,0,0,0-.377.333v4.057a3.18,3.18,0,0,0,.906,2.352,3.676,3.676,0,0,0,4.831-.015,3.164,3.164,0,0,0,.92-2.336v-4.057a.357.357,0,0,0-.363-.333.333.333,0,0,0-.371.333" transform="translate(-133.492 -286.789)"/></clipPath><linearGradient id="d" x1="-24.785" y1="-10.609" x2="-24.718" y2="-10.609" xlink:href="#b"/><clipPath id="e"><path d="M199.737,290.826h1.831a1.221,1.221,0,0,1,.926.333,1.2,1.2,0,0,1,.326.882,1.183,1.183,0,0,1-.483,1.05,1.885,1.885,0,0,1-1.1.281h-1.5v-2.546Zm0-3.639H201.4a2.176,2.176,0,0,1,1.3.376,1.3,1.3,0,0,1,.571,1.11,1.276,1.276,0,0,1-.5,1.079,1.942,1.942,0,0,1-1.232.37h-1.806Zm-.213-.694a.479.479,0,0,0-.535.491v3.137h-.483a.348.348,0,0,0-.33.354.323.323,0,0,0,.33.351h.483v2.747a.474.474,0,0,0,.535.482h1.694c1.952,0,2.36-1.068,2.36-1.96a2.052,2.052,0,0,0-.259-1.02,1.762,1.762,0,0,0-.5-.543,2.5,2.5,0,0,0,.783-.608,2.037,2.037,0,0,0-.4-2.913,3.041,3.041,0,0,0-1.79-.518h-1.887Z" transform="translate(-198.177 -286.494)"/></clipPath><linearGradient id="f" x1="-29.357" y1="-10.74" x2="-29.281" y2="-10.74" xlink:href="#b"/><clipPath id="g"><path d="M258.3,286.8c.293.554,1.725,3.247,1.974,3.714h-3.934c.245-.467,1.667-3.16,1.96-3.714m-.346-.852s-2.34,4.357-2.452,4.567h-.657a.331.331,0,0,0-.331.347.316.316,0,0,0,.331.333h.291l-.89,1.66a1.337,1.337,0,0,0-.037.156.308.308,0,0,0,.126.249,2.357,2.357,0,0,1,.267.105l.1.043-.048-.051.3-.162-.025-.013s.951-1.789,1.055-1.986h4.648l1.065,2.005.013.016a.4.4,0,0,0,.31.149.36.36,0,0,0,.317-.161c-.018.022.049-.155.049-.155,0-.026-.045-.188-.045-.188-1.172-2.539.327.614-3.678-6.912a.389.389,0,0,0-.345-.242.4.4,0,0,0-.357.242" transform="translate(-254.212 -285.707)"/></clipPath><linearGradient id="h" x1="-21.101" y1="-10.471" x2="-21.048" y2="-10.471" xlink:href="#b"/><clipPath id="i"><path d="M330.3,285.991a1.914,1.914,0,0,0-1.056,1.7,1.836,1.836,0,0,0,1.515,1.854l1.323.257,1.215.207c.8.21,1.194.59,1.194,1.159a1.167,1.167,0,0,1-.617,1.051,2.545,2.545,0,0,1-1.349.355,3.1,3.1,0,0,1-1.289-.26,3.723,3.723,0,0,1-.96-.6l-.061-.053h-.083a.341.341,0,0,0-.291.135l-.092.266.046.027a1.933,1.933,0,0,0,1.181.893,4.537,4.537,0,0,0,1.559.285,3.251,3.251,0,0,0,1.83-.52,1.862,1.862,0,0,0,.9-1.608,1.771,1.771,0,0,0-1.537-1.769l-2.542-.416c-.788-.209-1.181-.627-1.181-1.281a1.243,1.243,0,0,1,.767-1.1,3.268,3.268,0,0,1,1.606-.38,4.407,4.407,0,0,1,1.549.259,2.26,2.26,0,0,1,1.168.889l.075.121.143-.026c.323-.059.347-.268.347-.329,0-.468-.467-.864-1.429-1.21a5.817,5.817,0,0,0-1.865-.409,4,4,0,0,0-2.062.5" transform="translate(-329.244 -285.488)"/></clipPath><linearGradient id="j" x1="-29.112" y1="-10.477" x2="-29.043" y2="-10.477" xlink:href="#b"/><clipPath id="k"><path d="M395.822,287v4.371h-4.43V287l-.1-.244-.276-.092a.336.336,0,0,0-.358.336v4.371h-.26l-.27.1-.1.253a.34.34,0,0,0,.366.338h.26v1.778l.1.247.271.091a.34.34,0,0,0,.363-.344v-1.772h4.43v1.785l.1.238.285.093a.332.332,0,0,0,.35-.334V287a.328.328,0,0,0-.351-.336c-.289.034-.382.195-.382.337m-4.809-.336h0l-.038-.011Z" transform="translate(-390.028 -286.653)"/></clipPath><linearGradient id="l" x1="-29.635" y1="-10.877" x2="-29.567" y2="-10.877" xlink:href="#b"/><clipPath id="m"><path d="M455.1,286.495a.479.479,0,0,0-.537.491v4.239h-.483a.344.344,0,0,0-.339.338v.018a.326.326,0,0,0,.339.337h.483v1.656a.474.474,0,0,0,.537.482h4.768c.227-.033.348-.163.348-.343a.326.326,0,0,0-.348-.341h-4.558v-1.455h4.717l.02,0a.342.342,0,0,0,.3-.345.324.324,0,0,0-.34-.344h-4.7v-4.036h4.8a2.226,2.226,0,0,0,.275-.128s.073-.173.073-.173l.02-.045-.015-.021a.339.339,0,0,0-.356-.327H455.1Z" transform="translate(-453.737 -286.495)"/></clipPath><linearGradient id="n" x1="-29.764" y1="-10.854" x2="-29.698" y2="-10.854" xlink:href="#b"/><clipPath id="o"><path d="M521.957,286.615a.471.471,0,0,0-.537.478v6.715a.344.344,0,0,0,.365.343.348.348,0,0,0,.381-.343V287.3h2.08a2.762,2.762,0,0,1,1.634.42,1.611,1.611,0,0,1,.637,1.4,1.425,1.425,0,0,1-.719,1.388,4.044,4.044,0,0,1-1.938.336h-.516c.01,0-.241.084-.241.084L523,291.2a.346.346,0,0,0,.18.306l3.49,2.585c-.018-.012.234.074.234.074a.327.327,0,0,0,.36-.329c-.005-.034-.182-.33-.182-.33a21.161,21.161,0,0,0-2.514-1.983,3.507,3.507,0,0,0,1.674-.415,2.166,2.166,0,0,0,1.035-1.989,2.247,2.247,0,0,0-.977-2.057,3.874,3.874,0,0,0-2.043-.446Z" transform="translate(-521.42 -286.615)"/></clipPath><linearGradient id="p" x1="-35.538" y1="-10.9" x2="-35.462" y2="-10.9" xlink:href="#b"/><linearGradient id="q" x1="0.5" y1="1" x2="0.5" gradientUnits="objectBoundingBox"><stop offset="0.012" stop-color="#969994"/><stop offset="0.157" stop-color="#afb2ae"/><stop offset="0.359" stop-color="#cccdcc"/><stop offset="0.558" stop-color="#e0e1e1"/><stop offset="0.751" stop-color="#ededee"/><stop offset="0.933" stop-color="#f1f1f2"/></linearGradient><clipPath id="r"><path d="M573.581,18.285c0-.938.487-1.037,3.154-1.037,1.866-.036,2.239.039,2.239.879,0,.472-.469.92-1.182,1.159h-3.5a1.1,1.1,0,0,1-.712-1M558.726,5.614a6.3,6.3,0,0,0,1.04-.207c1.021-.214,2.378-.428,2.073.17-2.267,4.436-7.792,14.994-8.782,16.88H565.34l1.151-.9.524.9h9.063s6.116-.1,5.166-5.445c-.585-2.17-3.258-2.285-3.258-2.285s-6.52-.412-6.688,2.483a2.4,2.4,0,0,0,1.236,2.076h-4.968l-.515-.9-1.188.9h-8.292L566.9,1.126c.3-.663.665-1.126.5-1.126-.279,0-2.145,1.407-8.676,5.614" transform="translate(-553.057)"/></clipPath><linearGradient id="s" x1="-7.201" y1="-2.176" x2="-7.185" y2="-2.176" xlink:href="#q"/><clipPath id="u"><path d="M287.68,124.009l-2.392,4.161h-3.243l1.864-3.418c.012-.683-1.717-.683-2.632.932l-1.352,2.486h-3.681l1.285-2.361c.265-1.091-1.829-.786-2.3.337l-1.122,2.061h-8.2l1.663-3.046c.123-1.592-2.445.211-3.247,2.03l-2.256,4.138c-.925,1.6-2.761,3.277-3.765,3.365a3.438,3.438,0,0,1-2.189-.987q.136,2.186,1.558,2.159a5.931,5.931,0,0,0,3.307-1.094,14.39,14.39,0,0,0,3.227-3.464l4.626.02v-.04h17.432c2.53-4.523,4.635-8.38,4.635-8.38a1.166,1.166,0,0,0-1.024-.482,2.494,2.494,0,0,0-2.189,1.582" transform="translate(-256.107 -122.427)"/></clipPath><linearGradient id="v" x1="-5.084" y1="-4.593" x2="-5.071" y2="-4.593" xlink:href="#q"/><clipPath id="x"><path d="M467.017,78.619a1.317,1.317,0,1,0,1.316-1.257,1.29,1.29,0,0,0-1.316,1.257" transform="translate(-467.017 -77.362)"/></clipPath><linearGradient id="y" x1="-76.132" y1="-22.611" x2="-75.963" y2="-22.611" xlink:href="#q"/><clipPath id="aa"><path d="M513.626,78.619a1.314,1.314,0,1,0,1.311-1.257,1.287,1.287,0,0,0-1.311,1.257" transform="translate(-513.626 -77.362)"/></clipPath><linearGradient id="ab" x1="-78.216" y1="-22.654" x2="-78.047" y2="-22.654" xlink:href="#q"/><clipPath id="ad"><path d="M493.3,45.87a1.315,1.315,0,1,0,1.312-1.259A1.285,1.285,0,0,0,493.3,45.87" transform="translate(-493.296 -44.611)"/></clipPath><linearGradient id="ae" x1="-77.341" y1="-21.202" x2="-77.172" y2="-21.202" xlink:href="#q"/><clipPath id="af"><path d="M656.844,219.494a1.137,1.137,0,1,0,1.137-1.087,1.114,1.114,0,0,0-1.137,1.087" transform="translate(-656.844 -218.407)"/></clipPath><linearGradient id="ag" x1="-97.397" y1="-33.6" x2="-97.213" y2="-33.6" xlink:href="#b"/></defs><g transform="translate(-103 218)"><g transform="translate(17.67 23.935)"><path class="a" d="M67.975,139.648l1.206.011-.663,2.076s-.306,1.153,1.1,1.166a1.652,1.652,0,0,0,1.716-1.071l2.583-8.086,1.206.011-2.561,8.018a3.408,3.408,0,0,1-3.406,2.416c-2.77-.026-1.862-2.42-1.862-2.42Z" transform="translate(-67.156 -133.744)"/><path class="a" d="M195.338,162.621l-1.365,4.274-2.678-.025a1.12,1.12,0,0,1-.833-.569,1.68,1.68,0,0,1-1.314.548l-1.881-.018.39-1.22,2.1.02a.511.511,0,0,0,.378-.157.556.556,0,0,0,.062-.388l-.6-2.031,1.346-.811.646,3.015a.722.722,0,0,0,.679.476c.538.016.858.008.858.008l1-3.137" transform="translate(-173.944 -159.084)"/><path class="a" d="M245.018,142.788a1.031,1.031,0,0,1-.887.724c-.361,0-.55-.333-.421-.736a1.032,1.032,0,0,1,.887-.724C244.958,142.055,245.146,142.385,245.018,142.788Z" transform="translate(-224.09 -141.13)"/><path class="a" d="M265.7,142.921a1.03,1.03,0,0,1-.887.724c-.362,0-.55-.333-.421-.736a1.031,1.031,0,0,1,.887-.724C265.637,142.188,265.826,142.518,265.7,142.921Z" transform="translate(-242.475 -141.249)"/><path class="a" d="M127.324,165.078c-.157-.631-.56-.749-1.191-.766a2.856,2.856,0,0,0-2.577,2c-.506,1.551-.229,2.034.73,2.272,0,0,.377.038.5.039s.55-.029.55-.029a1.282,1.282,0,0,1-.842.839,5.4,5.4,0,0,1-1.557.123l-.408,1.278s.769.027,1.032.009a3.626,3.626,0,0,0,2.045-.816,3.043,3.043,0,0,0,1.005-1.478c.156-.5.491-1.534.656-2.053A2.447,2.447,0,0,0,127.324,165.078Zm-1.5,2.217s-.151.175-.706.176c-.664,0-.5-.584-.5-.584l.183-.574s.33-.779.892-.773.526.453.466.714S125.823,167.294,125.823,167.294Z" transform="translate(-116.39 -160.92)"/><path class="a" d="M170.843,141.692l-1.226-.012,2.444-7.653,1.227.012Z" transform="translate(-158.252 -133.996)"/></g><g transform="translate(17.398 40.767)"><g transform="translate(0 0.034)"><g class="b"><rect class="c" width="6.443" height="7.627"/></g></g><g transform="translate(7.63 0.144)"><g class="d"><rect class="e" width="6.656" height="7.638" transform="translate(0 0)"/></g></g><g transform="translate(14.805 0.112)"><g class="f"><rect class="g" width="5.864" height="7.561" transform="translate(0 0)"/></g></g><g transform="translate(21.02 0.024)"><g class="h"><rect class="i" width="8.453" height="7.769" transform="translate(0 0)"/></g></g><g transform="translate(29.343)"><g class="j"><rect class="k" width="6.413" height="7.782" transform="translate(0 0)"/></g></g><g transform="translate(36.085 0.129)"><g class="l"><rect class="m" width="6.527" height="7.526" transform="translate(0)"/></g></g><g transform="translate(43.152 0.112)"><g class="n"><rect class="o" width="6.736" height="7.561"/></g></g><g transform="translate(50.659 0.125)"><g class="p"><rect class="q" width="5.853" height="7.549" transform="translate(0 0)"/></g></g></g><rect class="r" width="83.312" height="0.494" transform="translate(16.003 37.431)"/><g transform="translate(38.628 9.1)"><g transform="translate(32.938)"><path class="s" d="M573.581,18.285c0-.938.487-1.037,3.154-1.037,1.866-.036,2.239.039,2.239.879,0,.472-.469.92-1.182,1.159h-3.5a1.1,1.1,0,0,1-.712-1M558.726,5.614a6.3,6.3,0,0,0,1.04-.207c1.021-.214,2.378-.428,2.073.17-2.267,4.436-7.792,14.994-8.782,16.88H565.34l1.151-.9.524.9h9.063s6.116-.1,5.166-5.445c-.585-2.17-3.258-2.285-3.258-2.285s-6.52-.412-6.688,2.483a2.4,2.4,0,0,0,1.236,2.076h-4.968l-.515-.9-1.188.9h-8.292L566.9,1.126c.3-.663.665-1.126.5-1.126-.279,0-2.145,1.407-8.676,5.614" transform="translate(-553.057)"/><g class="t"><rect class="u" width="29.136" height="22.456" transform="translate(0)"/></g></g><g transform="translate(0 13.58)"><path class="s" d="M287.68,124.009l-2.392,4.161h-3.243l1.864-3.418c.012-.683-1.717-.683-2.632.932l-1.352,2.486h-3.681l1.285-2.361c.265-1.091-1.829-.786-2.3.337l-1.122,2.061h-8.2l1.663-3.046c.123-1.592-2.445.211-3.247,2.03l-2.256,4.138c-.925,1.6-2.761,3.277-3.765,3.365a3.438,3.438,0,0,1-2.189-.987q.136,2.186,1.558,2.159a5.931,5.931,0,0,0,3.307-1.094,14.39,14.39,0,0,0,3.227-3.464l4.626.02v-.04h17.432c2.53-4.523,4.635-8.38,4.635-8.38a1.166,1.166,0,0,0-1.024-.482,2.494,2.494,0,0,0-2.189,1.582" transform="translate(-256.107 -122.427)"/><g class="v"><rect class="w" width="34.786" height="13.456" transform="translate(0 0)"/></g></g><g transform="translate(23.394 8.581)"><path class="s" d="M467.017,78.619a1.317,1.317,0,1,0,1.316-1.257,1.29,1.29,0,0,0-1.316,1.257" transform="translate(-467.017 -77.362)"/><g class="x"><rect class="y" width="2.63" height="2.519"/></g></g><g transform="translate(28.564 8.581)"><path class="s" d="M513.626,78.619a1.314,1.314,0,1,0,1.311-1.257,1.287,1.287,0,0,0-1.311,1.257" transform="translate(-513.626 -77.362)"/><g class="z"><rect class="aa" width="2.626" height="2.519"/></g></g><g transform="translate(26.309 4.948)"><path class="s" d="M493.3,45.87a1.315,1.315,0,1,0,1.312-1.259A1.285,1.285,0,0,0,493.3,45.87" transform="translate(-493.296 -44.611)"/><g class="ab"><rect class="ac" width="2.627" height="2.518" transform="translate(0 0)"/></g></g></g><g transform="translate(83.078 33.326)"><g class="ad"><rect class="ae" width="2.272" height="2.174"/></g></g><g transform="translate(10.221 36.016)"><path class="af" d="M.673,245.525v-1.736H0v-.3H1.685v.3H1.021v1.736Z" transform="translate(0 -243.395)"/><path class="af" d="M19.655,244.693v-1.4l-.492,1.4h-.324l-.491-1.4v1.4H18v-2.038h.437l.566,1.594.56-1.594H20v2.038Z" transform="translate(-16.005 -242.655)"/></g><g transform="translate(76.354 42.557)"><path class="a" d="M599.823,303.187h-3.306a.3.3,0,0,0-.2.067.283.283,0,0,0-.1.222.3.3,0,0,0,.089.214.3.3,0,0,0,.209.084h1.358V308.2a.3.3,0,0,0,.063.191.279.279,0,0,0,.224.107.294.294,0,0,0,.208-.087.3.3,0,0,0,.087-.211v-4.424h1.366a.3.3,0,0,0,.2-.075.281.281,0,0,0,.1-.212.3.3,0,0,0-.08-.214.289.289,0,0,0-.215-.086" transform="translate(-596.219 -303.014)"/><path class="a" d="M643.756,301.969l-.013-.025a.321.321,0,0,0-.185-.151l-.083-.165-.083.164a.3.3,0,0,0-.186.175l-1.577,3.088h-.387a.294.294,0,0,0-.2.068.278.278,0,0,0-.1.22.3.3,0,0,0,.079.207.291.291,0,0,0,.216.093h.09l-.411.8-1.8-1.212a2.079,2.079,0,0,0,1.09-.409,1.579,1.579,0,0,0,.56-1.3,1.611,1.611,0,0,0-.528-1.277,2.1,2.1,0,0,0-1.42-.446h-1.572a.4.4,0,0,0-.194.045.29.29,0,0,0-.156.257v4.709a.307.307,0,0,0,.067.2.294.294,0,0,0,.246.1.3.3,0,0,0,.188-.087.29.29,0,0,0,.086-.21V304.72l.393.264a.3.3,0,0,0,.162.225l2.771,1.855.109.051h.053c.008,0,.015,0,.023,0a.288.288,0,0,0,.059.011l.1-.007.065-.048a.345.345,0,0,0,.062-.06l.7-1.364h2.967l.678,1.327a.312.312,0,0,0,.072.09l.087.067h.09a.289.289,0,0,0,.221-.1.3.3,0,0,0,.075-.2l0-.069Zm-1.477,3.085,1.194-2.351,1.182,2.351Zm-4.308-.328-.487-.043v-2.3h1.265a3.043,3.043,0,0,1,.614.049,1.013,1.013,0,0,1,.7.537,1.208,1.208,0,0,1,.121.551,1.22,1.22,0,0,1-.14.61.91.91,0,0,1-.412.374,1.332,1.332,0,0,1-.387.121,4.642,4.642,0,0,1-.692.04c-.127,0-.236,0-.326-.009h-.065a.278.278,0,0,0-.187.068" transform="translate(-632.385 -301.628)"/><path class="a" d="M728.719,303.441a2.917,2.917,0,0,0-.69-.193,5.62,5.62,0,0,0-.882-.062h-1.023a.387.387,0,0,0-.2.048.293.293,0,0,0-.152.258v4.629a.364.364,0,0,0,.085.251.353.353,0,0,0,.265.1h1.1a4.216,4.216,0,0,0,1.186-.133,2.463,2.463,0,0,0,.847-.452,2.565,2.565,0,0,0,.722-.915,2.719,2.719,0,0,0,.251-1.154,2.606,2.606,0,0,0-.406-1.423,2.517,2.517,0,0,0-1.109-.953m-1.384,4.444h-.972v-4.111h.71a5.388,5.388,0,0,1,.912.064,2.091,2.091,0,0,1,.6.2,1.906,1.906,0,0,1,.782.729,2.023,2.023,0,0,1,.282,1.053,2.119,2.119,0,0,1-.237.989,1.978,1.978,0,0,1-.662.735,1.933,1.933,0,0,1-.587.261,3.4,3.4,0,0,1-.826.083" transform="translate(-711.404 -303.014)"/><path class="a" d="M771.613,307.884h-2.866v-.857H771.7a.294.294,0,0,0,.2-.069.283.283,0,0,0,.1-.219.292.292,0,0,0-.079-.2.288.288,0,0,0-.215-.1h-2.957v-2.666h2.866a.3.3,0,0,0,.2-.069.285.285,0,0,0,.1-.218.3.3,0,0,0-.077-.2.289.289,0,0,0-.219-.1h-3.1a.4.4,0,0,0-.2.048.293.293,0,0,0-.151.258v2.947H767.9a.293.293,0,0,0-.2.068.279.279,0,0,0-.1.22.3.3,0,0,0,.08.207.287.287,0,0,0,.215.093h.261v1.094a.36.36,0,0,0,.085.251.35.35,0,0,0,.264.1h3.1a.292.292,0,0,0,.209-.08.3.3,0,0,0,.086-.22.285.285,0,0,0-.1-.22.3.3,0,0,0-.191-.068" transform="translate(-748.596 -303.013)"/></g></g></svg>